<svg xmlns="http://www.w3.org/2000/svg" xmlns:v="http://vecta.io" v:json="{&quot;_titleBlocks_dataRevision&quot;:&quot;&quot;}" style="stroke:#000;stroke-linecap:round;stroke-linejoin:round;fill:#fff;fill-rule:evenodd;font-family:Roboto;font-size:14px;text-anchor:middle" viewBox="368.2 328.9 215.4 36.9"><style>svg .Text\.cls{stroke:none}</style><path fill="#000" fill-rule="nonzero" stroke="none" stroke-opacity="0" d="M384.3 336.6q-4.1 0-6.4 3.1-2.2 3.1-2.2 8.6 0 11.5 8.6 11.5 3.6 0 8.7-1.8v6.1q-4.2 1.7-9.4 1.7-7.5 0-11.4-4.5-4-4.5-4-13 0-5.4 1.9-9.4 2-4 5.6-6.2 3.7-2.1 8.6-2.1 5 0 10 2.4l-2.3 5.9-3.9-1.6q-1.9-.7-3.8-.7ZM421.4 365.3h-5l-1.4-3.5h-.2q-1.8 2.3-3.7 3.1-1.9.9-5 .9-3.8 0-5.9-2.1-2.2-2.2-2.2-6.2 0-4.2 2.9-6.1 2.9-2 8.8-2.2l4.6-.2v-1.1q0-4-4.1-4-3.2 0-7.4 1.9l-2.4-4.8q4.6-2.4 10.1-2.4 5.2 0 8.1 2.3 2.8 2.3 2.8 7v17.4Zm-7.1-9.9v-2.2l-2.8.1q-3.1.1-4.6 1.1-1.6 1.1-1.6 3.2 0 3 3.5 3 2.5 0 4-1.4 1.5-1.5 1.5-3.8ZM452.3 352.1v13.2h-7.2V350q0-2.8-.9-4.3-1-1.4-3-1.4-2.8 0-4 2-1.3 2.1-1.3 6.7v12.3h-7.1v-26.2h5.5l.9 3.3h.4q1.1-1.8 3.1-2.8 2-1 4.5-1 5.9 0 8 3.8h.6q1.1-1.8 3.1-2.8 2.1-1 4.7-1 4.4 0 6.7 2.3t2.3 7.3v17.1h-7.2V350q0-2.8-.9-4.3-1-1.4-3-1.4-2.6 0-3.9 1.9-1.3 1.9-1.3 5.9ZM486.7 343.7q-2.2 0-3.5 1.4-1.3 1.5-1.5 4.1h10q0-2.6-1.3-4.1-1.4-1.4-3.7-1.4Zm1.1 22.1q-6.4 0-9.9-3.5-3.6-3.5-3.6-9.9 0-6.6 3.3-10.2 3.3-3.6 9.1-3.6 5.6 0 8.6 3.2 3.1 3.1 3.1 8.7v3.5h-16.9q.2 3 1.8 4.7 1.7 1.7 4.8 1.7 2.3 0 4.5-.4 2.1-.5 4.4-1.6v5.5q-1.9 1-4 1.4-2.2.5-5.2.5ZM511.4 328.9v36.5h-7.1v-36.5h7.1ZM547.6 331.1v34.3h-7.3v-14.8h-13.5v14.8h-7.3v-34.3h7.3v13.4h13.5v-13.4h7.3ZM563.5 337.1v9.2h2.3q3.5 0 5.1-1.1 1.6-1.2 1.6-3.6 0-2.5-1.6-3.5-1.7-1-5.2-1h-2.2Zm3.8 15.1h-3.8v13.2h-7.3v-34.3h10q7 0 10.3 2.5 3.4 2.6 3.4 7.8 0 3-1.7 5.3-1.7 2.4-4.7 3.7l10.1 15h-8.1l-8.2-13.2Z"/></svg>