<?xml version="1.0" encoding="UTF-8"?>
<svg xmlns="http://www.w3.org/2000/svg" xmlns:xlink="http://www.w3.org/1999/xlink" width="500px" height="500px" viewBox="0 0 500 500" version="1.1">
<g id="surface1">
<path style=" stroke:none;fill-rule:evenodd;fill:rgb(13.72549%,21.176471%,31.764706%);fill-opacity:1;" d="M 428.222656 51.855469 C 427.148438 52.476562 424.25 54.929688 421.78125 57.3125 L 417.296875 61.636719 L 427.128906 71.46875 L 436.957031 81.300781 L 441.585938 76.269531 C 449.089844 68.109375 449.730469 60.304688 443.394531 54.234375 C 441.09375 52.03125 439.378906 51.359375 435.324219 51.078125 C 432.492188 50.886719 429.296875 51.234375 428.222656 51.855469 M 361.570312 60.242188 C 362.511719 60.488281 364.050781 60.488281 364.992188 60.242188 C 365.929688 60 365.160156 59.796875 363.28125 59.796875 C 361.402344 59.796875 360.632812 60 361.570312 60.242188 M 291.007812 101.320312 L 267.089844 125.488281 L 291.257812 101.570312 C 304.554688 88.414062 315.429688 77.539062 315.429688 77.398438 C 315.429688 76.707031 313.234375 78.859375 291.007812 101.320312 M 376.464844 123.046875 C 393.109375 139.695312 406.945312 153.320312 407.214844 153.320312 C 407.484375 153.320312 394.085938 139.695312 377.441406 123.046875 C 360.796875 106.398438 346.960938 92.773438 346.691406 92.773438 C 346.421875 92.773438 359.820312 106.398438 376.464844 123.046875 M 365.722656 133.789062 C 382.367188 150.4375 396.203125 164.0625 396.472656 164.0625 C 396.742188 164.0625 383.34375 150.4375 366.699219 133.789062 C 350.054688 117.140625 336.21875 103.515625 335.949219 103.515625 C 335.679688 103.515625 349.078125 117.140625 365.722656 133.789062 M 234.480469 124.410156 C 231.402344 126.117188 229.570312 129.582031 229.527344 133.78125 C 229.492188 137.003906 233.113281 140.8125 296.289062 203.988281 L 363.085938 270.785156 L 367.78125 270.253906 C 374.488281 269.5 378.074219 264.484375 376.511719 258.054688 C 375.792969 255.09375 248.628906 126.929688 243.945312 124.445312 C 240.695312 122.722656 237.546875 122.710938 234.480469 124.410156 M 437.847656 135.253906 C 437.84375 140.089844 438.007812 142.1875 438.214844 139.921875 C 438.417969 137.65625 438.421875 133.699219 438.21875 131.132812 C 438.015625 128.566406 437.851562 130.421875 437.847656 135.253906 M 338.378906 162.109375 C 354.484375 178.222656 367.882812 191.40625 368.152344 191.40625 C 368.421875 191.40625 355.460938 178.222656 339.355469 162.109375 C 323.25 145.996094 309.851562 132.8125 309.582031 132.8125 C 309.3125 132.8125 322.273438 145.996094 338.378906 162.109375 M 396.476562 207.765625 L 373.535156 230.957031 L 396.726562 208.015625 C 409.484375 195.398438 419.921875 184.960938 419.921875 184.820312 C 419.921875 184.128906 417.792969 186.210938 396.476562 207.765625 M 180.660156 230.960938 L 170.4375 241.21875 L 176.761719 247.320312 L 183.085938 253.417969 L 177.257812 247.308594 L 171.433594 241.199219 L 181.648438 230.949219 C 187.265625 225.3125 191.640625 220.703125 191.371094 220.703125 C 191.101562 220.703125 186.28125 225.320312 180.660156 230.960938 M 126.460938 231.851562 C 123.65625 234.652344 122.59375 238.257812 123.484375 241.945312 C 124.390625 245.6875 254.3125 375.609375 258.054688 376.515625 C 264.679688 378.117188 270.507812 373.660156 270.507812 366.996094 L 270.507812 362.808594 L 203.851562 296.148438 L 137.191406 229.492188 L 133.003906 229.492188 C 129.878906 229.492188 128.21875 230.089844 126.460938 231.851562 M 102.53125 292.726562 L 79.589844 315.917969 L 102.78125 292.976562 C 124.335938 271.660156 126.417969 269.53125 125.722656 269.53125 C 125.585938 269.53125 115.148438 279.96875 102.53125 292.726562 M 161.132812 338.378906 C 176.96875 354.222656 190.148438 367.1875 190.417969 367.1875 C 190.6875 367.1875 177.945312 354.222656 162.109375 338.378906 C 146.273438 322.535156 133.09375 309.570312 132.824219 309.570312 C 132.554688 309.570312 145.296875 322.535156 161.132812 338.378906 M 252.671875 323.230469 C 258.617188 329.390625 258.804688 329.5 260.484375 327.667969 C 262.132812 325.871094 262.132812 325.847656 260.445312 327.121094 C 258.871094 328.3125 258.050781 327.84375 252.632812 322.683594 L 246.582031 316.914062 L 252.671875 323.230469 M 132.8125 365.722656 C 149.1875 382.105469 162.804688 395.507812 163.074219 395.507812 C 163.34375 395.507812 150.164062 382.105469 133.789062 365.722656 C 117.414062 349.339844 103.796875 335.9375 103.527344 335.9375 C 103.257812 335.9375 116.4375 349.339844 132.8125 365.722656 M 122.558594 376.953125 C 139.203125 393.601562 153.039062 407.226562 153.308594 407.226562 C 153.578125 407.226562 140.179688 393.601562 123.535156 376.953125 C 106.890625 360.304688 93.054688 346.679688 92.785156 346.679688 C 92.515625 346.679688 105.914062 360.304688 122.558594 376.953125 M 186.949219 420.164062 L 184.082031 423.339844 L 187.257812 420.472656 C 190.214844 417.796875 190.878906 416.992188 190.125 416.992188 C 189.957031 416.992188 188.527344 418.421875 186.949219 420.164062 M 58.210938 423.917969 C 50.789062 432.171875 50.21875 439.648438 56.554688 445.71875 C 59.554688 448.59375 65.355469 449.9375 69.871094 448.804688 C 71.304688 448.445312 74.792969 445.960938 77.621094 443.285156 L 82.765625 438.421875 L 73.023438 428.683594 C 67.667969 423.328125 63.148438 418.945312 62.984375 418.945312 C 62.816406 418.945312 60.667969 421.183594 58.210938 423.917969 "/>
<path style=" stroke:none;fill-rule:evenodd;fill:rgb(88.235294%,80.392157%,63.137255%);fill-opacity:1;" d="M 191.453125 221.175781 L 171.386719 241.179688 L 177.265625 247.066406 L 183.144531 252.949219 L 203.390625 232.625 C 221.382812 214.554688 223.632812 211.945312 223.632812 209.132812 C 223.632812 204.65625 219.933594 201.171875 215.179688 201.171875 C 211.726562 201.171875 210.40625 202.285156 191.453125 221.175781 M 102.421875 293.6875 C 89.214844 306.988281 77 319.96875 75.277344 322.53125 C 60.402344 344.648438 58.289062 373.589844 69.835938 397.132812 C 81.023438 419.953125 102.410156 435.238281 127.898438 438.628906 C 143.585938 440.71875 161.582031 436.789062 176.035156 428.113281 C 180.203125 425.613281 190.007812 416.640625 207.03125 399.753906 L 231.933594 375.050781 L 179.1875 322.277344 L 126.4375 269.507812 L 102.421875 293.6875 M 267.375 296.609375 L 247.050781 316.855469 L 252.933594 322.734375 L 258.820312 328.613281 L 278.824219 308.546875 C 297.714844 289.59375 298.828125 288.273438 298.828125 284.820312 C 298.828125 280.066406 295.34375 276.367188 290.867188 276.367188 C 288.054688 276.367188 285.445312 278.617188 267.375 296.609375 M 122.179688 309.328125 C 121.050781 310.265625 119.839844 312.503906 119.492188 314.296875 C 118.871094 317.507812 119.339844 318.035156 150.652344 349.347656 C 181.964844 380.660156 182.492188 381.128906 185.703125 380.507812 C 189.929688 379.691406 192.382812 376.648438 192.382812 372.222656 C 192.382812 368.886719 190.667969 366.972656 161.847656 338.152344 C 133.027344 309.332031 131.113281 307.617188 127.777344 307.617188 C 125.832031 307.617188 123.3125 308.386719 122.179688 309.328125 M 93.917969 337.21875 C 92.585938 338.640625 91.796875 340.734375 91.796875 342.855469 C 91.796875 345.984375 94.0625 348.496094 122.835938 377.21875 C 150.863281 405.191406 154.1875 408.203125 157.0625 408.203125 C 161.328125 408.203125 165.039062 404.492188 165.039062 400.226562 C 165.039062 397.351562 162.03125 394.027344 134.054688 366 C 104.867188 336.761719 102.863281 334.960938 99.554688 334.960938 C 97.148438 334.960938 95.375 335.671875 93.917969 337.21875 "/>
<path style=" stroke:none;fill-rule:evenodd;fill:rgb(87.45098%,67.843137%,63.137255%);fill-opacity:1;" d="M 349.683594 61.609375 C 342.609375 62.996094 335.917969 65.433594 327.636719 69.640625 C 320.511719 73.261719 317.542969 75.875 293.945312 99.28125 L 268.066406 124.949219 L 320.800781 177.734375 L 373.535156 230.515625 L 398.992188 204.859375 C 423.171875 180.484375 424.671875 178.757812 428.90625 170.410156 C 435.992188 156.457031 436.972656 152.179688 436.992188 135.253906 C 437.011719 121.65625 436.804688 119.976562 434.140625 111.851562 C 426.042969 87.132812 403.914062 67.433594 378.109375 61.964844 C 370.972656 60.453125 356.503906 60.269531 349.683594 61.609375 M 337.816406 94.652344 C 332.265625 100.199219 332.492188 100.515625 365.984375 134.0625 C 382.492188 150.59375 396.992188 164.378906 398.210938 164.691406 C 403.507812 166.050781 409.214844 160.34375 407.855469 155.046875 C 407.542969 153.828125 393.757812 139.328125 377.226562 122.820312 C 343.679688 89.328125 343.363281 89.101562 337.816406 94.652344 M 311.914062 120.542969 C 308.558594 121.996094 307.617188 123.671875 307.617188 128.207031 C 307.617188 130.902344 311.144531 134.789062 338.140625 161.820312 C 366.800781 190.519531 368.871094 192.382812 372.148438 192.382812 C 376.5625 192.382812 380.207031 188.820312 380.207031 184.5 C 380.207031 181.839844 376.5625 177.847656 349.527344 150.890625 C 332.652344 134.070312 317.96875 120.0625 316.894531 119.769531 C 315.820312 119.472656 313.578125 119.820312 311.914062 120.542969 M 201.632812 210.203125 L 194.824219 217.285156 L 201.90625 210.476562 C 208.480469 204.148438 209.429688 203.125 208.714844 203.125 C 208.566406 203.125 205.378906 206.3125 201.632812 210.203125 M 202.148438 233.886719 C 191.6875 244.359375 183.34375 252.929688 183.613281 252.929688 C 183.878906 252.929688 192.664062 244.359375 203.125 233.886719 C 213.585938 223.414062 221.929688 214.84375 221.660156 214.84375 C 221.390625 214.84375 212.609375 223.414062 202.148438 233.886719 M 265.625 297.363281 C 255.160156 307.835938 246.820312 316.40625 247.089844 316.40625 C 247.355469 316.40625 256.136719 307.835938 266.601562 297.363281 C 277.0625 286.890625 285.40625 278.320312 285.136719 278.320312 C 284.867188 278.320312 276.085938 286.890625 265.625 297.363281 M 284.667969 302.734375 C 278.238281 309.179688 273.199219 314.453125 273.46875 314.453125 C 273.734375 314.453125 279.214844 309.179688 285.644531 302.734375 C 292.074219 296.289062 297.113281 291.015625 296.84375 291.015625 C 296.578125 291.015625 291.097656 296.289062 284.667969 302.734375 M 61.804688 364.746094 C 61.8125 367.429688 62 368.414062 62.226562 366.929688 C 62.449219 365.445312 62.441406 363.246094 62.210938 362.046875 C 61.980469 360.84375 61.796875 362.0625 61.804688 364.746094 "/>
<path style=" stroke:none;fill-rule:evenodd;fill:rgb(10.588235%,18.039216%,28.235294%);fill-opacity:1;" d="M 464.265625 22.582031 L 449.386719 37.351562 L 444.734375 35.765625 C 438.753906 33.726562 430.339844 33.742188 424.289062 35.804688 C 420.78125 37 417.308594 39.5625 411.140625 45.511719 C 404.777344 51.644531 402.414062 53.371094 401.328125 52.671875 C 397.800781 50.398438 381.464844 45.972656 372.804688 44.945312 C 351.972656 42.472656 329.9375 48.144531 311.035156 60.84375 C 307.8125 63.011719 294.1875 75.652344 280.761719 88.9375 L 256.347656 113.097656 L 253.007812 110.78125 C 248.863281 107.910156 240.59375 106.113281 235.660156 107.011719 C 221.835938 109.527344 211.5 122.667969 213.257812 135.492188 C 214.679688 145.832031 214.046875 145.125 284.460938 215.480469 C 328.207031 259.1875 352.449219 282.722656 355.082031 284.03125 C 372.28125 292.59375 392.796875 280.285156 392.988281 261.292969 C 393.054688 254.839844 391.625 250.3125 387.925781 245.292969 L 385.539062 242.054688 L 408.886719 218.4375 C 433.742188 193.296875 439.027344 186.804688 445.265625 173.757812 C 451.65625 160.382812 453.417969 152.242188 453.476562 135.742188 C 453.535156 120.476562 452.359375 113.65625 447.65625 101.898438 L 445.140625 95.601562 L 452.90625 87.511719 C 458.882812 81.289062 461.089844 78.203125 462.476562 74.136719 C 464.679688 67.671875 464.679688 58.519531 462.484375 53.265625 L 460.871094 49.40625 L 474.960938 35.203125 C 492.722656 17.289062 493.289062 16.289062 488.683594 10.816406 C 486.722656 8.488281 485.363281 7.8125 482.648438 7.8125 C 479.4375 7.8125 477.898438 9.046875 464.265625 22.582031 M 428.222656 51.855469 C 427.148438 52.476562 424.25 54.929688 421.78125 57.3125 L 417.296875 61.636719 L 427.128906 71.46875 L 436.957031 81.300781 L 441.585938 76.269531 C 449.089844 68.109375 449.730469 60.304688 443.394531 54.234375 C 441.09375 52.03125 439.378906 51.359375 435.324219 51.078125 C 432.492188 50.886719 429.296875 51.234375 428.222656 51.855469 M 354.304688 60.570312 C 341.46875 62.101562 330.179688 66.617188 318.847656 74.75 C 315.625 77.0625 302.769531 89.207031 290.285156 101.738281 L 267.582031 124.523438 L 374.019531 230.945312 L 396.054688 208.976562 C 408.171875 196.898438 420.101562 184.375 422.5625 181.152344 C 427.894531 174.171875 433.929688 161.929688 436.046875 153.808594 C 441.128906 134.324219 437.453125 111.804688 426.46875 95.132812 C 410.203125 70.445312 382.558594 57.203125 354.304688 60.570312 M 337.890625 94.726562 C 336.738281 95.878906 335.9375 97.980469 335.9375 99.859375 C 335.9375 102.730469 338.910156 106.011719 366.460938 133.550781 C 393.960938 161.039062 397.296875 164.0625 400.152344 164.0625 C 404.273438 164.0625 407.226562 161.105469 407.226562 156.976562 C 407.226562 154.105469 404.253906 150.824219 376.703125 123.285156 C 349.203125 95.796875 345.867188 92.773438 343.011719 92.773438 C 341.144531 92.773438 339.039062 93.574219 337.890625 94.726562 M 310.015625 122.515625 C 304.914062 127.613281 304.964844 127.6875 338.777344 161.5 C 369.464844 192.183594 369.992188 192.652344 373.203125 192.03125 C 377.273438 191.242188 379.882812 188.203125 379.882812 184.25 C 379.882812 181.574219 376.300781 177.636719 349.332031 150.667969 C 321.738281 123.070312 318.476562 120.117188 315.597656 120.117188 C 313.515625 120.117188 311.578125 120.949219 310.015625 122.515625 M 234.480469 124.410156 C 231.402344 126.117188 229.570312 129.582031 229.527344 133.78125 C 229.492188 137.003906 233.113281 140.8125 296.289062 203.988281 L 363.085938 270.785156 L 367.78125 270.253906 C 374.488281 269.5 378.074219 264.484375 376.511719 258.054688 C 375.792969 255.09375 248.628906 126.929688 243.945312 124.445312 C 240.695312 122.722656 237.546875 122.710938 234.480469 124.410156 M 208.976562 185.425781 C 203.257812 187.300781 199.675781 190.332031 180.726562 209.351562 L 160.773438 229.382812 L 154.425781 223.441406 C 146.214844 215.761719 141.09375 213.410156 132.8125 213.523438 C 125.414062 213.625 120.613281 215.46875 115.328125 220.246094 C 107.449219 227.363281 104.804688 240.570312 109.335938 250.195312 C 110.523438 252.71875 112.117188 255.296875 112.875 255.929688 C 113.636719 256.558594 114.257812 257.464844 114.257812 257.945312 C 114.257812 258.421875 103.777344 269.242188 90.96875 281.992188 C 66.402344 306.453125 61.101562 312.921875 54.734375 326.242188 C 49.289062 337.632812 46.796875 347.882812 46.199219 361.328125 C 45.632812 374.183594 47.636719 386.335938 52.214844 397.78125 L 54.878906 404.441406 L 47.929688 411.605469 C 38.980469 420.835938 36.632812 425.851562 36.707031 435.546875 C 36.742188 439.925781 37.382812 444.289062 38.296875 446.40625 L 39.832031 449.9375 L 25.710938 463.984375 C 17.941406 471.707031 10.921875 479.28125 10.109375 480.820312 C 7.253906 486.210938 11.015625 492.1875 17.265625 492.1875 C 20.59375 492.1875 21.980469 491.074219 36.238281 476.914062 L 51.617188 461.644531 L 55.613281 463.242188 C 60.757812 465.304688 70.59375 465.292969 76.671875 463.226562 C 80.097656 462.054688 83.625 459.492188 89.335938 454.007812 C 95.324219 448.257812 97.59375 446.632812 98.671875 447.328125 C 99.457031 447.832031 104.097656 449.539062 108.980469 451.125 C 131.378906 458.375 156.648438 456.398438 177.847656 445.738281 C 188.597656 440.332031 198.664062 431.839844 221.585938 408.84375 L 243.464844 386.890625 L 246.976562 389.199219 C 260.957031 398.390625 280.996094 390.644531 285.777344 374.203125 C 288.660156 364.285156 285.957031 355.703125 276.851562 345.867188 L 271.171875 339.734375 L 276.453125 334.214844 C 279.359375 331.179688 288.328125 321.953125 296.386719 313.707031 C 304.445312 305.460938 311.902344 297.09375 312.960938 295.109375 C 315.726562 289.9375 315.628906 279.246094 312.773438 273.832031 C 310.054688 268.6875 305.09375 264.359375 299.417969 262.191406 C 293.960938 260.109375 284.351562 260.582031 279.253906 263.183594 C 277.398438 264.128906 266.871094 273.84375 255.859375 284.773438 L 235.839844 304.640625 L 215.597656 284.429688 L 195.351562 264.21875 L 215.332031 244.09375 C 237.425781 221.839844 239.609375 218.671875 239.515625 208.960938 C 239.398438 196 229.777344 185.816406 216.867188 184.976562 C 213.875 184.78125 210.324219 184.984375 208.976562 185.425781 M 190.96875 220.679688 L 170.421875 241.160156 L 176.246094 247.046875 C 179.445312 250.28125 182.523438 252.929688 183.085938 252.929688 C 184.804688 252.929688 222.5 214.527344 223.546875 211.707031 C 225.640625 206.078125 220.867188 200.195312 214.207031 200.195312 C 212.015625 200.195312 207.742188 203.960938 190.96875 220.679688 M 126.460938 231.851562 C 123.65625 234.652344 122.59375 238.257812 123.484375 241.945312 C 124.390625 245.6875 254.3125 375.609375 258.054688 376.515625 C 264.679688 378.117188 270.507812 373.660156 270.507812 366.996094 L 270.507812 362.808594 L 203.851562 296.148438 L 137.191406 229.492188 L 133.003906 229.492188 C 129.878906 229.492188 128.21875 230.089844 126.460938 231.851562 M 101.4375 293.703125 C 74.800781 320.601562 70.6875 326.070312 65.289062 341.796875 C 62.28125 350.546875 62.101562 351.851562 62.105469 364.746094 C 62.113281 377.660156 62.292969 378.945312 65.351562 387.917969 C 73.796875 412.6875 94.445312 431.726562 119.613281 437.96875 C 128.726562 440.226562 144.773438 440.238281 153.808594 437.992188 C 161.808594 436.003906 172.707031 431.195312 179.371094 426.710938 C 181.960938 424.96875 194.964844 412.738281 208.265625 399.53125 L 232.445312 375.515625 L 179.457031 322.523438 C 150.316406 293.378906 126.222656 269.53125 125.921875 269.53125 C 125.617188 269.53125 114.601562 280.40625 101.4375 293.703125 M 288.078125 276.542969 C 285.421875 277.507812 247.070312 315.265625 247.070312 316.914062 C 247.070312 317.476562 249.710938 320.546875 252.941406 323.742188 L 258.8125 329.550781 L 278.820312 309.558594 C 300.40625 287.992188 301.492188 286.371094 298.402344 280.390625 C 297.535156 278.714844 296.722656 277.34375 296.597656 277.34375 C 296.476562 277.34375 295.054688 276.964844 293.441406 276.503906 C 291.757812 276.019531 289.472656 276.039062 288.078125 276.542969 M 122.515625 310.015625 C 120.949219 311.578125 120.117188 313.515625 120.117188 315.597656 C 120.117188 318.476562 123.070312 321.738281 150.667969 349.332031 C 177.636719 376.300781 181.574219 379.882812 184.25 379.882812 C 188.777344 379.882812 191.796875 376.976562 191.796875 372.625 C 191.796875 369.195312 190.296875 367.523438 161.050781 338.316406 C 127.710938 305.023438 127.59375 304.9375 122.515625 310.015625 M 96.058594 336.101562 C 93.867188 337.164062 91.796875 340.765625 91.796875 343.515625 C 91.796875 344.414062 105.738281 359.113281 122.78125 376.1875 C 150.828125 404.28125 154.070312 407.226562 156.960938 407.226562 C 161.121094 407.226562 164.0625 404.28125 164.0625 400.125 C 164.0625 397.234375 161.117188 393.992188 133.019531 365.945312 C 112.632812 345.59375 101.320312 334.984375 100.0625 335.027344 C 99.007812 335.0625 97.207031 335.546875 96.058594 336.101562 M 58.210938 423.917969 C 50.789062 432.171875 50.21875 439.648438 56.554688 445.71875 C 59.554688 448.59375 65.355469 449.9375 69.871094 448.804688 C 71.304688 448.445312 74.792969 445.960938 77.621094 443.285156 L 82.765625 438.421875 L 73.023438 428.683594 C 67.667969 423.328125 63.148438 418.945312 62.984375 418.945312 C 62.816406 418.945312 60.667969 421.183594 58.210938 423.917969 "/>
</g>
</svg>
