<svg xmlns="http://www.w3.org/2000/svg" width="512" height="512"><path fill="#c4d4df" fill-rule="evenodd" d="M438.5 53.1c-1.1.6-4 3.1-6.6 5.6l-4.6 4.4 10 10 10.1 10.2 4.8-5.2c7.7-8.4 8.3-16.3 1.8-22.6-2.3-2.2-4-3-8.2-3.2a17 17 0 0 0-7.3.8m-68.3 8.6c1 .2 2.6.2 3.6 0 1-.3.1-.5-1.8-.5-2 0-2.7.2-1.8.5m-72.2 42-24.5 24.8 24.8-24.5L323 79.3c0-.8-2.2 1.5-25 24.5m87.5 22.2c17 17 31.2 31 31.5 31 .3 0-13.5-14-30.5-31S355.3 95 355 95c-.3 0 13.5 14 30.5 31m-11 11c17 17 31.2 31 31.5 31 .3 0-13.5-14-30.5-31s-31.2-31-31.5-31c-.3 0 13.5 14 30.5 31m-134.4-9.6c-3.1 1.7-5 5.3-5 9.6-.1 3.3 3.6 7.2 68.3 71.9l68.4 68.4 4.8-.6c6.9-.7 10.5-5.9 9-12.4-.8-3-131-134.3-135.8-136.9a9.6 9.6 0 0 0-9.7 0m208.3 11.1c0 5 .1 7.1.3 4.8a65 65 0 0 0 0-9c-.2-2.6-.3-.8-.3 4.2M346.5 166c16.5 16.5 30.2 30 30.5 30 .3 0-13-13.5-29.5-30s-30.2-30-30.5-30c-.3 0 13 13.5 29.5 30m59.5 46.8-23.5 23.7 23.8-23.5 23.7-23.7c0-.8-2.2 1.4-24 23.4m-221 23.8L174.5 247l6.5 6.3 6.5 6.2-6-6.3-6-6.2 10.5-10.5c5.8-5.8 10.2-10.5 10-10.5-.3 0-5.2 4.7-11 10.5m-55.5 1c-2.9 2.8-4 6.5-3 10.3.9 3.8 134 136.8 137.8 137.8 6.7 1.6 12.7-3 12.7-9.8v-4.3l-68.3-68.2-68.2-68.3h-4.3c-3.2 0-4.9.6-6.7 2.4M105 299.7l-23.5 23.8 23.8-23.5c22-21.8 24.2-24 23.4-24-.1 0-10.8 10.7-23.7 23.8m60 46.7c16.2 16.2 29.7 29.5 30 29.5.3 0-12.8-13.3-29-29.5a1278.2 1278.2 0 0 0-30-29.5c-.3 0 12.8 13.3 29 29.5m93.7-15.5c6.1 6.3 6.3 6.4 8 4.5 1.7-1.8 1.7-1.8 0-.5-1.6 1.2-2.5.7-8-4.6l-6.2-5.9 6.2 6.5M136 374.5c16.8 16.8 30.7 30.5 31 30.5.3 0-13.2-13.7-30-30.5a1363.6 1363.6 0 0 0-31-30.5c-.3 0 13.2 13.7 30 30.5M125.5 386c17 17 31.2 31 31.5 31 .3 0-13.5-14-30.5-31S95.3 355 95 355c-.3 0 13.5 14 30.5 31m66 44.3-3 3.2 3.3-3c3-2.7 3.7-3.5 2.9-3.5a25 25 0 0 0-3.3 3.3M59.6 434c-7.6 8.4-8.2 16.1-1.7 22.3 3 3 9 4.3 13.6 3.2 1.5-.4 5-3 8-5.7l5.3-5-10-10c-5.5-5.4-10.1-9.9-10.3-9.9-.2 0-2.4 2.3-4.9 5"/><path fill="#e1cda1" fill-rule="evenodd" d="M196 226.5 175.5 247l6 6 6 6 20.8-20.8c18.4-18.5 20.7-21.2 20.7-24 0-4.6-3.8-8.2-8.7-8.2-3.5 0-4.8 1.1-24.3 20.5M105 300.7c-13.5 13.7-26 27-27.8 29.6a77.3 77.3 0 0 0-5.6 76.4 76.7 76.7 0 0 0 59.5 42.5 79 79 0 0 0 49.3-10.8c4.2-2.6 14.3-11.8 31.7-29l25.5-25.3-54-54-54-54.1-24.6 24.7m168.9 3L253 324.5l6 6 6 6 20.5-20.5c19.4-19.5 20.5-20.8 20.5-24.3 0-5-3.6-8.7-8.1-8.7-3 0-5.6 2.3-24.1 20.7m-148.7 13c-1.1 1-2.4 3.3-2.7 5.1-.7 3.3-.2 3.9 31.9 36 32 32 32.6 32.5 35.9 31.8 4.3-.8 6.8-4 6.8-8.4 0-3.5-1.8-5.4-31.3-35-29.5-29.4-31.4-31.2-34.9-31.2-2 0-4.5.8-5.7 1.8m-29 28.5a8.6 8.6 0 0 0-2.1 5.8c0 3.2 2.3 5.8 31.8 35.2 28.7 28.6 32 31.7 35 31.7 4.4 0 8.2-3.8 8.2-8.2 0-3-3-6.3-31.7-35-30-30-32-31.8-35.4-31.8-2.4 0-4.2.7-5.7 2.3"/><path fill="#dfada1" fill-rule="evenodd" d="M358 63c-7.2 1.5-14 4-22.5 8.3-7.3 3.7-10.3 6.4-34.5 30.4l-26.5 26.2 54 54.1 54 54 26-26.2c24.8-25 26.4-26.8 30.7-35.3a60.3 60.3 0 0 0 8.3-36c0-14-.2-15.6-3-24a78.5 78.5 0 0 0-57.3-51A97.4 97.4 0 0 0 358 63m-12.2 33.8c-5.7 5.7-5.4 6 28.9 40.4 16.9 17 31.7 31 33 31.3 5.4 1.4 11.2-4.4 9.8-9.8-.3-1.3-14.4-16.1-31.3-33-34.4-34.3-34.7-34.6-40.4-28.9m-26.5 26.5c-3.4 1.5-4.4 3.2-4.4 7.9 0 2.7 3.6 6.7 31.3 34.4 29.3 29.4 31.4 31.3 34.8 31.3 4.5 0 8.2-3.7 8.2-8 0-2.8-3.7-6.9-31.4-34.5a562.3 562.3 0 0 0-33.4-31.9c-1.1-.3-3.4.1-5.1.8m-113 91.8-6.9 7.3 7.3-7c6.7-6.4 7.7-7.5 7-7.5-.2 0-3.5 3.3-7.3 7.3m.5 24.2a514.8 514.8 0 0 0-19 19.5c.3 0 9.3-8.8 20-19.5a514.8 514.8 0 0 0 19-19.5c-.3 0-9.3 8.8-20 19.5m65 65a514.8 514.8 0 0 0-19 19.5c.3 0 9.3-8.8 20-19.5a514.8 514.8 0 0 0 19-19.5c-.3 0-9.3 8.8-20 19.5m19.5 5.5c-6.6 6.6-11.7 12-11.5 12 .3 0 6-5.4 12.5-12 6.6-6.6 11.7-12 11.5-12-.3 0-6 5.4-12.5 12M63.3 373.5c0 2.8.2 3.8.4 2.2a18 18 0 0 0 0-5c-.2-1.2-.4 0-.4 2.8"/><path fill="#1b2e48" fill-rule="evenodd" d="m475.4 23.1-15.2 15.1-4.8-1.6c-6.1-2-14.7-2-21 0a39 39 0 0 0-13.4 10c-6.5 6.3-9 8-10 7.3a116 116 0 0 0-29.3-7.9 94.4 94.4 0 0 0-63.2 16.3 445.5 445.5 0 0 0-31 28.8l-25 24.7-3.4-2.4c-4.3-2.9-12.7-4.7-17.8-3.8-14.1 2.6-24.7 16-23 29.1 1.5 10.6.9 10 73 82 44.8 44.7 69.6 68.8 72.3 70.2a26.8 26.8 0 0 0 33.6-39.7l-2.4-3.3 23.9-24.2c25.5-25.8 30.9-32.4 37.3-45.8 6.5-13.7 8.3-22 8.4-38.9a77 77 0 0 0-6-34.7l-2.6-6.4 8-8.3c6.1-6.4 8.4-9.5 9.8-13.7 2.2-6.6 2.2-16 0-21.4l-1.7-4L486.4 36c18.1-18.3 18.7-19.3 14-25-2-2.3-3.4-3-6.2-3-3.3 0-4.8 1.3-18.8 15.1m-36.9 30c-1.1.6-4 3.1-6.6 5.6l-4.6 4.4 10 10 10.1 10.2 4.8-5.2c7.7-8.4 8.3-16.3 1.8-22.6-2.3-2.2-4-3-8.2-3.2a17 17 0 0 0-7.3.8m-75.7 9a75.7 75.7 0 0 0-36.3 14.4 461 461 0 0 0-29.2 27.7L274 127.5l54.5 54.5 54.5 54.5 22.6-22.5a534.1 534.1 0 0 0 27.1-28.5 94.3 94.3 0 0 0 13.8-28A77.5 77.5 0 0 0 362.8 62M346 97a8 8 0 0 0-2 5.3c0 2.9 3 6.3 31.3 34.5 28.1 28.1 31.5 31.2 34.5 31.2a7 7 0 0 0 7.2-7.3c0-2.9-3-6.3-31.3-34.5C357.6 98.1 354.2 95 351.2 95c-1.9 0-4 .8-5.2 2m-28.5 28.5c-5.3 5.2-5.2 5.3 29.4 39.9 31.4 31.4 32 31.9 35.3 31.2 4.1-.8 6.8-3.9 6.8-8 0-2.7-3.7-6.7-31.3-34.3-28.2-28.3-31.6-31.3-34.5-31.3a8 8 0 0 0-5.7 2.5m-77.4 1.9c-3.1 1.7-5 5.3-5 9.6-.1 3.3 3.6 7.2 68.3 71.9l68.4 68.4 4.8-.6c6.9-.7 10.5-5.9 9-12.4-.8-3-131-134.3-135.8-136.9a9.6 9.6 0 0 0-9.7 0M214 189.9c-5.9 1.9-9.5 5-29 24.5l-20.4 20.5-6.5-6c-8.4-8-13.6-10.4-22.1-10.3-7.6.2-12.5 2-17.9 7a27.6 27.6 0 0 0-6.1 30.6c1.2 2.6 2.8 5.2 3.6 5.9.8.6 1.4 1.5 1.4 2s-10.7 11.6-23.8 24.7C68 313.8 62.6 320.4 56 334a86.6 86.6 0 0 0-8.7 35.9 88.8 88.8 0 0 0 6.2 37.3l2.7 6.8-7.1 7.4c-9.2 9.4-11.6 14.6-11.5 24.5 0 4.5.7 9 1.6 11.1l1.6 3.6-14.5 14.4c-8 8-15.1 15.7-16 17.3-2.9 5.5 1 11.6 7.4 11.6 3.4 0 4.8-1.1 19.4-15.6L53 472.7l4 1.7a37.4 37.4 0 0 0 21.6 0c3.5-1.3 7.1-3.9 13-9.5 6.1-5.9 8.4-7.5 9.5-6.8a94.2 94.2 0 0 0 81-1.6c11.1-5.6 21.4-14.3 44.9-37.8l22.4-22.5 3.6 2.3c14.3 9.4 34.8 1.5 39.7-15.3 3-10.2.2-19-9.1-29l-5.8-6.3 5.4-5.7 20.4-21c8.3-8.4 15.9-17 17-19a28.6 28.6 0 0 0-.2-21.8 26.4 26.4 0 0 0-13.7-12 30.5 30.5 0 0 0-20.6 1.1c-2 1-12.7 11-24 22.1L241.5 312l-20.7-20.6-20.8-20.7 20.5-20.6c22.6-22.8 24.9-26 24.8-36a24.5 24.5 0 0 0-23.2-24.6c-3-.2-6.7 0-8.1.5m-18.4 36-21 21 5.9 6c3.3 3.4 6.4 6.1 7 6.1 1.7 0 40.3-39.3 41.4-42.2 2.2-5.8-2.7-11.8-9.6-11.8-2.2 0-6.6 3.9-23.7 21m-66.1 11.4c-2.9 2.9-4 6.6-3 10.3.9 3.9 134 137 137.8 137.9 6.7 1.6 12.7-3 12.7-9.8v-4.3l-68.3-68.2-68.2-68.3h-4.3c-3.2 0-4.9.6-6.7 2.4m-25.6 63.3c-27.3 27.6-31.5 33.2-37 49.3-3.1 9-3.3 10.3-3.3 23.5s.2 14.5 3.3 23.7a79.3 79.3 0 0 0 55.6 51.3 89.5 89.5 0 0 0 35 0 95 95 0 0 0 26.2-11.5c2.6-1.8 16-14.4 29.6-27.9l24.7-24.6-54.2-54.2a3778.2 3778.2 0 0 0-54.9-54.3c-.3 0-11.6 11.1-25 24.8m191-17.6c-2.6 1-41.9 39.6-41.9 41.3 0 .6 2.7 3.7 6 7l6 6 20.5-20.5c22.1-22.1 23.2-23.8 20-29.9-.8-1.7-1.7-3.1-1.8-3.1l-3.2-.9a10 10 0 0 0-5.5 0m-169.5 34.4a8 8 0 0 0-2.5 5.7c0 3 3 6.3 31.3 34.5 27.6 27.6 31.6 31.3 34.4 31.3 4.6 0 7.7-3 7.7-7.4 0-3.5-1.5-5.3-31.5-35.2-34.1-34-34.2-34.1-39.4-29m-27.1 26.8c-2.3 1-4.4 4.7-4.4 7.6 0 .9 14.3 16 31.7 33.4 28.7 28.8 32 31.8 35 31.8a7 7 0 0 0 7.3-7.3c0-3-3-6.3-31.8-35-20.9-20.8-32.4-31.7-33.7-31.6-1.1 0-3 .5-4.1 1m-38.8 90c-7.6 8.4-8.2 16.1-1.7 22.3 3 3 9 4.3 13.6 3.2 1.5-.4 5-3 8-5.7l5.3-5-10-10c-5.5-5.4-10.1-9.9-10.3-9.9-.2 0-2.4 2.3-4.9 5"/></svg>