<?xml version="1.0" encoding="UTF-8"?>
<svg xmlns="http://www.w3.org/2000/svg" xmlns:xlink="http://www.w3.org/1999/xlink" width="500px" height="500px" viewBox="0 0 500 500" version="1.1">
<g id="surface1">
<path style=" stroke:none;fill-rule:evenodd;fill:rgb(97.647059%,76.078431%,58.431373%);fill-opacity:1;" d="M 125.976562 183.265625 C 117.132812 190.503906 100.421875 198.714844 88.378906 201.738281 C 71.765625 205.90625 51.414062 205.867188 37.359375 201.636719 L 33.203125 200.386719 L 33.203125 214.5 C 33.203125 231.722656 34.738281 239.453125 40.546875 251.464844 C 49.695312 270.378906 66.421875 284.152344 86.914062 289.644531 C 96.597656 292.238281 113.644531 292 123.046875 289.140625 C 149.828125 281 168.820312 260.601562 174.238281 234.171875 C 175.132812 229.808594 175.78125 221.796875 175.78125 215.101562 L 175.78125 203.558594 L 169.132812 201.84375 C 160.121094 199.523438 147.609375 192.261719 139.242188 184.492188 L 132.324219 178.070312 L 125.976562 183.265625 M 99.464844 213.863281 L 96.539062 216.789062 L 96.851562 231.414062 C 97.140625 244.828125 97.339844 246.21875 99.253906 248.128906 C 103.070312 251.9375 115.335938 251.851562 119.195312 247.992188 C 123.007812 244.179688 120.726562 237.046875 115.324219 235.859375 L 112.484375 235.234375 L 112.148438 225.441406 C 111.832031 216.109375 111.6875 215.535156 109.078125 213.292969 C 105.453125 210.175781 103.003906 210.320312 99.464844 213.863281 "/>
<path style=" stroke:none;fill-rule:evenodd;fill:rgb(85.882353%,81.176471%,70.588235%);fill-opacity:1;" d="M 204.589844 39.070312 C 190.085938 41.464844 174.601562 45.128906 175.519531 45.945312 C 175.933594 46.3125 179.785156 47.144531 184.082031 47.792969 C 188.378906 48.441406 195.851562 50.039062 200.683594 51.339844 C 205.519531 52.644531 210.1875 53.710938 211.0625 53.710938 C 212.53125 53.710938 213.535156 51.882812 218.417969 40.28125 C 219.699219 37.238281 219.664062 37.113281 217.542969 37.199219 C 216.328125 37.25 210.5 38.089844 204.589844 39.070312 M 277.398438 41.257812 C 276.921875 42.46875 273.449219 50.707031 269.6875 59.566406 C 265.929688 68.425781 262.925781 75.722656 263.015625 75.78125 C 286.921875 90.605469 296.980469 98.09375 311.015625 111.492188 C 319.371094 119.46875 321.6875 121.195312 323.09375 120.496094 C 327.414062 118.339844 378.890625 78.699219 378.207031 78.050781 C 375.765625 75.734375 357.074219 65.1875 346.191406 59.992188 C 326.921875 50.789062 309.804688 45.023438 289.867188 41.027344 C 277.820312 38.613281 278.453125 38.601562 277.398438 41.257812 M 212.179688 280.273438 C 212.179688 282.691406 212.371094 283.679688 212.601562 282.46875 C 212.835938 281.261719 212.835938 279.285156 212.601562 278.078125 C 212.371094 276.867188 212.179688 277.855469 212.179688 280.273438 M 284.769531 288.765625 C 284.410156 291.34375 283.089844 295.550781 281.839844 298.109375 L 279.558594 302.761719 L 281.625 303.28125 C 305.476562 309.246094 398.957031 331.835938 399.117188 331.675781 C 399.300781 331.492188 292.160156 286.558594 286.996094 284.652344 C 285.734375 284.1875 285.292969 285 284.769531 288.765625 M 484.640625 290.039062 C 484.640625 292.457031 484.832031 293.445312 485.0625 292.234375 C 485.296875 291.027344 485.296875 289.050781 485.0625 287.84375 C 484.832031 286.632812 484.640625 287.621094 484.640625 290.039062 M 240.476562 309.265625 C 241.417969 309.511719 242.957031 309.511719 243.898438 309.265625 C 244.835938 309.019531 244.066406 308.820312 242.1875 308.820312 C 240.308594 308.820312 239.539062 309.019531 240.476562 309.265625 M 193.359375 427.703125 L 193.359375 462.824219 L 182.375 463.136719 L 171.386719 463.449219 L 182.859375 463.65625 L 194.335938 463.867188 L 194.335938 428.222656 C 194.335938 408.617188 194.117188 392.578125 193.847656 392.578125 C 193.578125 392.578125 193.359375 408.382812 193.359375 427.703125 M 80.566406 425.78125 C 84.296875 429.539062 87.570312 432.617188 87.839844 432.617188 C 88.105469 432.617188 85.273438 429.539062 81.542969 425.78125 C 77.8125 422.023438 74.539062 418.945312 74.273438 418.945312 C 74.003906 418.945312 76.835938 422.023438 80.566406 425.78125 M 122.53125 430.90625 L 115.722656 437.988281 L 122.804688 431.179688 C 129.378906 424.851562 130.328125 423.828125 129.613281 423.828125 C 129.464844 423.828125 126.277344 427.015625 122.53125 430.90625 "/>
<path style=" stroke:none;fill-rule:evenodd;fill:rgb(85.882353%,81.176471%,70.588235%);fill-opacity:1;" d="M 204.589844 39.070312 C 190.085938 41.464844 174.601562 45.128906 175.519531 45.945312 C 175.933594 46.3125 179.785156 47.144531 184.082031 47.792969 C 188.378906 48.441406 195.851562 50.039062 200.683594 51.339844 C 205.519531 52.644531 210.1875 53.710938 211.0625 53.710938 C 212.53125 53.710938 213.535156 51.882812 218.417969 40.28125 C 219.699219 37.238281 219.664062 37.113281 217.542969 37.199219 C 216.328125 37.25 210.5 38.089844 204.589844 39.070312 M 277.398438 41.257812 C 276.921875 42.46875 273.449219 50.707031 269.6875 59.566406 C 265.929688 68.425781 262.925781 75.722656 263.015625 75.78125 C 286.921875 90.605469 296.980469 98.09375 311.015625 111.492188 C 319.371094 119.46875 321.6875 121.195312 323.09375 120.496094 C 327.414062 118.339844 378.890625 78.699219 378.207031 78.050781 C 375.765625 75.734375 357.074219 65.1875 346.191406 59.992188 C 326.921875 50.789062 309.804688 45.023438 289.867188 41.027344 C 277.820312 38.613281 278.453125 38.601562 277.398438 41.257812 M 212.179688 280.273438 C 212.179688 282.691406 212.371094 283.679688 212.601562 282.46875 C 212.835938 281.261719 212.835938 279.285156 212.601562 278.078125 C 212.371094 276.867188 212.179688 277.855469 212.179688 280.273438 M 284.769531 288.765625 C 284.410156 291.34375 283.089844 295.550781 281.839844 298.109375 L 279.558594 302.761719 L 281.625 303.28125 C 305.476562 309.246094 398.957031 331.835938 399.117188 331.675781 C 399.300781 331.492188 292.160156 286.558594 286.996094 284.652344 C 285.734375 284.1875 285.292969 285 284.769531 288.765625 M 484.640625 290.039062 C 484.640625 292.457031 484.832031 293.445312 485.0625 292.234375 C 485.296875 291.027344 485.296875 289.050781 485.0625 287.84375 C 484.832031 286.632812 484.640625 287.621094 484.640625 290.039062 M 240.476562 309.265625 C 241.417969 309.511719 242.957031 309.511719 243.898438 309.265625 C 244.835938 309.019531 244.066406 308.820312 242.1875 308.820312 C 240.308594 308.820312 239.539062 309.019531 240.476562 309.265625 M 193.359375 427.703125 L 193.359375 462.824219 L 182.375 463.136719 L 171.386719 463.449219 L 182.859375 463.65625 L 194.335938 463.867188 L 194.335938 428.222656 C 194.335938 408.617188 194.117188 392.578125 193.847656 392.578125 C 193.578125 392.578125 193.359375 408.382812 193.359375 427.703125 M 80.566406 425.78125 C 84.296875 429.539062 87.570312 432.617188 87.839844 432.617188 C 88.105469 432.617188 85.273438 429.539062 81.542969 425.78125 C 77.8125 422.023438 74.539062 418.945312 74.273438 418.945312 C 74.003906 418.945312 76.835938 422.023438 80.566406 425.78125 M 122.53125 430.90625 L 115.722656 437.988281 L 122.804688 431.179688 C 129.378906 424.851562 130.328125 423.828125 129.613281 423.828125 C 129.464844 423.828125 126.277344 427.015625 122.53125 430.90625 "/>
<path style=" stroke:none;fill-rule:evenodd;fill:rgb(70.980392%,78.431373%,70.196078%);fill-opacity:1;" d="M 389.160156 139.71875 C 371.972656 152.632812 357.363281 163.734375 356.699219 164.390625 C 355.734375 165.335938 357.070312 168.746094 363.164062 180.917969 C 370.679688 195.929688 376.921875 212.035156 380.816406 226.457031 C 381.886719 230.429688 382.972656 233.882812 383.222656 234.136719 C 383.640625 234.554688 471.363281 224.164062 476.203125 223.125 L 478.28125 222.679688 L 475.984375 214.523438 C 468.371094 187.488281 456.242188 161.851562 440.597656 139.71875 C 433.914062 130.265625 422.253906 116.203125 421.113281 116.222656 C 420.726562 116.230469 406.347656 126.804688 389.160156 139.71875 M 437.011719 283.558594 C 390.648438 289.484375 390.109375 289.578125 387.496094 292.234375 C 386.042969 293.710938 384.210938 294.921875 383.429688 294.921875 C 382.359375 294.921875 381.921875 296.5 381.675781 301.222656 L 381.347656 307.523438 L 407.714844 318.476562 C 422.21875 324.503906 435.496094 330.46875 437.222656 331.734375 C 443.472656 336.308594 443.636719 345.195312 437.585938 350.992188 C 432.996094 355.386719 429.609375 355.207031 405.933594 349.296875 C 391.59375 345.71875 384.5 344.339844 384.257812 345.085938 C 382.007812 351.992188 379.808594 362.609375 380.488281 363.261719 C 381.113281 363.859375 444.59375 391.15625 454.777344 395.210938 C 456.632812 395.949219 465.015625 378.160156 471.203125 360.351562 C 478.75 338.613281 482.726562 318.882812 484.339844 295.183594 C 485.53125 277.683594 485.535156 277.316406 484.617188 277.457031 C 484.214844 277.515625 462.792969 280.261719 437.011719 283.558594 "/>
<path style=" stroke:none;fill-rule:evenodd;fill:rgb(70.980392%,78.431373%,70.196078%);fill-opacity:1;" d="M 389.160156 139.71875 C 371.972656 152.632812 357.363281 163.734375 356.699219 164.390625 C 355.734375 165.335938 357.070312 168.746094 363.164062 180.917969 C 370.679688 195.929688 376.921875 212.035156 380.816406 226.457031 C 381.886719 230.429688 382.972656 233.882812 383.222656 234.136719 C 383.640625 234.554688 471.363281 224.164062 476.203125 223.125 L 478.28125 222.679688 L 475.984375 214.523438 C 468.371094 187.488281 456.242188 161.851562 440.597656 139.71875 C 433.914062 130.265625 422.253906 116.203125 421.113281 116.222656 C 420.726562 116.230469 406.347656 126.804688 389.160156 139.71875 M 437.011719 283.558594 C 390.648438 289.484375 390.109375 289.578125 387.496094 292.234375 C 386.042969 293.710938 384.210938 294.921875 383.429688 294.921875 C 382.359375 294.921875 381.921875 296.5 381.675781 301.222656 L 381.347656 307.523438 L 407.714844 318.476562 C 422.21875 324.503906 435.496094 330.46875 437.222656 331.734375 C 443.472656 336.308594 443.636719 345.195312 437.585938 350.992188 C 432.996094 355.386719 429.609375 355.207031 405.933594 349.296875 C 391.59375 345.71875 384.5 344.339844 384.257812 345.085938 C 382.007812 351.992188 379.808594 362.609375 380.488281 363.261719 C 381.113281 363.859375 444.59375 391.15625 454.777344 395.210938 C 456.632812 395.949219 465.015625 378.160156 471.203125 360.351562 C 478.75 338.613281 482.726562 318.882812 484.339844 295.183594 C 485.53125 277.683594 485.535156 277.316406 484.617188 277.457031 C 484.214844 277.515625 462.792969 280.261719 437.011719 283.558594 "/>
<path style=" stroke:none;fill-rule:evenodd;fill:rgb(92.54902%,73.72549%,59.607843%);fill-opacity:1;" d="M 32.59375 210.9375 C 32.59375 217.113281 32.753906 219.640625 32.949219 216.554688 C 33.140625 213.464844 33.140625 208.410156 32.949219 205.320312 C 32.753906 202.234375 32.59375 204.761719 32.59375 210.9375 M 68.601562 204.773438 C 69.542969 205.019531 71.082031 205.019531 72.023438 204.773438 C 72.960938 204.53125 72.191406 204.328125 70.3125 204.328125 C 68.433594 204.328125 67.664062 204.53125 68.601562 204.773438 M 111.679688 226.5625 C 111.679688 231.664062 111.84375 233.753906 112.046875 231.203125 C 112.246094 228.648438 112.246094 224.476562 112.046875 221.921875 C 111.84375 219.371094 111.679688 221.460938 111.679688 226.5625 M 106.21875 250.707031 C 107.972656 250.925781 110.609375 250.921875 112.078125 250.699219 C 113.546875 250.472656 112.109375 250.296875 108.886719 250.304688 C 105.664062 250.308594 104.464844 250.492188 106.21875 250.707031 M 154.242188 271.242188 L 150.878906 274.902344 L 154.539062 271.539062 C 156.554688 269.6875 158.203125 268.039062 158.203125 267.875 C 158.203125 267.128906 157.375 267.832031 154.242188 271.242188 M 99.699219 343.507812 C 87.476562 384.917969 82.03125 403.78125 82.03125 404.695312 C 82.03125 405.300781 87.085938 410.835938 93.265625 416.996094 L 104.503906 428.199219 L 115.914062 416.792969 L 127.320312 405.382812 L 123.667969 392.875 C 106.882812 335.414062 107.398438 336.914062 104.398438 336.914062 C 101.84375 336.914062 101.507812 337.386719 99.699219 343.507812 M 352.554688 422.339844 C 346.492188 432.378906 333.707031 449.535156 326.34375 457.519531 L 320.941406 463.378906 L 361.382812 463.632812 L 401.824219 463.890625 L 412.886719 452.824219 L 423.953125 441.757812 L 391.390625 427.910156 C 373.480469 420.292969 358.539062 414.0625 358.1875 414.0625 C 357.839844 414.0625 355.304688 417.789062 352.554688 422.339844 "/>
<path style=" stroke:none;fill-rule:evenodd;fill:rgb(92.156863%,93.333333%,94.901961%);fill-opacity:1;" d="M 232.125 252.386719 C 220.054688 256.695312 212.953125 266.851562 212.914062 279.875 C 212.894531 285.667969 213.378906 287.773438 215.878906 292.773438 C 219.292969 299.609375 222.890625 303.007812 230.328125 306.429688 C 234.84375 308.503906 236.585938 308.773438 243.023438 308.386719 C 254.4375 307.703125 262.222656 302.535156 267.703125 291.992188 C 271.042969 285.5625 270.992188 273.871094 267.589844 267.214844 C 264.488281 261.144531 257.140625 254.527344 251.285156 252.53125 C 245.765625 250.648438 237.175781 250.585938 232.125 252.386719 M 66.648438 337.996094 C 55.28125 339.890625 43.984375 345.375 35.054688 353.339844 C 28.84375 358.878906 21.230469 370.375 18.664062 378.101562 C 15.382812 387.953125 14.710938 396.886719 14.679688 430.90625 L 14.648438 462.890625 L 193.449219 462.890625 L 193.304688 422.828125 C 193.15625 381.101562 193.195312 380.6875 197.292969 379.386719 C 198.941406 378.863281 198.984375 378.496094 197.804688 375.195312 C 194.734375 366.617188 194.351562 366.1875 190.4375 366.8125 C 186.9375 367.371094 186.582031 367.125 176.671875 357.257812 C 165.8125 346.441406 159.136719 342.308594 147.695312 339.328125 C 142.410156 337.953125 123.046875 336.144531 123.046875 337.03125 C 123.046875 337.253906 127.46875 352.371094 132.871094 370.625 C 138.273438 388.875 142.75 405.195312 142.824219 406.890625 C 142.9375 409.464844 141.664062 411.382812 135.046875 418.609375 C 130.695312 423.359375 122.761719 431.53125 117.417969 436.765625 C 103.570312 450.328125 105.300781 450.734375 83.714844 428.851562 C 74.253906 419.257812 66.257812 410.359375 65.945312 409.074219 C 65.503906 407.246094 77.8125 362.921875 85.4375 338.898438 C 86.035156 337.019531 85.6875 336.921875 78.921875 337.027344 C 74.992188 337.089844 69.46875 337.527344 66.648438 337.996094 "/>
<path style=" stroke:none;fill-rule:evenodd;fill:rgb(93.333333%,79.607843%,56.470588%);fill-opacity:1;" d="M 174.804688 354.980469 C 176.625 356.859375 178.335938 358.398438 178.605469 358.398438 C 178.875 358.398438 177.601562 356.859375 175.78125 354.980469 C 173.960938 353.101562 172.25 351.5625 171.980469 351.5625 C 171.710938 351.5625 172.984375 353.101562 174.804688 354.980469 M 54.027344 463.625 C 75.953125 463.769531 111.550781 463.769531 133.128906 463.625 C 154.707031 463.476562 136.765625 463.355469 93.261719 463.355469 C 49.753906 463.355469 32.101562 463.476562 54.027344 463.625 "/>
<path style=" stroke:none;fill-rule:evenodd;fill:rgb(9.411765%,11.372549%,9.411765%);fill-opacity:1;" d="M 218.261719 22.132812 C 195.167969 24.039062 168.894531 30.453125 144.042969 40.25 C 132.726562 44.710938 129.871094 46.925781 129.914062 51.195312 C 129.980469 57.6875 134.222656 59.453125 149.9375 59.527344 C 166.296875 59.605469 185.863281 62.714844 206.808594 68.566406 L 217.816406 71.640625 L 220.480469 69.648438 C 222.367188 68.238281 225.042969 63.242188 229.667969 52.472656 C 238.625 31.621094 239.546875 28.734375 238.128906 26.070312 C 235.746094 21.597656 232.523438 20.957031 218.261719 22.132812 M 269.21875 24.65625 C 267.152344 26.171875 246.09375 75.453125 246.09375 78.769531 C 246.09375 82.96875 247.726562 84.558594 258.453125 90.816406 C 276.910156 101.585938 287.128906 109.503906 305.175781 127.023438 C 311.621094 133.285156 317.886719 138.714844 319.097656 139.09375 C 320.394531 139.5 322.433594 139.21875 324.042969 138.417969 C 325.550781 137.664062 342.851562 124.910156 362.492188 110.070312 C 400.171875 81.601562 400.855469 80.933594 398.21875 75.390625 C 395.828125 70.367188 366.210938 52.019531 346.535156 43.371094 C 327.925781 35.195312 305.59375 28.398438 285.644531 24.835938 C 276.023438 23.117188 271.386719 23.066406 269.21875 24.65625 M 204.589844 39.070312 C 190.085938 41.464844 174.601562 45.128906 175.519531 45.945312 C 175.933594 46.3125 179.785156 47.144531 184.082031 47.792969 C 188.378906 48.441406 195.851562 50.039062 200.683594 51.339844 C 205.519531 52.644531 210.1875 53.710938 211.0625 53.710938 C 212.53125 53.710938 213.535156 51.882812 218.417969 40.28125 C 219.699219 37.238281 219.664062 37.113281 217.542969 37.199219 C 216.328125 37.25 210.5 38.089844 204.589844 39.070312 M 277.398438 41.257812 C 276.921875 42.46875 273.449219 50.707031 269.6875 59.566406 C 265.929688 68.425781 262.925781 75.722656 263.015625 75.78125 C 286.921875 90.605469 296.980469 98.09375 311.015625 111.492188 C 319.371094 119.46875 321.6875 121.195312 323.09375 120.496094 C 327.414062 118.339844 378.890625 78.699219 378.207031 78.050781 C 375.765625 75.734375 357.074219 65.1875 346.191406 59.992188 C 326.921875 50.789062 309.804688 45.023438 289.867188 41.027344 C 277.820312 38.613281 278.453125 38.601562 277.398438 41.257812 M 94.726562 96.6875 C 77.074219 98.476562 59.640625 105.914062 48.105469 116.578125 C 44.628906 119.792969 43.019531 125.148438 44.863281 127.371094 C 45.765625 128.460938 45.140625 129.914062 41.8125 134.460938 C 37.992188 139.679688 37.304688 140.179688 33.949219 140.179688 C 26.808594 140.179688 23.234375 146.847656 19.511719 167.117188 C 15.40625 189.476562 15.875 220.542969 20.617188 240.085938 C 33.167969 291.828125 88.667969 320.550781 136.898438 300.265625 C 160.460938 290.355469 178.703125 270.734375 186.347656 247.070312 C 190.488281 234.265625 191.773438 223.445312 191.804688 201.171875 C 191.851562 168.554688 187.539062 150.53125 175.453125 132.8125 C 158.511719 107.972656 126.164062 93.496094 94.726562 96.6875 M 418.457031 98.832031 C 414.882812 100.875 341.335938 156.460938 339.601562 158.433594 C 336.691406 161.734375 337.535156 165.75 343.261719 175.863281 C 354.039062 194.898438 361.230469 212.628906 366.722656 233.707031 C 370.128906 246.773438 371.058594 248.6875 374.65625 250.054688 C 376.757812 250.855469 483.050781 238.402344 489.726562 236.574219 C 494.460938 235.277344 495.78125 231.792969 494.28125 224.53125 C 485.460938 181.832031 461.410156 135.910156 431.019531 103.757812 C 425.039062 97.429688 422.585938 96.46875 418.457031 98.832031 M 388.160156 140.167969 C 369.910156 153.964844 355.085938 165.632812 355.214844 166.089844 C 355.34375 166.546875 357.332031 170.34375 359.632812 174.527344 C 367.957031 189.640625 376.167969 210.425781 381.367188 229.550781 L 382.84375 234.980469 L 400.160156 232.871094 C 409.6875 231.707031 431.226562 229.066406 448.03125 227 L 478.585938 223.242188 L 477.957031 220.261719 C 477.613281 218.625 475.171875 210.695312 472.53125 202.636719 C 462.953125 173.398438 445.386719 142.578125 425.039062 119.308594 L 421.34375 115.078125 L 388.160156 140.167969 M 125.0625 183.59375 C 101.976562 201.890625 67.273438 209.164062 38.769531 201.683594 C 35.65625 200.863281 32.910156 200.195312 32.667969 200.195312 C 31.882812 200.195312 32.234375 218.007812 33.199219 227.164062 C 35.378906 247.84375 45.910156 266.378906 62.015625 277.871094 C 102.992188 307.109375 158.085938 288.46875 173.363281 240.199219 C 174.550781 236.445312 175.195312 230.210938 175.527344 219.183594 L 176 203.507812 L 169.960938 201.828125 C 158.390625 198.609375 143.003906 189.273438 135.855469 181.132812 C 134.214844 179.265625 132.75 177.757812 132.597656 177.785156 C 132.445312 177.8125 129.054688 180.425781 125.0625 183.59375 M 99.027344 213.96875 C 97.46875 215.695312 97.113281 217.898438 96.820312 227.667969 C 96.210938 248.007812 97.324219 250 109.304688 250 C 116.503906 250 117.1875 249.820312 119.070312 247.425781 C 122.632812 242.898438 120.859375 237.898438 115.074219 236.164062 L 111.328125 235.042969 L 111.328125 225.648438 C 111.328125 214.234375 110.1875 211.914062 104.585938 211.914062 C 102.066406 211.914062 100.296875 212.570312 99.027344 213.96875 M 230.851562 236.789062 C 212.402344 241.304688 199.015625 257.320312 197.554688 276.632812 C 196.554688 289.832031 200.808594 301.515625 209.949219 310.679688 C 224.417969 325.179688 245.71875 328.285156 263.191406 318.4375 L 268.078125 315.679688 L 318.367188 327.921875 C 346.023438 334.652344 368.820312 340.292969 369.023438 340.453125 C 369.492188 340.824219 367.875 347.644531 364.660156 358.886719 C 361.800781 368.882812 362.246094 371.964844 366.902344 374.351562 C 374.402344 378.191406 458.015625 413.085938 459.722656 413.085938 C 463.179688 413.085938 465.5625 409.980469 472.089844 396.972656 C 490.828125 359.609375 499.996094 321.726562 500 281.625 C 500 268.171875 499.820312 266.636719 497.976562 264.292969 C 496.359375 262.238281 495.128906 261.722656 491.871094 261.738281 C 489.628906 261.75 463.21875 264.804688 433.179688 268.527344 C 370.925781 276.242188 374.511719 275.257812 374.511719 284.617188 C 374.511719 288.84375 374.976562 290.378906 376.878906 292.402344 C 378.179688 293.789062 380.027344 294.921875 380.984375 294.921875 C 382.984375 294.921875 387.6875 292.933594 387.710938 292.078125 C 387.773438 289.558594 392.457031 288.714844 436.890625 283.226562 C 463.097656 279.992188 484.789062 277.34375 485.097656 277.34375 C 486.035156 277.34375 484.488281 302.976562 482.902344 313.65625 C 478.945312 340.328125 472.972656 360.148438 461.8125 383.664062 C 457.171875 393.4375 455.75 395.648438 454.355469 395.242188 C 453.410156 394.96875 437.476562 388.289062 418.945312 380.398438 C 400.414062 372.511719 383.863281 365.46875 382.164062 364.753906 L 379.070312 363.449219 L 381.511719 353.84375 C 382.851562 348.5625 384.0625 344.125 384.207031 343.984375 C 384.347656 343.84375 394.464844 346.15625 406.6875 349.121094 C 425.984375 353.800781 429.410156 354.378906 432.648438 353.507812 C 438.1875 352.015625 441.40625 347.679688 441.40625 341.707031 C 441.40625 333.519531 438.976562 331.796875 411.21875 320.289062 C 398.105469 314.855469 385.394531 309.476562 382.976562 308.335938 C 380.554688 307.199219 357.453125 297.441406 331.644531 286.648438 L 284.710938 267.027344 L 281.273438 260.460938 C 271.304688 241.429688 250.945312 231.867188 230.851562 236.789062 M 234.054688 251.363281 C 220.488281 255.117188 210.703125 269.320312 212.304688 282.9375 C 214.066406 297.949219 226.515625 308.96875 241.699219 308.96875 C 253.433594 308.96875 262.167969 303.488281 267.53125 292.75 C 270.027344 287.757812 270.507812 285.65625 270.507812 279.714844 C 270.507812 273.625 270.0625 271.765625 267.320312 266.472656 C 261 254.265625 246.828125 247.828125 234.054688 251.363281 M 284.769531 288.765625 C 284.410156 291.34375 283.089844 295.550781 281.839844 298.109375 L 279.558594 302.761719 L 281.625 303.28125 C 305.476562 309.246094 398.957031 331.835938 399.117188 331.675781 C 399.300781 331.492188 292.160156 286.558594 286.996094 284.652344 C 285.734375 284.1875 285.292969 285 284.769531 288.765625 M 68.625 322.296875 C 40.132812 325.292969 15.25 344.320312 5.003906 370.953125 C 0.304688 383.160156 0 386.898438 0 432.136719 L 0 474.269531 L 2.257812 476.390625 L 4.519531 478.515625 L 204.738281 478.515625 L 206.863281 476.257812 C 208.972656 474.007812 208.984375 473.789062 208.960938 432.066406 C 208.949219 409.003906 208.53125 388.378906 208.03125 386.230469 C 206.484375 379.539062 200.898438 376.929688 196.222656 380.71875 L 193.988281 382.527344 L 194.238281 423.199219 L 194.488281 463.867188 L 14.527344 463.867188 L 14.875 425.046875 C 15.210938 387.566406 15.296875 386.011719 17.457031 379.882812 C 24.84375 358.890625 41.765625 343.328125 62.515625 338.4375 C 68.925781 336.925781 85.9375 336.328125 85.9375 337.613281 C 85.9375 337.996094 81.542969 353.304688 76.171875 371.628906 C 70.800781 389.953125 66.40625 406.140625 66.40625 407.601562 C 66.40625 409.703125 69.757812 413.730469 82.597656 427.050781 C 100.460938 445.582031 102.964844 447.4375 107.179688 445.246094 C 108.65625 444.476562 117.226562 436.324219 126.222656 427.132812 C 138.90625 414.164062 142.578125 409.84375 142.578125 407.875 C 142.578125 406.476562 138.183594 390.363281 132.8125 372.070312 C 127.441406 353.777344 123.046875 338.320312 123.046875 337.726562 C 123.046875 336.964844 126.328125 336.796875 134.03125 337.15625 C 152.914062 338.039062 165.921875 344.21875 179.011719 358.53125 C 185.058594 365.144531 186.484375 366.210938 189.253906 366.210938 C 192.84375 366.210938 197.269531 362.59375 197.261719 359.664062 C 197.257812 356.613281 193.371094 351.308594 185.609375 343.75 C 172.792969 331.269531 157.058594 324.03125 138.910156 322.265625 C 127.839844 321.1875 78.960938 321.210938 68.625 322.296875 M 99.699219 343.507812 C 87.476562 384.917969 82.03125 403.78125 82.03125 404.695312 C 82.03125 405.300781 87.085938 410.835938 93.265625 416.996094 L 104.503906 428.199219 L 115.914062 416.792969 L 127.320312 405.382812 L 123.667969 392.875 C 106.882812 335.414062 107.398438 336.914062 104.398438 336.914062 C 101.84375 336.914062 101.507812 337.386719 99.699219 343.507812 M 350.40625 398.367188 C 348.984375 399.488281 345.746094 404.027344 343.207031 408.453125 C 333.0625 426.175781 321.710938 440.875 304.503906 458.597656 C 293.945312 469.472656 292.992188 471.792969 297.320312 476.117188 L 299.714844 478.515625 L 407.175781 478.515625 L 413.792969 472.816406 C 421.816406 465.902344 439.074219 447.894531 441.558594 443.847656 C 443.921875 439.988281 443.835938 436.070312 441.339844 433.742188 C 439.285156 431.828125 359.945312 397.722656 355.453125 396.824219 C 353.859375 396.503906 352.089844 397.046875 350.40625 398.367188 M 352.554688 422.339844 C 346.492188 432.378906 333.707031 449.535156 326.34375 457.519531 L 320.941406 463.378906 L 361.382812 463.632812 L 401.824219 463.890625 L 412.886719 452.824219 L 423.953125 441.757812 L 391.390625 427.910156 C 373.480469 420.292969 358.539062 414.0625 358.1875 414.0625 C 357.839844 414.0625 355.304688 417.789062 352.554688 422.339844 "/>
</g>
</svg>
