<?xml version="1.0" encoding="UTF-8"?>
<svg xmlns="http://www.w3.org/2000/svg" xmlns:xlink="http://www.w3.org/1999/xlink" width="500px" height="500px" viewBox="0 0 500 500" version="1.1">
<g id="surface1">
<path style=" stroke:none;fill-rule:evenodd;fill:rgb(95.686275%,94.117647%,89.803922%);fill-opacity:1;" d="M 133.789062 15.625 C 126.074219 17.089844 119.140625 23.144531 117.1875 29.980469 C 116.601562 32.324219 116.210938 48.828125 116.210938 73.730469 C 116.210938 117.1875 116.210938 117.1875 110.839844 118.652344 L 108.398438 119.140625 L 108.398438 137.890625 L 111.132812 137.304688 C 125.292969 134.375 133.105469 133.59375 148.925781 134.082031 C 166.992188 134.667969 174.609375 136.035156 190.136719 141.113281 C 212.152344 148.355469 231.972656 161.054688 247.753906 178.027344 C 266.445312 197.511719 279.15625 221.949219 284.375 248.4375 C 287.304688 261.914062 287.402344 287.109375 284.765625 301.269531 C 281.195312 319.796875 274.242188 337.507812 264.257812 353.515625 L 260.839844 358.886719 L 267.382812 365.527344 L 273.828125 372.070312 L 279.589844 372.070312 C 282.714844 372.070312 286.425781 372.65625 287.890625 373.4375 C 314.214844 398.34375 339.808594 424.003906 364.648438 450.390625 C 369.433594 458.203125 370.019531 471.386719 366.113281 480.371094 C 365.417969 481.867188 364.796875 483.402344 364.257812 484.960938 C 364.257812 485.15625 376.5625 485.351562 391.601562 485.351562 L 418.945312 485.351562 L 421.386719 482.617188 C 422.753906 481.152344 424.804688 478.027344 426.074219 475.585938 L 428.222656 471.191406 L 428.515625 382.617188 L 428.808594 293.945312 L 370.996094 293.75 L 313.378906 293.457031 L 310.9375 290.722656 C 308.007812 287.402344 308.007812 284.277344 310.644531 280.957031 L 312.597656 278.320312 L 428.710938 278.320312 L 428.710938 249.023438 L 312.597656 249.023438 L 310.644531 246.484375 C 307.910156 243.066406 308.105469 239.941406 310.9375 236.71875 L 313.28125 233.886719 L 370.996094 233.59375 L 428.710938 233.398438 L 428.710938 205.078125 L 313.476562 205.078125 L 311.035156 202.636719 C 307.128906 198.730469 308.105469 193.261719 313.183594 190.625 C 314.746094 189.746094 330.761719 189.453125 371.972656 189.453125 L 428.710938 189.453125 L 428.710938 107.421875 L 420.117188 107.421875 C 415.429688 107.421875 409.960938 106.933594 408.007812 106.445312 C 401.628906 104.207031 396.304688 99.683594 393.066406 93.75 L 390.136719 88.378906 L 389.84375 52.148438 L 389.550781 15.820312 L 387.402344 15.234375 C 384.375 14.453125 137.890625 14.746094 133.789062 15.527344 M 155.273438 49.121094 C 152.34375 50.683594 150.292969 52.734375 148.632812 55.761719 L 146.386719 60.058594 L 146.679688 78.613281 L 146.972656 97.363281 L 149.609375 100.78125 C 151.074219 102.734375 153.710938 104.980469 155.566406 105.859375 L 158.984375 107.421875 L 311.71875 107.421875 L 315.136719 105.859375 C 316.992188 104.882812 319.628906 102.636719 321.09375 100.78125 L 323.730469 97.363281 L 324.316406 60.058594 L 322.070312 55.761719 C 320.410156 52.734375 318.359375 50.683594 315.429688 49.121094 L 311.230469 46.875 L 159.472656 46.875 L 155.273438 49.121094 M 125 180.175781 C 111.132812 183.300781 98.144531 188.964844 87.402344 196.679688 C 80.566406 201.5625 68.261719 214.160156 63.476562 221.09375 C 58.203125 228.808594 51.757812 243.261719 49.707031 252.539062 C 46.972656 264.257812 46.386719 265.527344 42.382812 267.1875 L 39.0625 268.554688 L 39.0625 275.195312 C 39.0625 283.691406 39.746094 286.035156 42.480469 286.71875 C 46.09375 287.695312 47.363281 289.941406 49.707031 299.316406 C 52.34375 309.765625 58.789062 323.925781 65.039062 332.714844 L 69.53125 339.0625 L 73.730469 334.277344 C 80.566406 326.464844 90.332031 322.460938 109.667969 319.335938 L 117.1875 318.066406 L 117.1875 308.984375 L 112.792969 304.394531 C 107.832031 298.96875 104.160156 292.492188 102.050781 285.449219 C 101.757812 283.691406 99.707031 280.566406 97.65625 278.613281 C 92.871094 273.730469 92.382812 269.824219 92.96875 245.703125 C 93.457031 230.664062 93.847656 227.148438 95.605469 222.460938 C 98.4375 215.136719 105.371094 207.910156 112.792969 204.394531 L 118.652344 201.660156 L 141.503906 201.367188 C 160.9375 201.074219 164.941406 201.269531 168.554688 202.636719 C 173.046875 204.394531 178.320312 209.472656 179.296875 213.183594 C 179.589844 214.648438 181.054688 215.917969 183.203125 216.699219 C 187.890625 218.359375 192.675781 223.535156 194.140625 228.222656 C 195.605469 233.105469 195.800781 270.214844 194.335938 273.925781 C 193.847656 275.292969 191.894531 277.832031 190.136719 279.589844 C 188.085938 281.542969 186.230469 284.667969 185.253906 288.183594 C 183.066406 295.085938 179.089844 301.285156 173.730469 306.152344 L 169.824219 309.667969 L 170.117188 313.671875 L 170.410156 317.773438 L 178.222656 319.042969 C 198.730469 322.460938 206.542969 325.78125 213.964844 333.691406 L 218.945312 339.257812 L 221.777344 335.9375 C 228.613281 327.636719 235.742188 312.695312 239.453125 299.023438 C 242.382812 288.28125 242.382812 263.671875 239.453125 252.734375 C 229.980469 217.96875 205.175781 192.1875 171.09375 182.03125 L 162.597656 179.394531 L 146.972656 179.101562 C 135.839844 178.808594 129.589844 179.101562 125.097656 180.078125 M 311.035156 324.609375 C 308.105469 327.539062 307.8125 331.933594 310.449219 335.058594 L 312.402344 337.402344 L 346.679688 337.695312 L 381.054688 337.988281 L 383.496094 336.425781 C 388.28125 333.300781 388.378906 325.683594 383.691406 323.242188 C 382.714844 322.65625 367.773438 322.265625 347.65625 322.265625 L 313.476562 322.265625 L 311.035156 324.707031 M 221.191406 395.996094 C 209.863281 403.90625 189.550781 412.207031 173.339844 415.527344 C 151.984375 419.480469 130.042969 418.984375 108.886719 414.0625 C 108.59375 414.0625 108.398438 418.261719 108.398438 423.339844 C 108.398438 431.054688 108.691406 432.617188 109.863281 432.617188 C 110.742188 432.617188 112.5 433.691406 113.769531 435.058594 L 116.210938 437.402344 L 116.210938 451.855469 C 116.210938 459.765625 116.699219 467.96875 117.1875 470.019531 C 119.191406 475.488281 123.160156 480.011719 128.320312 482.714844 L 132.324219 484.863281 L 306.152344 485.449219 L 274.316406 453.417969 C 240.136719 419.042969 239.550781 418.261719 240.527344 409.667969 L 240.917969 405.46875 L 234.472656 399.023438 C 230.859375 395.507812 227.636719 392.578125 227.050781 392.675781 C 226.464844 392.675781 223.828125 394.238281 221.191406 396.09375 "/>
<path style=" stroke:none;fill-rule:evenodd;fill:rgb(85.098039%,80.784314%,72.156863%);fill-opacity:1;" d="M 388.378906 15.332031 C 389.355469 16.015625 389.648438 24.511719 389.941406 49.902344 L 390.136719 83.496094 L 390.136719 15.332031 L 388.671875 14.941406 C 387.597656 14.648438 387.5 14.746094 388.378906 15.332031 M 131.542969 149.511719 C 87.890625 154.144531 49.664062 180.832031 30.273438 220.214844 C 22.070312 237.207031 18.554688 251.5625 17.871094 271.582031 C 16.503906 307.324219 28.613281 338.769531 53.222656 364.160156 C 68.652344 380.078125 85.253906 390.527344 105.46875 396.875 C 120.3125 401.5625 128.417969 402.734375 145.019531 402.734375 C 178.613281 402.734375 207.519531 391.210938 231.738281 368.261719 C 251.261719 349.800781 264.511719 325.691406 269.628906 299.316406 C 271.679688 288.964844 271.484375 261.425781 269.238281 250.976562 C 267.054688 240.660156 263.679688 230.632812 259.179688 221.09375 C 246.671875 195.933594 226.542969 175.359375 201.660156 162.304688 C 179.867188 151.910156 155.703125 147.496094 131.640625 149.511719 M 125.195312 164.648438 C 87.765625 171.28125 56.113281 196.15625 40.820312 230.957031 C 37.304688 238.867188 33.203125 253.417969 33.007812 258.691406 L 32.8125 262.988281 L 35.9375 265.625 L 39.0625 268.164062 L 39.0625 286.132812 L 40.820312 286.523438 C 41.796875 286.816406 41.40625 287.011719 39.84375 287.109375 C 36.1875 287.3125 33.300781 290.285156 33.203125 293.945312 C 33.203125 298.828125 36.914062 311.914062 40.917969 321.191406 C 55.566406 355.175781 87.988281 380.761719 124.902344 387.109375 C 135.351562 389.0625 153.710938 389.0625 164.257812 387.109375 C 173.632812 385.449219 187.011719 381.054688 195.800781 376.5625 C 226.855469 360.9375 249.902344 329.6875 255.957031 294.824219 C 257.617188 285.449219 257.617188 266.113281 255.957031 256.738281 C 245.230469 195.175781 186.679688 153.925781 125.097656 164.550781 M 138.964844 178.222656 C 139.941406 178.515625 141.40625 178.515625 142.285156 178.222656 C 143.261719 178.027344 142.480469 177.832031 140.625 177.832031 C 138.671875 177.832031 137.988281 178.027344 138.867188 178.320312 M 146.679688 178.320312 C 147.65625 178.515625 149.21875 178.515625 150.195312 178.320312 C 151.171875 178.027344 150.292969 177.832031 148.4375 177.832031 C 146.484375 177.832031 145.800781 178.027344 146.679688 178.320312 M 346.972656 190.039062 C 365.136719 190.234375 394.628906 190.234375 412.402344 190.039062 C 430.273438 189.941406 415.332031 189.84375 379.394531 189.84375 C 343.359375 189.84375 328.808594 189.941406 346.972656 190.136719 M 194.628906 236.71875 C 194.628906 239.941406 194.824219 241.113281 195.019531 239.355469 C 195.214844 237.597656 195.214844 234.960938 195.019531 233.496094 C 194.824219 232.03125 194.628906 233.496094 194.628906 236.71875 M 347.949219 293.652344 L 411.816406 293.652344 C 429.394531 293.457031 415.039062 293.359375 379.882812 293.359375 C 344.726562 293.359375 330.273438 293.457031 347.851562 293.652344 M 174.21875 304.785156 L 171.386719 308.007812 L 174.609375 305.078125 C 175.742188 304.132812 176.789062 303.085938 177.734375 301.953125 C 177.734375 301.171875 176.953125 301.953125 174.21875 304.882812 M 117.480469 313.867188 C 117.480469 316.601562 117.675781 317.578125 117.871094 316.015625 C 118.097656 314.394531 118.097656 312.753906 117.871094 311.132812 C 117.675781 309.960938 117.480469 311.132812 117.480469 313.867188 M 267.089844 366.210938 C 270.800781 370.019531 274.121094 373.046875 274.316406 373.046875 C 274.609375 373.046875 271.777344 370.019531 268.066406 366.210938 C 264.355469 362.402344 261.035156 359.375 260.839844 359.375 C 260.546875 359.375 263.378906 362.402344 267.089844 366.210938 M 368.457031 467.285156 C 368.457031 469.433594 368.652344 470.214844 368.847656 468.945312 C 369.042969 467.773438 369.042969 466.015625 368.847656 465.039062 C 368.554688 464.0625 368.359375 465.136719 368.457031 467.285156 "/>
<path style=" stroke:none;fill-rule:evenodd;fill:rgb(21.176471%,36.862745%,49.019608%);fill-opacity:1;" d="M 115.722656 72.265625 C 115.722656 94.042969 115.722656 102.929688 115.917969 92.089844 C 116.113281 81.152344 116.113281 63.378906 115.917969 52.539062 C 115.820312 41.601562 115.722656 50.585938 115.722656 72.265625 M 146.972656 77.148438 C 146.972656 85.9375 146.972656 89.648438 147.167969 85.253906 C 147.363281 80.761719 147.363281 73.535156 147.167969 69.140625 C 147.070312 64.648438 146.875 68.261719 146.875 77.148438 M 161.816406 62.207031 C 161.523438 62.695312 194.433594 62.890625 234.960938 62.695312 L 308.496094 62.5 L 308.886719 77.148438 L 309.179688 91.796875 L 309.179688 76.953125 L 309.082031 62.011719 L 235.644531 61.71875 C 195.3125 61.621094 162.011719 61.816406 161.816406 62.207031 M 323.632812 77.148438 C 323.632812 85.449219 323.828125 88.867188 323.925781 84.765625 C 324.121094 80.566406 324.121094 73.730469 323.925781 69.628906 C 323.828125 65.429688 323.632812 68.847656 323.632812 77.148438 M 197.558594 107.226562 L 273.144531 107.226562 C 294.042969 107.03125 277.050781 106.933594 235.351562 106.933594 C 193.75 106.933594 176.757812 107.03125 197.460938 107.226562 M 430.46875 107.226562 L 465.625 107.226562 C 475.097656 107.03125 467.089844 106.933594 447.753906 106.933594 C 428.417969 106.933594 420.605469 106.933594 430.46875 107.128906 M 482.910156 287.597656 C 482.910156 386.425781 483.007812 426.953125 483.203125 377.734375 L 483.203125 198.046875 C 483.007812 148.4375 482.910156 188.769531 482.910156 287.597656 M 136.523438 134.472656 C 137.695312 134.667969 139.453125 134.667969 140.429688 134.472656 C 141.40625 134.179688 140.332031 133.984375 138.183594 134.082031 C 136.035156 134.082031 135.253906 134.277344 136.523438 134.472656 M 149.21875 134.472656 C 150.390625 134.667969 152.148438 134.667969 153.125 134.472656 C 154.101562 134.179688 153.027344 133.984375 150.878906 134.082031 C 148.730469 134.082031 147.949219 134.277344 149.21875 134.472656 M 133.007812 149.121094 C 133.984375 149.316406 135.546875 149.316406 136.523438 149.121094 C 137.5 148.828125 136.621094 148.632812 134.765625 148.632812 C 132.8125 148.632812 132.128906 148.828125 133.007812 149.121094 M 133.984375 163.769531 C 134.960938 163.964844 136.523438 163.964844 137.5 163.769531 C 138.476562 163.476562 137.597656 163.28125 135.742188 163.28125 C 133.789062 163.28125 133.105469 163.476562 133.984375 163.769531 M 151.5625 163.769531 C 152.539062 163.964844 154.101562 163.964844 155.078125 163.769531 C 156.054688 163.476562 155.175781 163.28125 153.320312 163.28125 C 151.367188 163.28125 150.683594 163.476562 151.5625 163.769531 M 242.1875 173.144531 C 243.160156 174.316406 244.238281 175.394531 245.410156 176.367188 L 248.535156 179.199219 L 245.605469 175.976562 C 242.96875 173.046875 242.1875 172.363281 242.1875 173.144531 M 53.710938 186.230469 L 48.339844 191.894531 L 54.003906 186.523438 C 59.179688 181.640625 60.058594 180.664062 59.277344 180.664062 C 59.179688 180.664062 56.640625 183.203125 53.710938 186.328125 M 233.886719 185.546875 C 235.9375 187.695312 237.890625 189.453125 238.183594 189.453125 C 238.476562 189.453125 236.914062 187.695312 234.863281 185.546875 C 232.8125 183.398438 230.859375 181.640625 230.566406 181.640625 C 230.273438 181.640625 231.835938 183.398438 233.886719 185.546875 M 135.449219 201.855469 C 140.429688 202.050781 148.632812 202.050781 153.613281 201.855469 C 158.496094 201.757812 154.492188 201.5625 144.53125 201.5625 C 134.570312 201.5625 130.566406 201.757812 135.449219 201.855469 M 346.972656 204.785156 C 365.136719 204.980469 394.628906 204.980469 412.402344 204.785156 C 430.273438 204.6875 415.332031 204.589844 379.394531 204.589844 C 343.359375 204.589844 328.808594 204.6875 346.972656 204.882812 M 122.65625 216.796875 C 112.988281 219.042969 108.496094 226.171875 108.398438 239.0625 L 108.398438 247.167969 L 123.339844 246.777344 L 138.183594 246.386719 L 147.460938 242.089844 L 156.738281 237.695312 L 179.785156 237.695312 L 179.492188 234.277344 C 179.296875 231.738281 178.710938 230.761719 177.246094 230.566406 C 172.363281 229.882812 170.996094 229.296875 168.652344 226.855469 C 167.1875 225.390625 166.015625 223.242188 166.015625 221.972656 C 166.015625 220.703125 165.136719 218.75 164.0625 217.675781 L 162.109375 215.722656 L 144.238281 215.820312 C 134.472656 215.820312 124.707031 216.308594 122.65625 216.796875 M 165.820312 251.5625 C 166.992188 251.757812 168.945312 251.757812 170.117188 251.5625 C 171.386719 251.367188 170.410156 251.171875 167.96875 251.171875 C 165.527344 251.171875 164.550781 251.367188 165.722656 251.5625 M 179.6875 259.960938 L 180.175781 267.96875 L 180.46875 260.742188 C 180.664062 256.835938 180.46875 253.125 179.980469 252.734375 C 179.589844 252.34375 179.394531 255.566406 179.6875 259.960938 M 114.453125 261.328125 C 118.164062 261.523438 124.023438 261.523438 127.636719 261.328125 C 131.347656 261.132812 128.320312 261.035156 121.09375 261.035156 C 113.867188 261.035156 110.839844 261.132812 114.453125 261.328125 M 16.894531 275.78125 C 16.894531 280.078125 17.089844 281.640625 17.285156 279.394531 C 17.480469 277.148438 17.480469 273.535156 17.285156 271.582031 C 17.089844 269.628906 16.894531 271.484375 16.894531 275.78125 M 242.480469 275.78125 C 242.480469 280.078125 242.675781 281.640625 242.871094 279.394531 C 243.066406 277.148438 243.066406 273.535156 242.871094 271.582031 C 242.675781 269.628906 242.480469 271.484375 242.480469 275.78125 M 271.777344 275.78125 C 271.777344 280.078125 271.972656 281.640625 272.167969 279.394531 C 272.363281 277.148438 272.363281 273.535156 272.167969 271.582031 C 271.972656 269.628906 271.777344 271.484375 271.777344 275.78125 M 257.128906 275.78125 C 257.128906 279.003906 257.324219 280.175781 257.519531 278.417969 C 257.714844 276.660156 257.714844 274.023438 257.519531 272.558594 C 257.324219 271.09375 257.128906 272.558594 257.128906 275.78125 M 169.238281 312.402344 C 169.238281 314.355469 169.335938 315.039062 169.628906 314.160156 C 169.824219 313.183594 169.824219 311.621094 169.628906 310.644531 C 169.335938 309.667969 169.140625 310.546875 169.140625 312.402344 M 132.226562 316.699219 C 131.933594 317.480469 131.835938 319.140625 132.03125 320.410156 C 132.324219 322.070312 132.519531 321.679688 132.910156 319.042969 C 133.398438 315.136719 133.105469 314.355469 132.226562 316.699219 M 330.761719 322.851562 C 340.039062 323.046875 355.175781 323.046875 364.550781 322.851562 C 373.730469 322.753906 366.210938 322.558594 347.65625 322.558594 C 329.101562 322.558594 321.582031 322.753906 330.761719 322.851562 M 108.105469 334.863281 C 100.820312 335.816406 93.789062 338.167969 87.402344 341.796875 C 84.765625 343.945312 82.03125 348.4375 82.03125 350.683594 C 82.03125 352.636719 97.167969 362.402344 105.859375 366.015625 C 120.507812 372.167969 126.757812 373.242188 144.53125 373.242188 C 157.910156 373.242188 161.914062 372.949219 168.164062 371.289062 C 179.296875 368.164062 189.84375 363.476562 198.144531 357.910156 C 207.324219 351.757812 207.910156 349.707031 202.539062 343.75 C 198.632812 339.355469 192.96875 337.109375 178.515625 334.375 L 170.410156 332.910156 L 167.96875 334.863281 C 165.183594 336.824219 162.246094 338.554688 159.179688 340.039062 L 152.832031 343.164062 L 144.042969 343.164062 C 135.949219 343.761719 127.929688 341.289062 121.582031 336.230469 C 120.09375 335.050781 118.527344 333.976562 116.894531 333.007812 L 108.105469 334.863281 M 63.964844 355.371094 C 65.578125 357.148438 67.339844 358.785156 69.238281 360.253906 C 69.53125 360.253906 67.578125 358.007812 64.941406 355.371094 C 63.328125 353.59375 61.566406 351.957031 59.667969 350.488281 C 59.375 350.488281 61.328125 352.734375 63.964844 355.371094 M 223.632812 355.859375 C 222.140625 357.144531 220.828125 358.621094 219.726562 360.253906 C 220.117188 360.253906 222.265625 358.300781 224.609375 355.859375 C 226.953125 353.417969 228.710938 351.464844 228.515625 351.464844 C 228.125 351.464844 225.976562 353.417969 223.632812 355.859375 M 47.851562 359.570312 C 48.824219 360.742188 49.902344 361.820312 51.074219 362.792969 L 54.199219 365.625 L 51.269531 362.402344 C 48.632812 359.472656 47.851562 358.789062 47.851562 359.570312 M 233.886719 366.40625 L 228.027344 372.460938 L 234.179688 366.601562 C 239.84375 361.230469 240.722656 360.253906 240.039062 360.253906 C 239.84375 360.253906 237.109375 362.988281 233.886719 366.40625 M 55.664062 367.382812 C 56.636719 368.554688 57.714844 369.632812 58.886719 370.605469 L 62.011719 373.4375 L 59.082031 370.214844 C 56.445312 367.285156 55.664062 366.601562 55.664062 367.382812 M 244.824219 376.171875 L 239.257812 382.128906 L 250.976562 393.847656 L 262.695312 382.128906 L 256.640625 376.269531 L 250.488281 370.410156 L 244.824219 376.269531 M 325.195312 410.546875 C 343.75 429.101562 359.082031 444.238281 359.375 444.238281 C 359.667969 444.238281 344.726562 429.101562 326.171875 410.546875 C 314.9375 399.15625 303.542969 387.925781 291.992188 376.855469 C 291.699219 376.855469 306.640625 391.992188 325.195312 410.546875 M 267.089844 398.4375 C 260.644531 404.882812 255.664062 410.15625 255.859375 410.15625 C 256.152344 410.15625 261.71875 404.882812 268.066406 398.4375 C 274.511719 391.992188 279.492188 386.71875 279.296875 386.71875 C 279.003906 386.71875 273.4375 391.992188 267.089844 398.4375 M 314.941406 420.898438 C 333.203125 439.160156 348.339844 454.101562 348.632812 454.101562 C 348.925781 454.101562 334.179688 439.160156 315.917969 420.898438 C 297.65625 402.636719 282.519531 387.695312 282.226562 387.695312 C 281.933594 387.695312 296.679688 402.636719 314.941406 420.898438 M 227.539062 391.894531 C 227.539062 391.992188 230.957031 395.410156 235.15625 399.414062 L 242.675781 406.738281 L 235.351562 399.121094 C 228.515625 392.1875 227.539062 391.113281 227.539062 391.894531 M 254.882812 411.71875 C 254.882812 412.207031 270.800781 428.417969 290.332031 447.753906 L 325.683594 482.910156 L 290.527344 447.265625 L 255.078125 411.230469 C 255.078125 411.035156 254.882812 411.230469 254.882812 411.71875 M 115.625 453.125 C 115.625 460.9375 115.820312 464.0625 115.917969 460.253906 C 116.113281 456.347656 116.113281 449.902344 115.917969 445.996094 C 115.820312 442.089844 115.625 445.3125 115.625 453.125 "/>
<path style=" stroke:none;fill-rule:evenodd;fill:rgb(100%,92.54902%,81.176471%);fill-opacity:1;" d="M 153.710938 255.761719 C 143.261719 260.742188 138.28125 261.71875 122.070312 261.71875 L 108.398438 261.71875 L 108.398438 264.648438 C 108.398438 266.601562 108.984375 267.578125 110.253906 268.066406 C 113.378906 269.042969 115.136719 271.972656 116.308594 277.832031 C 116.996094 283.699219 119.6875 289.148438 123.925781 293.261719 C 133.203125 303.40625 148.539062 305.15625 159.863281 297.363281 C 165.703125 293.285156 169.839844 287.203125 171.484375 280.273438 C 172.65625 273.4375 174.023438 270.3125 176.855469 268.652344 L 179.6875 267.089844 L 179.6875 253.222656 L 176.660156 252.539062 C 175 252.246094 170.800781 251.953125 167.578125 251.953125 C 162.5 251.953125 160.15625 252.636719 153.710938 255.761719 M 132.617188 321.191406 C 132.226562 326.074219 132.8125 326.757812 139.257812 328.222656 C 143.359375 329.199219 145.117188 329.101562 149.804688 327.734375 L 155.46875 326.074219 L 154.882812 322.460938 L 154.296875 317.871094 C 154.296875 317.285156 150.097656 316.894531 143.554688 316.894531 L 133.007812 316.894531 L 132.617188 321.09375 "/>
<path style=" stroke:none;fill-rule:evenodd;fill:rgb(92.54902%,87.45098%,69.803922%);fill-opacity:1;" d="M 162.109375 77.148438 L 162.109375 91.796875 L 308.59375 91.796875 L 308.59375 62.5 L 162.109375 62.5 L 162.109375 77.148438 "/>
<path style=" stroke:none;fill-rule:evenodd;fill:rgb(79.215686%,76.470588%,76.862745%);fill-opacity:1;" d="M 405.273438 54.492188 C 405.273438 86.328125 405.566406 88.28125 410.449219 91.015625 C 412.890625 92.480469 471.679688 93.457031 471.679688 92.089844 C 471.679688 91.699219 456.738281 76.367188 438.476562 58.105469 L 405.273438 24.902344 L 405.273438 54.492188 M 198.4375 47.65625 L 272.265625 47.65625 C 292.480469 47.460938 275.878906 47.363281 235.351562 47.363281 C 194.824219 47.363281 178.222656 47.460938 198.4375 47.65625 M 161.523438 77.148438 C 161.523438 84.960938 161.71875 88.085938 161.816406 84.277344 C 162.011719 80.371094 162.011719 73.925781 161.816406 70.117188 C 161.71875 66.210938 161.523438 69.335938 161.523438 77.148438 M 198.4375 92.578125 L 272.265625 92.578125 C 292.480469 92.382812 275.878906 92.285156 235.351562 92.285156 C 194.824219 92.285156 178.222656 92.382812 198.4375 92.578125 M 194.726562 255.859375 C 194.726562 263.671875 194.921875 266.796875 195.019531 262.988281 C 195.214844 259.082031 195.214844 252.636719 195.019531 248.730469 C 194.921875 244.824219 194.726562 248.046875 194.726562 255.859375 M 286.328125 272.460938 C 286.328125 274.414062 286.523438 275.097656 286.816406 274.21875 C 287.011719 273.242188 287.011719 271.679688 286.816406 270.703125 C 286.523438 269.726562 286.328125 270.605469 286.328125 272.460938 M 332.324219 337.597656 C 341.40625 337.792969 355.859375 337.792969 364.550781 337.597656 C 373.339844 337.5 365.820312 337.304688 348.144531 337.304688 C 330.46875 337.304688 323.339844 337.5 332.324219 337.597656 M 267.871094 398.730469 C 263.5625 402.730469 259.546875 407.039062 255.859375 411.621094 C 255.859375 412.207031 271.777344 428.515625 291.308594 447.949219 L 326.660156 483.203125 L 330.859375 484.472656 C 337.480469 486.234375 344.527344 484.078125 349.027344 478.914062 C 353.527344 473.75 354.703125 466.472656 352.050781 460.15625 C 351.074219 457.714844 339.257812 445.214844 315.625 421.679688 C 296.484375 402.441406 280.46875 386.71875 280.273438 386.71875 C 279.980469 386.71875 274.414062 392.089844 267.773438 398.730469 "/>
<path style=" stroke:none;fill-rule:evenodd;fill:rgb(90.196078%,87.45098%,80.392157%);fill-opacity:1;" d="M 428.710938 148.339844 L 428.710938 189.257812 L 437.5 189.648438 L 446.484375 189.941406 L 448.339844 192.285156 C 450.878906 195.410156 450.78125 200.292969 447.949219 203.027344 L 445.703125 205.078125 L 428.710938 205.078125 L 428.710938 233.398438 L 435.449219 233.398438 C 443.066406 233.398438 447.851562 234.765625 449.21875 237.304688 C 450.78125 240.234375 450.292969 244.628906 448.242188 246.875 L 446.289062 249.023438 L 428.710938 249.023438 L 428.710938 278.320312 L 445.996094 278.320312 L 448.046875 280.566406 C 450.34375 283.183594 450.804688 286.941406 449.21875 290.039062 C 447.851562 292.578125 443.066406 293.945312 435.449219 293.945312 L 428.710938 293.945312 L 428.417969 382.617188 L 428.125 471.191406 L 425.976562 475.585938 C 424.667969 478.144531 423.0625 480.535156 421.191406 482.714844 L 418.554688 485.546875 L 442.382812 485.15625 L 466.210938 484.863281 L 470.214844 482.714844 C 475.335938 479.996094 479.269531 475.472656 481.25 470.019531 C 482.03125 467.480469 482.226562 409.082031 482.226562 286.816406 L 482.421875 107.421875 L 428.710938 107.421875 L 428.710938 148.339844 "/>
<path style=" stroke:none;fill-rule:evenodd;fill:rgb(3.921569%,5.098039%,6.27451%);fill-opacity:1;" d="M 126.269531 1.464844 C 116.136719 4.789062 107.945312 12.339844 103.808594 22.167969 L 101.074219 27.832031 L 100.78125 69.824219 C 100.488281 114.160156 100.585938 116.015625 104.980469 117.96875 C 107.910156 119.335938 112.792969 117.773438 114.257812 115.234375 C 114.84375 114.160156 115.234375 97.949219 115.234375 74.21875 C 115.234375 48.828125 115.625 33.496094 116.308594 30.761719 C 117.675781 25.390625 123.144531 18.847656 128.320312 16.503906 L 132.324219 14.648438 L 390.625 14.648438 L 390.625 49.609375 C 390.625 88.183594 391.015625 91.210938 396.484375 97.851562 C 398.785156 100.316406 401.496094 102.363281 404.492188 103.90625 L 409.570312 106.445312 L 482.226562 106.445312 L 482.8125 108.007812 C 483.984375 110.9375 483.496094 464.648438 482.324219 469.238281 C 480.957031 474.609375 475.488281 481.152344 470.3125 483.496094 L 466.308594 485.351562 L 363.085938 485.351562 L 363.769531 483.59375 C 366.800781 477.824219 368.25 471.355469 367.96875 464.84375 C 366.992188 452.636719 366.210938 451.5625 325.488281 410.9375 C 285.9375 371.582031 285.644531 371.386719 277.34375 372.65625 L 273.925781 373.144531 L 259.863281 358.886719 L 263.28125 353.515625 C 272.363281 339.355469 279.394531 322.265625 283.398438 304.589844 C 286.328125 291.210938 286.621094 263.28125 283.886719 249.609375 C 275.097656 206.25 247.753906 169.824219 209.277344 150.097656 C 180.21875 135.175781 146.925781 130.660156 114.941406 137.304688 C 88.183594 142.1875 64.746094 154.882812 43.945312 175.683594 C 23.148438 196.125 9.253906 222.550781 4.199219 251.269531 C 1.660156 264.746094 1.953125 290.332031 4.6875 303.320312 C 9.984375 331.257812 23.839844 356.855469 44.335938 376.5625 C 57.03125 389.160156 66.992188 396.386719 81.542969 403.613281 C 90.625 408.105469 103.417969 412.792969 108.105469 413.476562 C 109.570312 413.671875 114.550781 414.453125 119.140625 415.429688 C 154.296875 421.679688 190.917969 414.648438 220.019531 395.898438 C 222.339844 394.273438 224.789062 392.835938 227.34375 391.601562 C 230.058594 393.640625 232.574219 395.929688 234.863281 398.4375 L 241.601562 405.273438 L 241.308594 410.546875 C 241.210938 413.964844 241.601562 416.992188 242.675781 419.140625 C 243.652344 420.898438 258.496094 436.523438 275.683594 453.90625 L 307.128906 485.351562 L 132.324219 485.351562 L 128.417969 483.496094 C 123.144531 481.152344 117.675781 474.707031 116.308594 469.238281 C 115.722656 466.894531 115.234375 458.984375 115.234375 451.660156 C 115.234375 444.335938 114.84375 437.5 114.257812 436.523438 C 113.769531 435.546875 111.71875 434.179688 109.863281 433.59375 C 106.933594 432.617188 105.957031 432.617188 104.003906 433.984375 C 100.78125 436.132812 100.292969 439.648438 100.78125 457.226562 L 101.074219 472.167969 L 104.199219 478.710938 C 108.007812 486.71875 113.964844 492.871094 121.679688 496.679688 L 127.441406 499.511719 L 471.191406 499.511719 L 477.050781 496.582031 C 484.667969 492.871094 490.722656 486.816406 494.433594 478.710938 L 497.558594 472.167969 L 497.558594 103.027344 L 494.238281 96.191406 L 491.015625 89.355469 L 449.023438 47.65625 C 414.550781 13.378906 406.054688 5.46875 401.5625 3.222656 L 395.996094 0.488281 L 263.183594 0.292969 C 154.785156 0.195312 129.589844 0.292969 126.269531 1.464844 M 405.273438 55.273438 L 405.273438 85.644531 L 407.226562 88.085938 C 410.742188 92.578125 412.597656 92.773438 443.652344 92.578125 L 472.65625 92.285156 L 405.273438 24.902344 L 405.273438 55.273438 M 155.273438 49.902344 C 153.320312 50.976562 150.976562 53.125 149.902344 54.492188 L 147.949219 57.128906 L 147.363281 95.214844 L 149.316406 98.632812 C 150.292969 100.585938 152.539062 103.027344 154.296875 104.296875 L 157.519531 106.445312 L 312.988281 106.445312 L 316.503906 104.101562 C 322.558594 99.902344 323.242188 97.265625 323.242188 76.855469 L 323.242188 58.886719 L 320.996094 55.664062 C 319.617188 53.691406 317.976562 51.914062 316.113281 50.390625 L 313.378906 48.339844 L 236.035156 48.144531 L 158.691406 47.851562 L 155.273438 49.804688 M 161.523438 62.792969 C 161.328125 63.476562 161.230469 70.410156 161.328125 78.125 L 161.621094 92.285156 L 309.082031 92.285156 L 309.082031 62.011719 L 235.546875 61.71875 C 175.976562 61.523438 161.914062 61.71875 161.523438 62.695312 M 130.859375 149.023438 L 122.070312 150.488281 C 68.589844 160.214844 27.039062 202.585938 18.359375 256.25 C 16.601562 266.308594 16.992188 288.867188 18.945312 299.023438 C 27.667969 345.109375 60.785156 382.796875 105.371094 397.363281 C 129.589844 405.371094 159.472656 405.371094 183.691406 397.363281 C 222.460938 384.765625 253.417969 353.808594 266.015625 315.039062 C 270.214844 302.148438 271.875 291.699219 271.875 276.367188 C 271.875 241.210938 259.179688 210.644531 234.179688 185.546875 C 210.003906 161.488281 177.171875 148.152344 143.066406 148.535156 C 137.207031 148.535156 131.640625 148.828125 130.859375 148.925781 M 135.253906 163.671875 C 82.984375 168.210938 40.714844 208.132812 33.203125 260.058594 C 33.203125 263.769531 36.328125 266.601562 40.527344 266.601562 C 44.824219 266.601562 46.386719 264.355469 48.339844 255.273438 C 57.003906 216.070312 88.632812 186.070312 128.238281 179.484375 C 167.84375 172.902344 207.476562 191.058594 228.355469 225.351562 C 249.238281 259.644531 247.175781 303.1875 223.144531 335.351562 L 218.652344 340.917969 L 215.917969 337.207031 C 212.304688 332.324219 207.519531 328.222656 202.34375 325.976562 C 197.851562 324.023438 178.808594 319.335938 174.804688 319.335938 C 171.09375 319.335938 169.824219 318.066406 169.335938 313.867188 L 168.847656 310.058594 L 174.21875 304.492188 C 180.078125 298.535156 183.789062 291.992188 185.546875 284.960938 C 186.328125 282.03125 187.5 280.078125 188.964844 279.296875 C 193.652344 276.757812 194.335938 273.4375 194.335938 250.976562 C 194.335938 235.9375 193.945312 229.492188 192.96875 227.246094 C 190.582031 222.738281 186.722656 219.1875 182.03125 217.1875 C 180.46875 216.796875 179.101562 215.332031 178.125 213.085938 C 176.171875 208.496094 174.21875 206.25 169.628906 203.90625 L 165.820312 201.953125 L 141.796875 202.34375 L 117.675781 202.636719 L 111.523438 205.957031 C 104.6875 209.667969 99.804688 214.941406 96.484375 222.265625 L 94.238281 227.050781 L 93.945312 248.046875 C 93.554688 271.191406 94.140625 274.804688 98.632812 278.613281 C 100.390625 280.175781 102.246094 283.300781 103.515625 287.207031 C 105.957031 294.335938 111.328125 302.832031 115.429688 305.957031 L 118.359375 308.203125 L 117.96875 313.476562 L 117.675781 318.75 L 109.863281 320.019531 C 90.234375 323.339844 79.199219 328.027344 73.730469 335.644531 C 72.734375 337.210938 71.476562 338.597656 70.019531 339.746094 C 68.75 339.84375 60.546875 327.832031 56.640625 320.3125 C 53.222656 313.476562 50.488281 305.664062 47.558594 294.433594 C 45.605469 286.621094 38.476562 284.570312 34.570312 290.527344 L 32.910156 293.066406 L 35.351562 303.125 C 48.738281 357.441406 99.96875 393.691406 155.644531 388.246094 C 211.316406 382.796875 254.550781 337.304688 257.152344 281.421875 C 259.757812 225.542969 220.941406 176.226562 166.015625 165.625 C 157.910156 164.0625 141.503906 163.085938 135.253906 163.671875 M 311.71875 192.675781 C 309.214844 195.179688 308.964844 199.152344 311.132812 201.953125 L 312.597656 204.101562 L 445.996094 204.101562 L 447.753906 202.148438 C 450.195312 199.511719 449.902344 194.335938 447.167969 192.1875 L 445.117188 190.429688 L 313.769531 190.429688 L 311.71875 192.675781 M 122.65625 216.894531 C 112.988281 219.140625 108.496094 226.269531 108.398438 239.160156 L 108.398438 247.265625 L 123.339844 246.875 L 138.183594 246.484375 L 147.460938 242.1875 L 156.738281 237.792969 L 179.785156 237.792969 L 179.492188 234.375 C 179.296875 231.835938 178.710938 230.859375 177.246094 230.664062 C 172.363281 229.980469 170.996094 229.394531 168.652344 226.953125 C 167.1875 225.488281 166.015625 223.339844 166.015625 222.070312 C 166.015625 220.800781 165.136719 218.847656 164.0625 217.773438 L 162.109375 215.820312 L 144.238281 215.917969 C 134.472656 215.917969 124.707031 216.40625 122.65625 216.894531 M 312.109375 236.425781 C 310.574219 237.652344 309.640625 239.480469 309.546875 241.441406 C 309.453125 243.40625 310.210938 245.3125 311.621094 246.679688 L 313.671875 248.535156 L 378.613281 248.828125 L 443.652344 249.023438 L 445.996094 247.558594 C 450.683594 244.433594 450.585938 237.695312 445.703125 235.449219 C 443.945312 234.667969 425 234.375 379.003906 234.375 L 314.746094 234.375 L 312.109375 236.328125 M 162.597656 251.5625 C 161.523438 251.855469 156.738281 253.90625 151.855469 256.152344 L 143.066406 260.253906 L 125.683594 260.546875 L 108.398438 260.9375 L 108.398438 263.867188 C 108.398438 266.113281 109.277344 267.675781 111.328125 269.433594 C 113.574219 271.386719 114.648438 273.4375 115.722656 278.125 C 116.800781 284.953125 120.261719 291.179688 125.488281 295.703125 C 133.527344 302.765625 144.863281 304.691406 154.785156 300.683594 C 164.160156 297.167969 172.851562 285.253906 172.851562 275.878906 C 172.851562 273.242188 176.171875 268.847656 178.710938 268.066406 L 180.664062 267.480469 L 180.664062 260.253906 C 180.664062 256.347656 180.371094 252.832031 179.882812 252.636719 C 174.175781 251.679688 168.378906 251.351562 162.597656 251.660156 M 313.769531 279.296875 C 311.507812 280.210938 309.902344 282.261719 309.558594 284.675781 C 309.214844 287.09375 310.1875 289.507812 312.109375 291.015625 L 314.746094 292.96875 L 378.90625 292.96875 C 416.015625 292.96875 444.140625 292.578125 445.507812 291.992188 C 448.632812 290.917969 450.390625 286.132812 448.730469 283.105469 C 446.386719 278.222656 446.972656 278.320312 379.296875 278.417969 C 344.335938 278.417969 314.84375 278.808594 313.671875 279.394531 M 132.226562 316.210938 C 131.933594 316.503906 131.738281 318.847656 131.738281 321.484375 L 131.738281 326.269531 L 135.15625 327.734375 C 139.648438 329.589844 147.363281 329.492188 152.34375 327.539062 C 155.566406 326.171875 156.25 325.585938 155.761719 323.828125 C 155.46875 322.65625 155.175781 320.410156 155.175781 318.75 L 155.175781 315.722656 L 149.902344 316.699219 C 146.179688 317.253906 142.394531 317.253906 138.671875 316.699219 C 135.449219 316.113281 132.519531 316.015625 132.226562 316.210938 M 311.523438 325.195312 C 308.894531 327.953125 308.984375 332.3125 311.71875 334.960938 L 313.867188 336.914062 L 381.835938 336.914062 L 384.179688 334.472656 C 385.546875 333.203125 386.621094 331.445312 386.621094 330.566406 C 386.621094 328.613281 384.765625 325 383.300781 324.023438 C 382.714844 323.632812 366.699219 323.242188 347.753906 323.242188 L 313.476562 323.242188 L 311.523438 325.195312 M 108.203125 334.960938 C 100.886719 335.898438 93.820312 338.253906 87.402344 341.894531 C 84.765625 344.042969 82.03125 348.535156 82.03125 350.78125 C 82.03125 352.734375 97.167969 362.5 105.859375 366.113281 C 120.507812 372.265625 126.757812 373.339844 144.53125 373.339844 C 157.910156 373.339844 161.914062 373.046875 168.164062 371.386719 C 179.296875 368.261719 189.84375 363.574219 198.144531 358.007812 C 207.324219 351.855469 207.910156 349.804688 202.539062 343.847656 C 198.632812 339.453125 192.96875 337.207031 178.515625 334.472656 L 170.410156 333.007812 L 167.96875 334.960938 C 165.183594 336.921875 162.246094 338.652344 159.179688 340.136719 L 152.832031 343.261719 L 144.042969 343.261719 C 135.949219 343.859375 127.929688 341.386719 121.582031 336.328125 C 120.09375 335.148438 118.527344 334.074219 116.894531 333.105469 L 108.105469 334.960938 M 244.824219 376.367188 L 239.257812 382.226562 L 250.976562 393.945312 L 262.695312 382.226562 L 256.640625 376.367188 L 250.488281 370.507812 L 244.824219 376.367188 M 266.796875 398.828125 C 262.546875 402.855469 258.566406 407.164062 254.882812 411.71875 C 254.882812 412.207031 270.507812 428.320312 289.84375 447.460938 C 313.378906 471.09375 325.878906 482.8125 328.320312 483.886719 C 336.035156 487.011719 345.117188 484.570312 350.195312 478.027344 C 352.441406 475 353.125 473.144531 353.320312 467.871094 L 353.710938 461.425781 L 350.78125 457.03125 C 346.875 451.171875 282.128906 386.71875 280.175781 386.71875 C 279.394531 386.71875 273.339844 392.1875 266.796875 398.730469 "/>
<path style=" stroke:none;fill-rule:evenodd;fill:rgb(58.039216%,72.54902%,70.196078%);fill-opacity:1;" d="M 75.195312 206.835938 L 71.777344 210.449219 L 75.488281 207.128906 C 76.789062 205.988281 77.996094 204.746094 79.101562 203.417969 C 79.101562 202.636719 78.320312 203.417969 75.195312 206.738281 M 347.460938 234.082031 C 365.332031 234.277344 394.335938 234.277344 411.914062 234.082031 C 429.492188 233.984375 414.84375 233.886719 379.394531 233.886719 C 343.945312 233.886719 329.589844 233.984375 347.460938 234.179688 M 93.164062 251.953125 C 93.164062 261.914062 93.359375 265.917969 93.457031 261.035156 C 93.652344 256.054688 93.652344 247.851562 93.457031 242.871094 C 93.359375 237.988281 93.164062 241.992188 93.164062 251.953125 M 142.773438 418.652344 C 143.75 418.847656 145.3125 418.847656 146.289062 418.652344 C 147.265625 418.359375 146.386719 418.164062 144.53125 418.164062 C 142.578125 418.164062 141.894531 418.359375 142.773438 418.652344 M 275 454.101562 C 292.1875 471.289062 306.445312 485.351562 306.738281 485.351562 C 307.03125 485.351562 293.066406 471.289062 275.976562 454.101562 C 258.789062 436.914062 244.53125 422.851562 244.238281 422.851562 C 243.945312 422.851562 257.910156 436.914062 275 454.101562 "/>
</g>
</svg>
