<?xml version="1.0" encoding="UTF-8"?>
<svg xmlns="http://www.w3.org/2000/svg" xmlns:xlink="http://www.w3.org/1999/xlink" width="500px" height="500px" viewBox="0 0 500 500" version="1.1">
<g id="surface1">
<path style=" stroke:none;fill-rule:evenodd;fill:rgb(60.784314%,73.333333%,80%);fill-opacity:1;" d="M 132.191406 71.777344 C 132.195312 77.148438 132.359375 79.21875 132.554688 76.382812 C 132.753906 73.546875 132.753906 69.152344 132.550781 66.617188 C 132.351562 64.082031 132.191406 66.40625 132.191406 71.777344 M 437.496094 244.382812 L 437.492188 265.136719 L 435.542969 268.335938 C 434.28125 270.40625 432.5625 271.742188 430.664062 272.121094 L 427.734375 272.703125 L 427.734375 287.691406 L 431.164062 288.933594 C 434.894531 290.28125 437.5 294.167969 437.5 298.390625 C 437.5 301.285156 431.871094 307.617188 429.296875 307.617188 C 427.976562 307.617188 427.734375 309.039062 427.734375 316.875 L 427.734375 326.132812 L 430.179688 326.75 C 431.523438 327.085938 433.71875 328.667969 435.0625 330.257812 L 437.5 333.15625 L 437.5 480.46875 L 480.46875 480.46875 L 480.46875 223.632812 L 437.5 223.632812 L 437.496094 244.382812 M 77.390625 334.714844 C 86.390625 334.875 101.109375 334.875 110.109375 334.714844 C 119.105469 334.554688 111.742188 334.421875 93.75 334.421875 C 75.757812 334.421875 68.394531 334.554688 77.390625 334.714844 M 77.390625 354.246094 C 86.390625 354.40625 101.109375 354.40625 110.109375 354.246094 C 119.105469 354.085938 111.742188 353.953125 93.75 353.953125 C 75.757812 353.953125 68.394531 354.085938 77.390625 354.246094 M 137.453125 393.308594 C 146.71875 393.46875 161.875 393.46875 171.140625 393.308594 C 180.40625 393.148438 172.828125 393.015625 154.296875 393.015625 C 135.765625 393.015625 128.1875 393.148438 137.453125 393.308594 "/>
<path style=" stroke:none;fill-rule:evenodd;fill:rgb(72.941176%,73.72549%,78.431373%);fill-opacity:1;" d="M 335.9375 384.277344 L 335.9375 480.46875 L 378.90625 480.46875 L 378.90625 288.085938 L 335.9375 288.085938 L 335.9375 384.277344 "/>
<path style=" stroke:none;fill-rule:evenodd;fill:rgb(85.882353%,78.823529%,68.627451%);fill-opacity:1;" d="M 152.34375 116.855469 L 152.34375 160.15625 L 238.550781 160.15625 L 237.921875 154.820312 C 236.417969 142.023438 228.359375 123.183594 219.421875 111.570312 C 214.378906 105.011719 203.257812 94.300781 197.136719 90.101562 C 186.648438 82.902344 169.972656 76.160156 158.445312 74.457031 L 152.34375 73.554688 L 152.34375 116.855469 M 234.375 418.457031 L 234.375 480.46875 L 277.34375 480.46875 L 277.34375 356.445312 L 234.375 356.445312 L 234.375 418.457031 "/>
<path style=" stroke:none;fill-rule:evenodd;fill:rgb(89.803922%,78.039216%,74.901961%);fill-opacity:1;" d="M 123.171875 102.503906 C 102.640625 108.371094 84.789062 124.585938 76.894531 144.53125 C 73.101562 154.117188 71.949219 161.722656 72.5 173.578125 C 73.335938 191.558594 79.910156 206.804688 92.140625 219.125 C 126.804688 254.054688 184.996094 244.09375 205.621094 199.707031 C 208.507812 193.488281 209.558594 190.316406 211.347656 182.375 L 211.953125 179.6875 L 138.523438 179.6875 L 132.8125 173.976562 L 132.8125 100.585938 L 131.101562 100.65625 C 130.164062 100.695312 126.59375 101.523438 123.171875 102.503906 M 132.8125 446.289062 L 132.8125 480.46875 L 175.78125 480.46875 L 175.78125 412.109375 L 132.8125 412.109375 L 132.8125 446.289062 "/>
<path style=" stroke:none;fill-rule:evenodd;fill:rgb(90.196078%,78.039216%,58.823529%);fill-opacity:1;" d="M 300.78125 58.875 C 300.78125 87.554688 301.21875 89.878906 307.101562 92.335938 C 309.914062 93.511719 315.238281 93.734375 335.464844 93.523438 L 360.367188 93.261719 L 330.574219 63.484375 L 300.78125 33.703125 L 300.78125 58.875 M 141.84375 53.40625 C 142.785156 53.652344 144.324219 53.652344 145.265625 53.40625 C 146.203125 53.164062 145.433594 52.960938 143.554688 52.960938 C 141.675781 52.960938 140.90625 53.164062 141.84375 53.40625 M 205.023438 234.132812 L 201.660156 237.792969 L 205.320312 234.429688 C 208.730469 231.296875 209.433594 230.46875 208.6875 230.46875 C 208.523438 230.46875 206.875 232.117188 205.023438 234.132812 M 108.71875 307.375 C 134.941406 307.515625 177.570312 307.515625 203.445312 307.375 C 229.320312 307.230469 207.863281 307.109375 155.761719 307.109375 C 103.660156 307.109375 82.492188 307.230469 108.71875 307.375 "/>
<path style=" stroke:none;fill-rule:evenodd;fill:rgb(85.882353%,78.823529%,68.627451%);fill-opacity:1;" d="M 152.34375 116.855469 L 152.34375 160.15625 L 238.550781 160.15625 L 237.921875 154.820312 C 236.417969 142.023438 228.359375 123.183594 219.421875 111.570312 C 214.378906 105.011719 203.257812 94.300781 197.136719 90.101562 C 186.648438 82.902344 169.972656 76.160156 158.445312 74.457031 L 152.34375 73.554688 L 152.34375 116.855469 M 234.375 418.457031 L 234.375 480.46875 L 277.34375 480.46875 L 277.34375 356.445312 L 234.375 356.445312 L 234.375 418.457031 "/>
<path style=" stroke:none;fill-rule:evenodd;fill:rgb(89.803922%,78.039216%,74.901961%);fill-opacity:1;" d="M 123.171875 102.503906 C 102.640625 108.371094 84.789062 124.585938 76.894531 144.53125 C 73.101562 154.117188 71.949219 161.722656 72.5 173.578125 C 73.335938 191.558594 79.910156 206.804688 92.140625 219.125 C 126.804688 254.054688 184.996094 244.09375 205.621094 199.707031 C 208.507812 193.488281 209.558594 190.316406 211.347656 182.375 L 211.953125 179.6875 L 138.523438 179.6875 L 132.8125 173.976562 L 132.8125 100.585938 L 131.101562 100.65625 C 130.164062 100.695312 126.59375 101.523438 123.171875 102.503906 M 132.8125 446.289062 L 132.8125 480.46875 L 175.78125 480.46875 L 175.78125 412.109375 L 132.8125 412.109375 L 132.8125 446.289062 "/>
<path style=" stroke:none;fill-rule:evenodd;fill:rgb(96.862745%,87.45098%,80.392157%);fill-opacity:1;" d="M 26.617188 20.621094 C 24.875 21.125 22.675781 22.714844 21.734375 24.152344 L 20.019531 26.769531 L 19.765625 247.867188 C 19.59375 399.699219 19.835938 470.15625 20.539062 472.769531 C 21.15625 475.0625 22.59375 477.242188 24.164062 478.273438 L 26.765625 479.980469 L 70.023438 480.261719 L 113.28125 480.546875 L 113.28125 398.289062 L 118.992188 392.578125 L 189.601562 392.578125 L 195.3125 398.289062 L 195.3125 480.46875 L 214.84375 480.46875 L 214.84375 342.390625 L 220.09375 336.914062 L 291.625 336.914062 L 296.875 342.390625 L 296.875 480.46875 L 316.40625 480.46875 L 316.40625 273.804688 L 321.882812 268.554688 L 384.765625 268.554688 L 384.765625 243.164062 L 382.507812 243.164062 C 381.261719 243.164062 378.960938 241.820312 377.378906 240.171875 L 374.511719 237.179688 L 374.234375 175.230469 L 373.953125 113.28125 L 303.046875 113.28125 L 297.070312 110.296875 C 290.230469 106.878906 286.882812 103.332031 283.289062 95.703125 L 280.761719 90.332031 L 280.433594 54.929688 L 280.105469 19.53125 L 154.945312 19.617188 C 80.304688 19.671875 28.507812 20.078125 26.617188 20.621094 M 137.070312 54.613281 C 135.382812 55.640625 133.625 57.066406 133.164062 57.78125 C 132.703125 58.496094 132.105469 63.910156 131.835938 69.816406 L 131.347656 80.546875 L 126.023438 81.308594 C 108.042969 83.886719 87.109375 95.785156 74.21875 110.761719 C 44.476562 145.308594 44.65625 195.796875 74.644531 229.949219 C 99.535156 258.300781 141.289062 267.90625 176.847656 253.457031 C 203.246094 242.730469 224.957031 216.472656 230.363281 188.722656 L 231.933594 180.671875 L 239.867188 180.667969 C 250.238281 180.664062 253.359375 179.964844 256.332031 176.992188 L 258.789062 174.539062 L 258.789062 165.917969 C 258.789062 137.898438 245.550781 107.734375 224.015625 86.679688 C 213.953125 76.84375 206.820312 71.8125 193.847656 65.398438 C 180.914062 59.007812 168.460938 55.292969 154.785156 53.746094 C 142.632812 52.371094 140.582031 52.46875 137.070312 54.613281 M 55.589844 289.964844 C 50.460938 295.09375 52.238281 304.277344 58.804688 306.566406 C 63.015625 308.035156 248.507812 308.035156 252.71875 306.566406 C 256.671875 305.191406 258.789062 301.792969 258.789062 296.832031 C 258.789062 293.699219 258.164062 292.191406 255.933594 289.964844 L 253.082031 287.109375 L 58.445312 287.109375 L 55.589844 289.964844 M 57.398438 335.507812 C 54.027344 337.335938 52.734375 339.753906 52.734375 344.238281 C 52.734375 348.804688 54.050781 351.183594 57.597656 353.015625 C 59.976562 354.25 65.957031 354.492188 93.75 354.492188 C 129.171875 354.492188 131.3125 354.234375 133.757812 349.664062 C 135.054688 347.246094 135.054688 341.230469 133.757812 338.8125 C 131.308594 334.234375 129.203125 333.980469 93.554688 334.023438 C 65.898438 334.054688 59.59375 334.3125 57.398438 335.507812 M 168.726562 335.507812 C 165.269531 337.382812 164.0625 339.765625 164.0625 344.707031 C 164.0625 355.921875 180.476562 358.007812 183.449219 347.167969 C 185.898438 338.222656 176.882812 331.078125 168.726562 335.507812 "/>
<path style=" stroke:none;fill-rule:evenodd;fill:rgb(98.431373%,96.078431%,91.764706%);fill-opacity:1;" d="M 280.710938 51.757812 C 280.710938 69.75 280.84375 77.113281 281.003906 68.117188 C 281.164062 59.117188 281.164062 44.398438 281.003906 35.398438 C 280.84375 26.402344 280.710938 33.765625 280.710938 51.757812 M 374.480469 173.339844 C 374.480469 206.640625 374.605469 220.40625 374.753906 203.929688 C 374.90625 187.449219 374.90625 160.203125 374.757812 143.382812 C 374.605469 126.558594 374.480469 140.039062 374.480469 173.339844 M 236.117188 180.40625 C 238.953125 180.605469 243.347656 180.605469 245.882812 180.402344 C 248.414062 180.203125 246.09375 180.042969 240.722656 180.042969 C 235.351562 180.046875 233.28125 180.210938 236.117188 180.40625 M 140.382812 260.453125 C 141.589844 260.6875 143.566406 260.6875 144.773438 260.453125 C 145.984375 260.222656 144.996094 260.03125 142.578125 260.03125 C 140.160156 260.03125 139.171875 260.222656 140.382812 260.453125 "/>
<path style=" stroke:none;fill-rule:evenodd;fill:rgb(1.568627%,1.568627%,1.568627%);fill-opacity:1;" d="M 18.78125 1.628906 C 12.371094 3.898438 4.402344 11.746094 2.003906 18.15625 L 0 23.511719 L 0 476.214844 L 1.636719 481.027344 C 3.863281 487.570312 12.429688 496.136719 18.972656 498.363281 L 23.785156 500 L 494.292969 500 L 496.980469 497.308594 L 499.675781 494.617188 L 500.324219 481.039062 C 500.683594 473.574219 500.867188 367.007812 500.738281 244.230469 C 500.605469 121.453125 500.382812 63.515625 500.242188 115.488281 L 499.988281 209.980469 L 494.300781 203.613281 L 423.667969 203.613281 L 420.816406 206.804688 L 417.96875 209.992188 L 417.96875 266.335938 L 420.050781 268.984375 C 422.859375 272.554688 425.816406 273.539062 430.144531 272.34375 C 432.480469 271.699219 434.34375 270.296875 435.59375 268.25 L 437.492188 265.136719 L 437.496094 244.382812 L 437.5 223.632812 L 480.46875 223.632812 L 480.46875 480.46875 L 437.5 480.46875 L 437.5 333.039062 L 434.8125 330.03125 C 432.898438 327.890625 430.953125 326.871094 428.023438 326.476562 L 423.921875 325.929688 L 420.945312 328.902344 L 417.96875 331.882812 L 417.96875 480.46875 L 398.4375 480.46875 L 398.4375 274.265625 L 395.582031 271.410156 L 392.730469 268.554688 L 323.046875 268.554688 L 316.40625 275.195312 L 316.40625 480.46875 L 296.875 480.46875 L 296.875 343.554688 L 290.234375 336.914062 L 221.484375 336.914062 L 214.84375 343.554688 L 214.84375 480.46875 L 195.375 480.46875 L 195.101562 439.367188 L 194.824219 398.265625 L 192.085938 395.910156 L 189.34375 393.554688 L 119.25 393.554688 L 116.507812 395.910156 L 113.769531 398.265625 L 113.492188 439.367188 L 113.21875 480.46875 L 70.234375 480.46875 C 23.609375 480.46875 23.109375 480.414062 20.699219 475.125 C 19.804688 473.164062 19.53125 420.453125 19.53125 249.90625 C 19.53125 7.640625 19.164062 23.296875 24.875 20.699219 C 26.816406 19.8125 58.019531 19.53125 154.296875 19.53125 L 281.160156 19.53125 L 281.449219 55.421875 L 281.738281 91.308594 L 283.835938 95.847656 C 286.515625 101.640625 292.28125 107.40625 298.414062 110.425781 L 303.222656 112.792969 L 339.109375 113.09375 L 375 113.390625 L 375 236.523438 L 378.320312 239.84375 C 382.746094 244.269531 387.546875 244.4375 391.675781 240.308594 L 394.53125 237.453125 L 394.53125 99.140625 L 344.960938 49.570312 L 295.386719 0 L 22.949219 0.15625 L 18.78125 1.628906 M 0.480469 250 C 0.480469 375.414062 0.59375 426.71875 0.734375 364.015625 C 0.871094 301.304688 0.871094 198.695312 0.734375 135.984375 C 0.59375 73.277344 0.480469 124.585938 0.480469 250 M 300.78125 59.867188 C 300.78125 88.496094 301.117188 90.488281 306.351562 92.652344 C 308.242188 93.4375 316.960938 93.703125 334.722656 93.523438 L 360.367188 93.261719 L 330.574219 63.484375 L 300.78125 33.703125 L 300.78125 59.867188 M 135.667969 56.566406 L 132.8125 59.421875 L 132.808594 69.992188 L 132.804688 80.566406 L 122.851562 82.734375 C 90.492188 89.78125 64.992188 113.992188 55.636719 146.550781 C 52.964844 155.84375 52.015625 173.949219 53.660156 184.152344 C 59.335938 219.332031 85.03125 247.476562 120.183594 257.011719 C 131.679688 260.128906 153 260.109375 164.550781 256.964844 C 199.476562 247.460938 224.699219 219.476562 230.90625 183.351562 L 231.535156 179.6875 L 241.304688 179.6875 C 257.082031 179.6875 259.5625 177.164062 258.363281 162.320312 C 255.53125 127.261719 238.722656 96.832031 210.71875 76.070312 C 192.53125 62.585938 166.570312 53.710938 145.304688 53.710938 L 138.523438 53.710938 L 135.667969 56.566406 M 152.34375 116.722656 L 152.34375 160.15625 L 238.550781 160.15625 L 237.921875 154.820312 C 237.578125 151.890625 236.148438 145.847656 234.742188 141.394531 C 229.515625 124.820312 221.652344 112.320312 208.675781 99.972656 C 193.304688 85.34375 178.160156 77.90625 155.515625 73.859375 L 152.34375 73.289062 L 152.34375 116.722656 M 123.171875 102.503906 C 102.640625 108.371094 84.789062 124.585938 76.894531 144.53125 C 73.101562 154.117188 71.949219 161.722656 72.5 173.578125 C 73.335938 191.558594 79.910156 206.804688 92.140625 219.125 C 126.804688 254.054688 184.996094 244.09375 205.621094 199.707031 C 208.507812 193.488281 209.558594 190.316406 211.347656 182.375 L 211.953125 179.6875 L 138.523438 179.6875 L 132.8125 173.976562 L 132.8125 100.585938 L 131.101562 100.65625 C 130.164062 100.695312 126.59375 101.523438 123.171875 102.503906 M 60.058594 287.796875 C 54.738281 289.113281 51.585938 295.65625 53.757812 300.890625 C 56.253906 306.917969 51.34375 306.640625 155.761719 306.640625 C 260.179688 306.640625 255.269531 306.917969 257.765625 300.890625 C 259.332031 297.117188 258.34375 292.832031 255.242188 289.917969 L 252.773438 287.597656 L 157.390625 287.457031 C 104.933594 287.378906 61.132812 287.535156 60.058594 287.796875 M 335.9375 384.277344 L 335.9375 480.46875 L 378.90625 480.46875 L 378.90625 288.085938 L 335.9375 288.085938 L 335.9375 384.277344 M 420.824219 290.941406 C 414.734375 297.027344 418.828125 307.617188 427.269531 307.617188 C 431.695312 307.617188 437.5 302.433594 437.5 298.484375 C 437.5 289.398438 427.078125 284.683594 420.824219 290.941406 M 56.148438 337.320312 C 53.070312 340.398438 52.21875 344.054688 53.734375 347.714844 C 56.164062 353.578125 55.722656 353.515625 94.011719 353.515625 L 128.996094 353.515625 L 131.351562 351.15625 C 134.433594 348.078125 135.28125 344.421875 133.765625 340.761719 C 131.335938 334.898438 131.777344 334.960938 93.488281 334.960938 L 58.503906 334.960938 L 56.148438 337.320312 M 167.476562 337.320312 C 164.398438 340.398438 163.546875 344.054688 165.0625 347.714844 C 167.601562 353.84375 175.242188 355.5625 180.367188 351.160156 C 182.640625 349.203125 183.105469 348.027344 183.105469 344.238281 C 183.105469 340.449219 182.640625 339.273438 180.367188 337.316406 C 176.605469 334.082031 170.710938 334.085938 167.476562 337.320312 M 234.375 418.457031 L 234.375 480.46875 L 277.34375 480.46875 L 277.34375 356.445312 L 234.375 356.445312 L 234.375 418.457031 M 132.8125 446.289062 L 132.8125 480.46875 L 175.78125 480.46875 L 175.78125 412.109375 L 132.8125 412.109375 L 132.8125 446.289062 "/>
</g>
</svg>
