<?xml version="1.0" encoding="UTF-8"?>
<svg xmlns="http://www.w3.org/2000/svg" xmlns:xlink="http://www.w3.org/1999/xlink" width="500px" height="500px" viewBox="0 0 500 500" version="1.1">
<g id="surface1">
<path style=" stroke:none;fill-rule:nonzero;fill:rgb(0.784314%,0.784314%,1.176471%);fill-opacity:1;" d="M 44.335938 30.691406 C 45.59375 30.683594 46.847656 30.679688 48.140625 30.671875 C 49.519531 30.671875 50.902344 30.667969 52.28125 30.667969 C 53.742188 30.664062 55.203125 30.65625 56.664062 30.652344 C 60.625 30.636719 64.585938 30.632812 68.546875 30.625 C 71.023438 30.621094 73.496094 30.617188 75.972656 30.613281 C 83.71875 30.597656 91.46875 30.589844 99.214844 30.582031 C 108.152344 30.578125 117.089844 30.558594 126.03125 30.527344 C 132.945312 30.503906 139.859375 30.492188 146.773438 30.492188 C 150.902344 30.492188 155.03125 30.484375 159.160156 30.464844 C 163.039062 30.445312 166.917969 30.445312 170.800781 30.453125 C 172.222656 30.453125 173.648438 30.449219 175.070312 30.4375 C 177.015625 30.425781 178.957031 30.433594 180.902344 30.441406 C 181.988281 30.441406 183.078125 30.441406 184.195312 30.4375 C 187.492188 30.898438 189.320312 31.933594 191.980469 34.125 C 193.671875 37.019531 193.929688 38.265625 193.929688 41.785156 C 201.648438 41.785156 209.367188 41.785156 217.320312 41.785156 C 217.960938 39.617188 218.605469 37.453125 219.269531 35.222656 C 220.363281 33.238281 220.363281 33.238281 222.191406 31.9375 C 228.773438 30.269531 228.773438 30.269531 232.730469 32.144531 C 234.859375 34.125 236.371094 35.832031 237.785156 38.503906 C 237.785156 39.585938 237.785156 40.667969 237.785156 41.785156 C 245.179688 41.785156 252.578125 41.785156 260.199219 41.785156 C 260.519531 39.617188 260.839844 37.453125 261.171875 35.222656 C 265.132812 31.304688 268.097656 30.296875 273.304688 30.296875 C 275.171875 30.28125 275.171875 30.28125 277.078125 30.265625 C 278.449219 30.273438 279.816406 30.285156 281.183594 30.296875 C 282.636719 30.292969 284.085938 30.285156 285.539062 30.277344 C 289.472656 30.261719 293.402344 30.273438 297.335938 30.292969 C 301.460938 30.308594 305.589844 30.300781 309.714844 30.296875 C 316.652344 30.292969 323.585938 30.308594 330.523438 30.335938 C 338.515625 30.363281 346.511719 30.367188 354.503906 30.351562 C 362.21875 30.339844 369.929688 30.347656 377.640625 30.363281 C 380.910156 30.371094 384.179688 30.371094 387.453125 30.363281 C 391.316406 30.359375 395.179688 30.371094 399.042969 30.394531 C 400.453125 30.398438 401.859375 30.402344 403.269531 30.394531 C 416.316406 30.351562 426.71875 32.285156 437.5625 40.691406 C 438.425781 41.320312 439.289062 41.953125 440.179688 42.605469 C 448.148438 51.308594 453.851562 62.878906 454.265625 75.445312 C 454.277344 77.085938 454.28125 78.726562 454.285156 80.367188 C 454.289062 81.273438 454.292969 82.183594 454.296875 83.117188 C 454.3125 86.152344 454.320312 89.191406 454.328125 92.226562 C 454.339844 94.40625 454.347656 96.582031 454.359375 98.761719 C 454.382812 104.671875 454.40625 110.585938 454.425781 116.496094 C 454.445312 122.675781 454.472656 128.855469 454.5 135.035156 C 454.546875 146.734375 454.589844 158.433594 454.632812 170.132812 C 454.679688 183.453125 454.734375 196.773438 454.789062 210.09375 C 454.898438 237.496094 455.003906 264.894531 455.105469 292.296875 C 455.675781 292.121094 456.246094 291.945312 456.835938 291.765625 C 465.796875 289.4375 476.441406 290.183594 484.339844 295.578125 C 491.699219 301.355469 496.675781 308.769531 498.957031 318.550781 C 499.269531 323.160156 499.277344 327.761719 499.285156 332.378906 C 499.292969 333.730469 499.296875 335.085938 499.304688 336.476562 C 499.3125 339.34375 499.320312 342.207031 499.320312 345.074219 C 499.316406 349.394531 499.359375 353.714844 499.394531 358.035156 C 499.546875 393.0625 489.828125 418.636719 475.75 449.484375 C 474.230469 452.820312 472.714844 456.160156 471.203125 459.507812 C 470.273438 461.5625 469.339844 463.617188 468.398438 465.664062 C 463.253906 477.039062 460.996094 487.109375 460.8125 499.851562 C 460.785156 501.84375 460.785156 501.84375 460.757812 503.878906 C 460.722656 506.644531 460.707031 509.410156 460.703125 512.175781 C 460.5 523.417969 460.5 523.417969 457.617188 526.730469 C 453.855469 529.511719 451.851562 530.171875 447.308594 529.683594 C 444.078125 527.90625 444.078125 527.90625 441.460938 525.308594 C 441.136719 523.140625 440.816406 520.976562 440.484375 518.742188 C 402.859375 518.742188 365.234375 518.742188 326.464844 518.742188 C 326.144531 520.546875 325.824219 522.351562 325.492188 524.214844 C 323.847656 526.871094 322.554688 528.257812 319.773438 529.21875 C 316.375 529.886719 314.300781 529.910156 311.054688 528.453125 C 307.972656 525.488281 306.1875 523.011719 305.769531 518.335938 C 305.714844 515.25 305.746094 512.1875 305.820312 509.101562 C 305.839844 507.496094 305.839844 507.496094 305.859375 505.859375 C 305.894531 503.222656 305.941406 500.589844 306 497.957031 C 304.832031 497.960938 303.660156 497.964844 302.453125 497.96875 C 274.667969 498.039062 246.882812 498.09375 219.097656 498.125 C 215.679688 498.128906 212.257812 498.132812 208.839844 498.140625 C 208.160156 498.140625 207.480469 498.140625 206.777344 498.140625 C 195.753906 498.15625 184.726562 498.179688 173.703125 498.210938 C 162.390625 498.242188 151.082031 498.261719 139.769531 498.265625 C 133.417969 498.273438 127.0625 498.28125 120.710938 498.304688 C 114.730469 498.328125 108.753906 498.335938 102.777344 498.328125 C 100.582031 498.332031 98.382812 498.335938 96.1875 498.351562 C 93.191406 498.367188 90.199219 498.363281 87.207031 498.351562 C 86.332031 498.363281 85.460938 498.371094 84.558594 498.382812 C 79.929688 498.34375 76.84375 498.0625 73.089844 494.675781 C 70.308594 490.644531 69.792969 487.636719 69.777344 482.597656 C 69.773438 481.332031 69.769531 480.066406 69.765625 478.761719 C 69.777344 477.449219 69.789062 476.132812 69.800781 474.78125 C 69.789062 473.488281 69.777344 472.195312 69.765625 470.863281 C 69.800781 458.605469 71.734375 448.378906 78.9375 438.886719 C 87.949219 429.074219 96.828125 427.441406 109.058594 427.625 C 110.238281 427.628906 111.414062 427.636719 112.625 427.640625 C 116.359375 427.65625 120.09375 427.699219 123.824219 427.742188 C 126.367188 427.757812 128.910156 427.773438 131.453125 427.785156 C 137.660156 427.820312 143.867188 427.882812 150.078125 427.945312 C 150.078125 417.476562 150.078125 407.007812 150.078125 396.222656 C 146.65625 396.246094 143.234375 396.269531 139.707031 396.292969 C 128.371094 396.363281 117.039062 396.414062 105.703125 396.449219 C 98.832031 396.472656 91.964844 396.5 85.097656 396.550781 C 78.460938 396.601562 71.828125 396.625 65.191406 396.636719 C 62.667969 396.644531 60.140625 396.660156 57.617188 396.683594 C 54.066406 396.714844 50.515625 396.71875 46.964844 396.71875 C 45.933594 396.734375 44.898438 396.75 43.835938 396.765625 C 32.800781 396.699219 23.261719 392.996094 14.617188 385.28125 C 14.019531 384.757812 13.417969 384.234375 12.800781 383.695312 C 6.554688 377.523438 1.65625 367.125 0 357.933594 C -0.0898438 356.265625 -0.128906 354.59375 -0.132812 352.925781 C -0.136719 351.917969 -0.144531 350.914062 -0.148438 349.875 C -0.148438 348.773438 -0.148438 347.675781 -0.148438 346.539062 C -0.152344 345.367188 -0.160156 344.191406 -0.164062 342.984375 C -0.175781 339.039062 -0.183594 335.097656 -0.1875 331.152344 C -0.195312 328.328125 -0.203125 325.507812 -0.210938 322.683594 C -0.234375 314.199219 -0.25 305.71875 -0.261719 297.238281 C -0.265625 294.839844 -0.269531 292.441406 -0.273438 290.042969 C -0.300781 275.144531 -0.320312 260.246094 -0.332031 245.347656 C -0.335938 241.894531 -0.339844 238.445312 -0.339844 234.996094 C -0.34375 234.136719 -0.34375 233.28125 -0.34375 232.398438 C -0.355469 218.519531 -0.386719 204.644531 -0.429688 190.769531 C -0.46875 176.507812 -0.492188 162.25 -0.5 147.988281 C -0.5 139.988281 -0.511719 131.988281 -0.546875 123.988281 C -0.574219 116.453125 -0.582031 108.921875 -0.570312 101.390625 C -0.570312 98.632812 -0.578125 95.875 -0.59375 93.117188 C -0.699219 75.136719 -0.492188 60.652344 10.496094 46.398438 C 19.917969 35.878906 31.121094 30.730469 44.335938 30.691406 Z M 44.335938 30.691406 "/>
<path style=" stroke:none;fill-rule:nonzero;fill:rgb(84.705882%,89.019608%,89.019608%);fill-opacity:1;" d="M 64.320312 101.953125 C 171.410156 101.953125 278.5 101.953125 388.835938 101.953125 C 388.835938 153.574219 388.835938 205.199219 388.835938 258.386719 C 387.226562 258.023438 385.621094 257.664062 383.964844 257.292969 C 381.546875 257.191406 379.132812 257.148438 376.714844 257.15625 C 375.46875 257.152344 374.226562 257.148438 372.941406 257.144531 C 369.691406 257.277344 366.695312 257.75 363.5 258.386719 C 363.496094 257.199219 363.492188 256.015625 363.488281 254.796875 C 363.453125 243.609375 363.394531 232.425781 363.320312 221.238281 C 363.28125 215.492188 363.25 209.742188 363.234375 203.992188 C 363.21875 198.4375 363.1875 192.882812 363.140625 187.328125 C 363.125 185.214844 363.117188 183.101562 363.117188 180.988281 C 363.113281 178.015625 363.085938 175.042969 363.054688 172.074219 C 363.058594 171.207031 363.066406 170.34375 363.070312 169.453125 C 362.921875 160.445312 359.875 153.613281 354.726562 146.804688 C 354.726562 146.082031 354.726562 145.359375 354.726562 144.613281 C 354.183594 144.3125 353.640625 144.007812 353.082031 143.695312 C 351.535156 142.824219 349.992188 141.945312 348.453125 141.054688 C 347.628906 140.582031 346.804688 140.109375 345.957031 139.625 C 345.132812 139.148438 344.308594 138.671875 343.460938 138.183594 C 336.128906 134.398438 326.949219 134.488281 319.402344 137.503906 C 310.429688 142.1875 304.511719 149.535156 301.128906 159.929688 C 300.117188 164.5 299.988281 168.96875 299.953125 173.652344 C 299.945312 174.464844 299.933594 175.277344 299.925781 176.113281 C 299.894531 178.78125 299.871094 181.453125 299.84375 184.121094 C 299.824219 185.976562 299.804688 187.832031 299.785156 189.691406 C 299.730469 194.566406 299.683594 199.441406 299.636719 204.316406 C 299.585938 209.296875 299.53125 214.273438 299.476562 219.253906 C 299.375 229.015625 299.273438 238.777344 299.179688 248.539062 C 298.460938 248.09375 297.742188 247.652344 297 247.191406 C 296.050781 246.605469 295.097656 246.019531 294.117188 245.414062 C 293.175781 244.835938 292.238281 244.257812 291.269531 243.660156 C 283.234375 238.84375 276.695312 236.363281 267.507812 236.097656 C 265.621094 236.015625 265.621094 236.015625 263.699219 235.933594 C 259.480469 236.222656 259.480469 236.222656 255.324219 241.976562 C 255.003906 269.773438 254.683594 297.570312 254.351562 326.210938 C 191.640625 326.210938 128.929688 326.210938 64.320312 326.210938 C 64.320312 252.203125 64.320312 178.199219 64.320312 101.953125 Z M 64.320312 101.953125 "/>
<path style=" stroke:none;fill-rule:nonzero;fill:rgb(85.098039%,76.862745%,74.509804%);fill-opacity:1;" d="M 337.367188 157.949219 C 340.578125 160.269531 342.035156 161.699219 344.007812 165.398438 C 344.582031 169.558594 344.515625 173.683594 344.476562 177.882812 C 344.480469 179.144531 344.484375 180.40625 344.488281 181.707031 C 344.496094 184.445312 344.492188 187.183594 344.480469 189.917969 C 344.464844 194.25 344.472656 198.582031 344.484375 202.910156 C 344.511719 212.886719 344.503906 222.859375 344.492188 232.832031 C 344.484375 241.976562 344.480469 251.121094 344.511719 260.265625 C 344.527344 265.261719 344.511719 270.253906 344.492188 275.25 C 344.496094 277.867188 344.503906 280.480469 344.511719 283.09375 C 344.5 284.285156 344.488281 285.472656 344.480469 286.699219 C 344.511719 293.1875 344.511719 293.1875 346.839844 299.027344 C 349.476562 301.644531 349.476562 301.644531 352.835938 302.164062 C 353.601562 302.089844 354.367188 302.015625 355.152344 301.9375 C 355.917969 301.878906 356.679688 301.816406 357.464844 301.753906 C 360.363281 300.796875 361.058594 299.613281 362.523438 296.671875 C 363.320312 293.5 363.320312 293.5 363.863281 290.109375 C 365.132812 283.914062 365.132812 283.914062 367.945312 280.605469 C 372.011719 278.148438 374.378906 277.722656 379.089844 278.074219 C 384.292969 280.25 387.328125 283.445312 389.808594 289.015625 C 389.941406 292.886719 390.050781 296.753906 390.058594 300.628906 C 390.191406 305.195312 390.476562 307.152344 392.988281 310.929688 C 395.792969 313.191406 396.746094 313.777344 400.105469 313.289062 C 403.496094 312.597656 404.300781 312.132812 406.804688 309.253906 C 408.078125 306.046875 408.621094 303.875 409.117188 300.5 C 409.96875 295.605469 411.609375 293.121094 415.152344 290.144531 C 418.660156 288.109375 420.972656 288.386719 424.894531 289.015625 C 429.285156 290.625 431.609375 292.757812 433.839844 297.324219 C 436.015625 304.480469 435.089844 312.828125 435.027344 320.296875 C 435.039062 321.675781 435.050781 323.054688 435.0625 324.472656 C 435.050781 325.726562 435.042969 326.976562 435.03125 328.269531 C 435.792969 332.742188 437.332031 334.367188 440.484375 337.148438 C 443.9375 337.695312 443.9375 337.695312 447.308594 337.148438 C 448.050781 337.082031 448.792969 337.011719 449.5625 336.945312 C 451.390625 336.171875 451.390625 336.171875 452.300781 333.867188 C 453.015625 331.121094 453.523438 328.464844 454.007812 325.664062 C 455.011719 320.359375 456.800781 317.058594 460.769531 313.835938 C 464.484375 312.523438 467.882812 312.296875 471.574219 313.871094 C 475.566406 316.210938 477.691406 318.34375 479.464844 322.925781 C 479.894531 326.914062 479.875 330.875 479.855469 334.886719 C 479.859375 336.644531 479.859375 336.644531 479.863281 338.433594 C 479.867188 340.910156 479.859375 343.390625 479.847656 345.867188 C 479.832031 349.613281 479.847656 353.359375 479.867188 357.101562 C 479.898438 391.425781 467.398438 418.53125 453.703125 448.421875 C 453.179688 449.574219 452.652344 450.726562 452.113281 451.910156 C 451.144531 454.03125 450.160156 456.148438 449.167969 458.257812 C 439.875 478.550781 441.125 495.109375 440.484375 518.742188 C 402.859375 518.742188 365.234375 518.742188 326.464844 518.742188 C 326.144531 508.273438 325.824219 497.804688 325.492188 487.019531 C 322.355469 467.644531 314.699219 453.53125 304.585938 437.933594 C 294.925781 422.996094 285.957031 407.886719 279.8125 390.683594 C 279.542969 389.949219 279.277344 389.214844 279 388.460938 C 273.574219 372.453125 273.441406 356.5625 273.554688 339.683594 C 273.5625 337.328125 273.566406 334.972656 273.570312 332.617188 C 273.578125 326.472656 273.609375 320.324219 273.640625 314.179688 C 273.671875 307.886719 273.683594 301.597656 273.699219 295.304688 C 273.730469 282.996094 273.78125 270.691406 273.839844 258.386719 C 283.515625 261.335938 290.058594 267.382812 295.28125 276.980469 C 298.679688 284.5625 299.746094 291.183594 299.703125 299.605469 C 299.714844 300.671875 299.726562 301.738281 299.738281 302.835938 C 299.773438 306.207031 299.78125 309.574219 299.789062 312.945312 C 299.804688 316.339844 299.824219 319.730469 299.859375 323.125 C 299.878906 325.226562 299.886719 327.328125 299.882812 329.429688 C 299.890625 330.378906 299.898438 331.328125 299.90625 332.308594 C 299.90625 333.136719 299.90625 333.96875 299.910156 334.828125 C 300.195312 337.527344 300.808594 339.230469 302.101562 341.523438 C 305.734375 344.242188 307.546875 344.128906 311.847656 343.710938 C 314.648438 342.429688 314.648438 342.429688 316.722656 340.429688 C 317.796875 336.8125 317.820312 334.132812 317.824219 330.320312 C 317.828125 328.890625 317.832031 327.457031 317.835938 325.984375 C 317.835938 324.394531 317.835938 322.804688 317.832031 321.214844 C 317.835938 319.542969 317.839844 317.871094 317.84375 316.203125 C 317.851562 312.601562 317.855469 309 317.859375 305.398438 C 317.867188 299.703125 317.882812 294.007812 317.898438 288.3125 C 317.90625 286.363281 317.914062 284.410156 317.917969 282.460938 C 317.921875 281.484375 317.925781 280.507812 317.929688 279.503906 C 317.96875 266.242188 318 252.980469 318.011719 239.71875 C 318.019531 230.777344 318.042969 221.832031 318.082031 212.890625 C 318.101562 208.15625 318.113281 203.425781 318.105469 198.691406 C 318.101562 194.238281 318.117188 189.785156 318.144531 185.335938 C 318.148438 183.703125 318.148438 182.070312 318.144531 180.4375 C 318.132812 178.203125 318.152344 175.972656 318.171875 173.738281 C 318.171875 172.492188 318.175781 171.242188 318.179688 169.957031 C 318.925781 164.683594 321.160156 161.210938 324.820312 157.878906 C 329.320312 155.765625 332.839844 156.054688 337.367188 157.949219 Z M 337.367188 157.949219 "/>
<path style=" stroke:none;fill-rule:nonzero;fill:rgb(88.235294%,83.529412%,72.54902%);fill-opacity:1;" d="M 232.910156 31.9375 C 235.152344 33.941406 236.203125 35.726562 237.785156 38.503906 C 237.785156 39.585938 237.785156 40.667969 237.785156 41.785156 C 245.179688 41.785156 252.578125 41.785156 260.199219 41.785156 C 261.164062 44.3125 262.128906 46.839844 263.121094 49.441406 C 265.367188 52.125 266.546875 52.652344 269.804688 53.136719 C 270.890625 53.136719 271.976562 53.136719 273.097656 53.136719 C 274.34375 53.148438 275.59375 53.15625 276.878906 53.164062 C 278.261719 53.160156 279.644531 53.152344 281.027344 53.144531 C 282.484375 53.148438 283.941406 53.15625 285.398438 53.164062 C 288.535156 53.175781 291.671875 53.179688 294.808594 53.171875 C 299.769531 53.164062 304.734375 53.183594 309.699219 53.203125 C 320.242188 53.246094 330.785156 53.257812 341.328125 53.269531 C 352.695312 53.28125 364.066406 53.300781 375.433594 53.347656 C 380.363281 53.367188 385.292969 53.371094 390.222656 53.363281 C 393.296875 53.363281 396.371094 53.375 399.449219 53.390625 C 400.867188 53.394531 402.289062 53.394531 403.707031 53.386719 C 419.058594 53.3125 419.058594 53.3125 426.035156 58.75 C 426.542969 59.332031 427.050781 59.917969 427.574219 60.519531 C 428.089844 61.085938 428.609375 61.652344 429.140625 62.234375 C 435.40625 72.113281 435.175781 81.933594 435.082031 93.59375 C 435.078125 95.515625 435.082031 97.433594 435.082031 99.355469 C 435.082031 104.542969 435.0625 109.730469 435.035156 114.921875 C 435.007812 120.351562 435.007812 125.785156 435.003906 131.214844 C 434.992188 141.488281 434.957031 151.761719 434.917969 162.039062 C 434.875 173.738281 434.855469 185.441406 434.835938 197.140625 C 434.792969 221.203125 434.726562 245.261719 434.636719 269.324219 C 432.71875 269.042969 430.796875 268.765625 428.875 268.484375 C 426.019531 268.128906 423.195312 268.085938 420.324219 268.09375 C 418.75 268.089844 418.75 268.089844 417.148438 268.085938 C 414.414062 268.21875 411.96875 268.6875 409.300781 269.324219 C 409.296875 267.929688 409.296875 267.929688 409.292969 266.503906 C 409.210938 243.863281 409.121094 221.21875 409.019531 198.578125 C 408.972656 187.628906 408.925781 176.679688 408.890625 165.726562 C 408.859375 156.183594 408.820312 146.640625 408.773438 137.097656 C 408.746094 132.046875 408.726562 126.992188 408.714844 121.9375 C 408.699219 117.183594 408.679688 112.425781 408.652344 107.671875 C 408.640625 105.925781 408.636719 104.179688 408.632812 102.433594 C 408.628906 100.050781 408.617188 97.664062 408.597656 95.28125 C 408.59375 93.949219 408.585938 92.613281 408.582031 91.238281 C 408.320312 87.648438 408.070312 85.328125 406.378906 82.261719 C 402.289062 80.347656 398.785156 79.796875 394.378906 79.789062 C 392.542969 79.777344 392.542969 79.777344 390.671875 79.765625 C 389.320312 79.765625 387.972656 79.769531 386.621094 79.773438 C 385.179688 79.769531 383.742188 79.761719 382.300781 79.753906 C 378.347656 79.738281 374.394531 79.738281 370.441406 79.738281 C 366.175781 79.738281 361.914062 79.722656 357.648438 79.710938 C 348.324219 79.683594 339.003906 79.675781 329.679688 79.671875 C 323.859375 79.667969 318.042969 79.660156 312.222656 79.652344 C 296.109375 79.628906 280 79.613281 263.886719 79.609375 C 262.855469 79.609375 261.828125 79.609375 260.765625 79.609375 C 258.675781 79.609375 256.585938 79.609375 254.496094 79.609375 C 253.457031 79.605469 252.421875 79.605469 251.351562 79.605469 C 250.3125 79.605469 249.277344 79.605469 248.207031 79.605469 C 231.363281 79.601562 214.523438 79.574219 197.683594 79.53125 C 180.398438 79.492188 163.109375 79.46875 145.824219 79.46875 C 136.113281 79.46875 126.40625 79.457031 116.699219 79.425781 C 108.4375 79.402344 100.175781 79.390625 91.914062 79.410156 C 87.695312 79.417969 83.480469 79.414062 79.261719 79.390625 C 75.402344 79.367188 71.546875 79.371094 67.6875 79.394531 C 66.289062 79.398438 64.890625 79.390625 63.496094 79.375 C 55.328125 79.019531 55.328125 79.019531 47.902344 82.203125 C 44.984375 86.84375 44.988281 90.316406 45.066406 95.882812 C 45.058594 96.925781 45.050781 97.972656 45.042969 99.050781 C 45.019531 102.558594 45.039062 106.066406 45.0625 109.574219 C 45.054688 112.089844 45.046875 114.601562 45.035156 117.117188 C 45.011719 123.945312 45.027344 130.777344 45.050781 137.605469 C 45.066406 144.75 45.058594 151.890625 45.050781 159.035156 C 45.042969 171.800781 45.066406 184.5625 45.101562 197.328125 C 45.128906 208.902344 45.132812 220.472656 45.113281 232.046875 C 45.089844 246.917969 45.089844 261.792969 45.113281 276.664062 C 45.121094 282.34375 45.117188 288.027344 45.109375 293.707031 C 45.097656 300.394531 45.113281 307.082031 45.144531 313.769531 C 45.152344 316.226562 45.152344 318.683594 45.144531 321.140625 C 45.132812 324.488281 45.152344 327.835938 45.175781 331.1875 C 45.167969 332.160156 45.15625 333.136719 45.148438 334.144531 C 45.214844 338.703125 45.480469 340.976562 47.757812 344.863281 C 51.523438 347.617188 54.640625 347.757812 58.992188 347.695312 C 59.828125 347.703125 60.664062 347.710938 61.527344 347.722656 C 64.328125 347.746094 67.125 347.730469 69.925781 347.714844 C 71.933594 347.726562 73.941406 347.738281 75.949219 347.75 C 81.398438 347.78125 86.847656 347.777344 92.296875 347.769531 C 97.992188 347.765625 103.6875 347.792969 109.382812 347.816406 C 120.167969 347.859375 130.953125 347.871094 141.738281 347.875 C 154.019531 347.878906 166.296875 347.917969 178.574219 347.957031 C 203.835938 348.035156 229.09375 348.074219 254.351562 348.089844 C 255.046875 356.863281 255.46875 365.53125 255.324219 374.34375 C 227.160156 374.472656 198.992188 374.566406 170.824219 374.625 C 168.222656 374.632812 165.617188 374.636719 163.011719 374.644531 C 162.363281 374.644531 161.71875 374.644531 161.050781 374.648438 C 151.230469 374.671875 141.410156 374.707031 131.589844 374.753906 C 120.191406 374.808594 108.789062 374.84375 97.390625 374.859375 C 91.355469 374.863281 85.320312 374.882812 79.285156 374.921875 C 73.597656 374.957031 67.914062 374.96875 62.230469 374.960938 C 60.148438 374.964844 58.066406 374.972656 55.984375 374.996094 C 34.394531 375.203125 34.394531 375.203125 26.429688 366.984375 C 19.929688 359.5625 19.058594 350.804688 19.113281 340.878906 C 19.109375 339.738281 19.101562 338.597656 19.097656 337.425781 C 19.082031 333.617188 19.089844 329.808594 19.097656 326.003906 C 19.089844 323.265625 19.085938 320.53125 19.078125 317.796875 C 19.0625 311.144531 19.058594 304.496094 19.0625 297.847656 C 19.066406 292.441406 19.066406 287.035156 19.0625 281.628906 C 19.058594 280.472656 19.058594 280.472656 19.058594 279.292969 C 19.058594 277.726562 19.054688 276.160156 19.054688 274.597656 C 19.042969 259.929688 19.046875 245.261719 19.058594 230.597656 C 19.066406 217.1875 19.054688 203.777344 19.03125 190.367188 C 19.007812 176.585938 19 162.804688 19.003906 149.023438 C 19.007812 141.292969 19.007812 133.558594 18.988281 125.828125 C 18.972656 118.558594 18.976562 111.289062 18.996094 104.019531 C 19 101.351562 18.996094 98.6875 18.988281 96.019531 C 18.972656 92.375 18.984375 88.734375 19.003906 85.09375 C 18.992188 84.039062 18.984375 82.984375 18.972656 81.898438 C 19.054688 73.71875 20.902344 68.089844 25.582031 61.816406 C 26.464844 60.984375 27.351562 60.148438 28.261719 59.289062 C 28.742188 58.820312 29.222656 58.351562 29.714844 57.867188 C 36.125 52.46875 42.9375 53.0625 50.640625 53.148438 C 52.113281 53.144531 53.585938 53.136719 55.058594 53.128906 C 58.214844 53.117188 61.371094 53.121094 64.527344 53.136719 C 69.519531 53.164062 74.511719 53.152344 79.503906 53.132812 C 88.292969 53.105469 97.085938 53.113281 105.878906 53.125 C 119.125 53.148438 132.371094 53.140625 145.617188 53.105469 C 150.578125 53.09375 155.542969 53.097656 160.503906 53.117188 C 163.589844 53.125 166.671875 53.121094 169.757812 53.113281 C 171.1875 53.109375 172.617188 53.117188 174.046875 53.125 C 176 53.140625 177.949219 53.132812 179.902344 53.125 C 180.996094 53.125 182.085938 53.128906 183.210938 53.128906 C 186.660156 52.652344 188.335938 51.949219 191.007812 49.441406 C 191.972656 46.914062 192.9375 44.386719 193.929688 41.785156 C 201.648438 41.785156 209.367188 41.785156 217.320312 41.785156 C 217.960938 39.617188 218.605469 37.453125 219.269531 35.222656 C 222.828125 30.183594 227.683594 30.054688 232.910156 31.9375 Z M 232.910156 31.9375 "/>
<path style=" stroke:none;fill-rule:nonzero;fill:rgb(88.235294%,83.529412%,72.54902%);fill-opacity:1;" d="M 108.183594 449.3125 C 108.953125 449.296875 109.722656 449.28125 110.515625 449.265625 C 113.085938 449.21875 115.65625 449.199219 118.226562 449.175781 C 120.070312 449.148438 121.917969 449.117188 123.761719 449.089844 C 129.816406 448.996094 135.871094 448.941406 141.925781 448.890625 C 143.472656 448.875 143.472656 448.875 145.050781 448.859375 C 154.785156 448.773438 164.519531 448.695312 174.25 448.648438 C 186.683594 448.589844 199.113281 448.46875 211.546875 448.269531 C 220.296875 448.132812 229.046875 448.0625 237.800781 448.042969 C 243.023438 448.03125 248.246094 447.988281 253.464844 447.875 C 258.382812 447.769531 263.296875 447.746094 268.210938 447.785156 C 270.011719 447.785156 271.808594 447.757812 273.605469 447.695312 C 286.746094 447.265625 286.746094 447.265625 291.210938 451.515625 C 296.707031 458.453125 299.847656 466.527344 303.078125 474.984375 C 232.96875 474.984375 162.863281 474.984375 90.632812 474.984375 C 90.632812 459.671875 90.632812 459.671875 92.214844 455.636719 C 96.996094 450.410156 101.699219 449.335938 108.183594 449.3125 Z M 108.183594 449.3125 "/>
<path style=" stroke:none;fill-rule:nonzero;fill:rgb(56.862745%,62.352941%,65.098039%);fill-opacity:1;" d="M 170.542969 396.222656 C 200.128906 396.222656 229.714844 396.222656 260.199219 396.222656 C 262.449219 401.996094 264.699219 407.773438 267.019531 413.726562 C 269.734375 418.679688 269.734375 418.679688 272.589844 423.527344 C 273.839844 425.757812 273.839844 425.757812 273.839844 427.945312 C 239.753906 427.945312 205.664062 427.945312 170.542969 427.945312 C 170.542969 417.476562 170.542969 407.007812 170.542969 396.222656 Z M 170.542969 396.222656 "/>
<path style=" stroke:none;fill-rule:nonzero;fill:rgb(0.784314%,0.784314%,1.176471%);fill-opacity:1;" d="M 177.382812 141.71875 C 178.363281 141.710938 179.34375 141.699219 180.351562 141.691406 C 183.589844 141.667969 186.824219 141.683594 190.058594 141.699219 C 192.308594 141.695312 194.5625 141.691406 196.8125 141.683594 C 201.53125 141.675781 206.25 141.6875 210.964844 141.714844 C 217.011719 141.746094 223.054688 141.726562 229.097656 141.695312 C 233.746094 141.675781 238.394531 141.679688 243.046875 141.695312 C 245.273438 141.699219 247.5 141.695312 249.730469 141.683594 C 252.847656 141.667969 255.960938 141.6875 259.078125 141.71875 C 259.996094 141.707031 260.917969 141.695312 261.863281 141.6875 C 266.140625 141.761719 269.054688 141.992188 272.464844 145.050781 C 274.875 147.964844 275.601562 148.929688 275.484375 152.820312 C 275.253906 156.820312 274.835938 157.714844 272.5 161.023438 C 269.347656 163.71875 267.886719 164.441406 264.019531 164.46875 C 262.769531 164.480469 262.769531 164.480469 261.5 164.492188 C 260.125 164.496094 260.125 164.496094 258.726562 164.5 C 257.765625 164.507812 256.800781 164.515625 255.8125 164.519531 C 252.617188 164.542969 249.425781 164.554688 246.230469 164.566406 C 245.144531 164.570312 244.054688 164.574219 242.933594 164.582031 C 237.171875 164.601562 231.410156 164.617188 225.644531 164.628906 C 219.6875 164.640625 213.730469 164.679688 207.773438 164.722656 C 203.199219 164.75 198.621094 164.761719 194.046875 164.765625 C 191.851562 164.769531 189.652344 164.78125 187.457031 164.800781 C 184.382812 164.828125 181.3125 164.828125 178.238281 164.820312 C 177.332031 164.835938 176.421875 164.847656 175.484375 164.863281 C 171.367188 164.824219 169.179688 164.714844 165.613281 162.222656 C 163.03125 159.09375 162.542969 157.199219 162.378906 153.023438 C 162.332031 152.195312 162.285156 151.363281 162.234375 150.507812 C 163.984375 141.5625 170.714844 141.640625 177.382812 141.71875 Z M 177.382812 141.71875 "/>
<path style=" stroke:none;fill-rule:nonzero;fill:rgb(1.960784%,2.352941%,2.352941%);fill-opacity:1;" d="M 180.925781 263.128906 C 182.242188 263.125 183.554688 263.121094 184.871094 263.113281 C 187.617188 263.105469 190.367188 263.117188 193.117188 263.140625 C 196.632812 263.171875 200.148438 263.15625 203.664062 263.121094 C 206.375 263.101562 209.089844 263.109375 211.800781 263.121094 C 213.726562 263.128906 215.648438 263.113281 217.574219 263.09375 C 227.273438 263.238281 227.273438 263.238281 230.292969 266.480469 C 232.472656 270.25 232.632812 272.433594 232.425781 276.8125 C 231.644531 280.585938 229.738281 282.351562 227.066406 284.640625 C 224.546875 286.050781 222.703125 285.894531 219.886719 285.925781 C 218.792969 285.941406 217.703125 285.957031 216.574219 285.96875 C 215.390625 285.976562 214.203125 285.984375 212.980469 285.996094 C 211.15625 286.007812 211.15625 286.007812 209.292969 286.019531 C 206.714844 286.035156 204.136719 286.046875 201.558594 286.054688 C 198.261719 286.070312 194.96875 286.105469 191.675781 286.148438 C 188.523438 286.183594 185.371094 286.191406 182.222656 286.199219 C 180.453125 286.226562 180.453125 286.226562 178.648438 286.257812 C 172.453125 286.238281 168.359375 286.210938 163.71875 281.359375 C 162.613281 278.871094 162.488281 277.21875 162.378906 274.453125 C 162.332031 273.621094 162.285156 272.792969 162.234375 271.933594 C 162.820312 268.949219 163.757812 267.140625 165.730469 265.027344 C 170.21875 262.234375 175.945312 263.085938 180.925781 263.128906 Z M 180.925781 263.128906 "/>
<path style=" stroke:none;fill-rule:nonzero;fill:rgb(0.784314%,0.784314%,1.176471%);fill-opacity:1;" d="M 181.355469 201.945312 C 182.589844 201.945312 183.828125 201.945312 185.097656 201.945312 C 187.707031 201.949219 190.308594 201.964844 192.914062 202 C 196.246094 202.042969 199.578125 202.050781 202.910156 202.042969 C 206.101562 202.035156 209.289062 202.058594 212.480469 202.082031 C 214.269531 202.082031 214.269531 202.082031 216.09375 202.082031 C 217.207031 202.097656 218.320312 202.117188 219.464844 202.132812 C 220.441406 202.144531 221.417969 202.152344 222.421875 202.164062 C 225.597656 202.671875 227.414062 203.753906 229.988281 205.875 C 232.382812 209.910156 232.613281 213.222656 231.9375 217.910156 C 229.867188 221.675781 228.867188 223.070312 225.117188 224.472656 C 223.308594 224.597656 221.496094 224.65625 219.6875 224.683594 C 218.574219 224.703125 217.460938 224.71875 216.316406 224.738281 C 211.234375 224.785156 206.148438 224.832031 201.066406 224.855469 C 198.386719 224.871094 195.703125 224.902344 193.023438 224.945312 C 189.15625 225.011719 185.292969 225.03125 181.425781 225.046875 C 180.226562 225.070312 179.03125 225.09375 177.796875 225.121094 C 168.523438 225.09375 168.523438 225.09375 164.914062 221.875 C 162.582031 218.785156 161.949219 217.527344 162.015625 213.535156 C 162 212.632812 161.984375 211.726562 161.96875 210.796875 C 162.878906 207.589844 164.195312 205.847656 166.53125 203.757812 C 171.078125 201.1875 176.382812 201.871094 181.355469 201.945312 Z M 181.355469 201.945312 "/>
<path style=" stroke:none;fill-rule:nonzero;fill:rgb(1.176471%,1.176471%,1.176471%);fill-opacity:1;" d="M 114.226562 202.269531 C 116.191406 202.253906 118.15625 202.203125 120.121094 202.15625 C 121.992188 202.140625 121.992188 202.140625 123.902344 202.128906 C 125.613281 202.105469 125.613281 202.105469 127.359375 202.078125 C 131.265625 202.703125 133.371094 204.230469 136.433594 206.96875 C 137.996094 210.476562 137.886719 214.105469 137.40625 217.910156 C 135.335938 221.675781 134.339844 223.070312 130.585938 224.472656 C 126.441406 224.769531 122.292969 224.816406 118.144531 224.855469 C 116.777344 224.875 115.414062 224.902344 114.046875 224.945312 C 112.070312 225.003906 110.097656 225.03125 108.117188 225.046875 C 106.9375 225.066406 105.757812 225.089844 104.542969 225.109375 C 100.464844 224.296875 99.066406 222.542969 96.476562 219.003906 C 95.0625 215.828125 95.140625 213.78125 95.503906 210.25 C 100.367188 201.433594 105.714844 202.328125 114.226562 202.269531 Z M 114.226562 202.269531 "/>
<path style=" stroke:none;fill-rule:nonzero;fill:rgb(0.784314%,0.784314%,1.176471%);fill-opacity:1;" d="M 113.722656 142.164062 C 115.769531 142.152344 117.8125 142.121094 119.859375 142.085938 C 121.167969 142.078125 122.476562 142.074219 123.785156 142.066406 C 124.972656 142.058594 126.15625 142.046875 127.378906 142.039062 C 130.890625 142.464844 132.667969 143.324219 135.460938 145.707031 C 137.878906 149.785156 137.777344 151.820312 137.40625 156.648438 C 135.753906 160.828125 134.355469 162.671875 130.585938 164.304688 C 126.574219 164.761719 122.570312 164.757812 118.539062 164.773438 C 116.589844 164.785156 114.644531 164.839844 112.695312 164.894531 C 102.171875 164.960938 102.171875 164.960938 98.570312 161.679688 C 95.324219 157.269531 95.070312 154.726562 95.503906 148.992188 C 100.238281 140.839844 105.832031 142.1875 113.722656 142.164062 Z M 113.722656 142.164062 "/>
<path style=" stroke:none;fill-rule:nonzero;fill:rgb(0.784314%,0.784314%,1.176471%);fill-opacity:1;" d="M 114.554688 263.472656 C 116.019531 263.453125 117.484375 263.425781 118.953125 263.382812 C 121.070312 263.320312 123.1875 263.296875 125.304688 263.28125 C 126.574219 263.261719 127.84375 263.238281 129.152344 263.214844 C 133.40625 264.019531 134.816406 265.519531 137.40625 269.324219 C 138.019531 273.648438 138.351562 276.265625 136.371094 280.058594 C 134.652344 282.449219 133.046875 284.351562 130.585938 285.734375 C 126.125 286.0625 121.65625 286.039062 117.1875 286.074219 C 115.941406 286.105469 114.699219 286.140625 113.417969 286.171875 C 102.019531 286.257812 102.019531 286.257812 97.453125 281.359375 C 95.167969 277.859375 95.039062 274.675781 95.503906 270.417969 C 100.4375 262.113281 106.421875 263.546875 114.554688 263.472656 Z M 114.554688 263.472656 "/>
<path style=" stroke:none;fill-rule:nonzero;fill:rgb(0.784314%,1.176471%,1.176471%);fill-opacity:1;" d="M 232.910156 31.9375 C 235.742188 34.597656 237.550781 36.453125 238.03125 40.691406 C 237.800781 44.867188 236.949219 47.035156 234.738281 50.46875 C 231.347656 53.199219 229.277344 53.816406 225.117188 53.816406 C 221.632812 52.082031 220.425781 50.847656 218.292969 47.253906 C 217.402344 43.101562 216.960938 40.582031 218.414062 36.589844 C 222.570312 30.988281 226.796875 29.480469 232.910156 31.9375 Z M 232.910156 31.9375 "/>
</g>
</svg>
