<svg xmlns="http://www.w3.org/2000/svg" width="512" height="512" viewBox="0 0 512 512">
  <path fill="#dfccc6" fill-rule="evenodd" d="M172 42.5c1 1.3 1.5 4.3 1.5 10.9 0 7.8-.4 10-2.7 14.8-1.5 3.2-4 7.4-5.5 9.5-3.8 5-13.3 11-19.9 12.4-5.2 1.2-5.6 1.1-8.2-1.2l-2.7-2.4 2.5 2.8a36 36 0 0 0 8.7 5.9c15.4 7.5 33.5 1 40.5-14.6a33 33 0 0 0-.1-24.3 36 36 0 0 0-13.2-14.4c-2.3-1.2-2.3-1.1-.9.6m227.7 98.2c.4 1.5.8 6.4.7 10.8 0 9.8-3 17-10 24.4a42 42 0 0 1-18.8 11.1c-4.4 0-5 1.6-1.4 3.7a27.6 27.6 0 0 0 17.7 4 28.8 28.8 0 0 0 27.6-29.1c0-4-.6-8.7-1.4-10.6-2.3-5.6-7-11.7-11.3-14.5L399 138l.8 2.8m-151.4-.3a37.7 37.7 0 0 1-26.6 46.1c-7 2-6.5 3.3 2 6.5a30 30 0 0 0 38-15.7c2.2-4.8 2.5-6.5 2.1-13.7-.3-6.6-1-9.2-3-12.8-4-6.7-14.4-15.5-12.5-10.4"/>
  <path fill="#b7928c" fill-rule="evenodd" d="M307.8 38.7c1.2.2 3.2.2 4.4 0 1.3-.2.3-.4-2.2-.4s-3.5.2-2.3.4m16.5 6c.6 2.1.8 7.2.6 11.5a36.5 36.5 0 0 1-21.3 31.4c-7.8 3.6-12 4.1-14.8 1.8-1.3-1-.8-.4 1.1 1.3a26.8 26.8 0 0 0 20.2 7.8 29 29 0 0 0 27-16.2c3.7-7.3 4-18.4.8-25.5a32.1 32.1 0 0 0-11.6-14l-3-1.8 1 3.7M95.6 138.4c1.7 1.3 1.9 2.7 1.9 11.8 0 9.3-.3 10.9-2.8 16a39.6 39.6 0 0 1-26.2 21l-4.8 1.1 2.4 1.8c4 3 10.8 4.9 17.8 4.9a29.9 29.9 0 0 0 27.5-40.3 36.3 36.3 0 0 0-12.8-15.6c-3.8-2.4-6-2.8-3-.7m-34.2 5.8-2.9 3.3 3.3-3a25 25 0 0 0 3.2-3.2c0-.8-.8 0-3.6 3m303.8 66.4c11.5.2 30.1.2 41.6 0 11.4-.1 2-.2-20.8-.2s-32.2 0-20.8.2m19.6 41c1.2.2 3.2.2 4.4 0 1.3-.2.3-.4-2.2-.4s-3.5.2-2.3.4m12 0c1.3.2 3.3.2 4.6 0 1.2-.2.2-.4-2.3-.4s-3.5.2-2.3.4"/>
  <path fill="#b7928c" fill-rule="evenodd" d="M307.8 38.7c1.2.2 3.2.2 4.4 0 1.3-.2.3-.4-2.2-.4s-3.5.2-2.3.4m16.5 6c.6 2.1.8 7.2.6 11.5a36.5 36.5 0 0 1-21.3 31.4c-7.8 3.6-12 4.1-14.8 1.8-1.3-1-.8-.4 1.1 1.3a26.8 26.8 0 0 0 20.2 7.8 29 29 0 0 0 27-16.2c3.7-7.3 4-18.4.8-25.5a32.1 32.1 0 0 0-11.6-14l-3-1.8 1 3.7M95.6 138.4c1.7 1.3 1.9 2.7 1.9 11.8 0 9.3-.3 10.9-2.8 16a39.6 39.6 0 0 1-26.2 21l-4.8 1.1 2.4 1.8c4 3 10.8 4.9 17.8 4.9a29.9 29.9 0 0 0 27.5-40.3 36.3 36.3 0 0 0-12.8-15.6c-3.8-2.4-6-2.8-3-.7m-34.2 5.8-2.9 3.3 3.3-3a25 25 0 0 0 3.2-3.2c0-.8-.8 0-3.6 3m303.8 66.4c11.5.2 30.1.2 41.6 0 11.4-.1 2-.2-20.8-.2s-32.2 0-20.8.2m19.6 41c1.2.2 3.2.2 4.4 0 1.3-.2.3-.4-2.2-.4s-3.5.2-2.3.4m12 0c1.3.2 3.3.2 4.6 0 1.2-.2.2-.4-2.3-.4s-3.5.2-2.3.4"/>
  <path fill="#ccb787" fill-rule="evenodd" d="m136.8 247.5-.3 32.7-3.3 2.9-3.2 2.9H14.9l.3 6.8.3 6.7 67.8.3 67.7.2v-32.2c0-18-.4-33.9-1-35.8-1.4-5-6.2-12.3-9.8-14.9L137 215l-.3 32.6"/>
  <path fill="#f2bd94" fill-rule="evenodd" d="M287.8 245c.2 25.6 0 31.5-1.2 34.5-2.8 6.6-2 6.5-64 6.5H167l-.3-24.3c-.2-24-.2-23.9-.5 7L166 300h15.4c14 0 15.6.2 18 2 1.4 1.2 2.6 3 2.6 4 0 1.9.8 2 10.5 2s10.5-.1 10.5-2c0-1 1.2-2.8 2.6-4 2.6-2 3.8-2 37.3-2h34.6l2.8-3.5 2.8-3.6-.3-29.7c-.3-28.5-.4-29.9-2.6-34.7a39 39 0 0 0-6-8.8c-7.1-7.4-6.7-9-6.4 25.4"/>
  <path fill="#a1a5b7" fill-rule="evenodd" d="M337.7 212.4A30 30 0 0 0 319 232c-.5 2-1 13-1 24.7V278l7.4-5.3a118.8 118.8 0 0 1 118.9-9.8l9.9 4.8-.4-17.5c-.3-15.8-.6-18-2.7-22.3a31.3 31.3 0 0 0-15.8-14.8c-5-1.9-7.8-2-49.6-2-34.6 0-45 .4-48 1.4"/>
  <path fill="#869179" fill-rule="evenodd" d="M156.3 38.7c1.5.2 3.7.2 5 0 1.2-.2 0-.4-2.8-.4s-3.8.2-2.2.4M262 115.5c-2.5.8-6 2.7-8 4.3l-3.4 2.9 5 2.4a49 49 0 0 1 19.4 20 44.7 44.7 0 0 1-2.9 45l-2.8 4.6 8.6 1.1a44 44 0 0 1 26.8 13l5.5 5.4 5.5-5.5a44.7 44.7 0 0 1 26.6-13l8.6-1.2-3.5-5.5a42.1 42.1 0 0 1-6.6-24.5 43.8 43.8 0 0 1 22.8-38.7l5.7-3.2-3.3-2.7c-6.8-5.8-8.3-6-56-5.8-34.2 0-44.5.3-48 1.4m-147 18a19 19 0 0 0 3.9 3.5c.3 0-1-1.6-2.9-3.5a19 19 0 0 0-3.9-3.5c-.3 0 1 1.6 2.9 3.5m97.4 10.8-2.9 3.2 3.3-3c3-2.7 3.7-3.5 2.9-3.5a25 25 0 0 0-3.3 3.3m-84.1 21.2c0 2.8.2 3.8.4 2.2a18 18 0 0 0 0-5c-.2-1.2-.4 0-.4 2.8m136 0c0 2.8.2 3.8.4 2.2a18 18 0 0 0 0-5c-.2-1.2-.4 0-.4 2.8m91-.5c0 2 .1 2.7.4 1.8.2-1 .2-2.6 0-3.6-.3-1-.5-.1-.5 1.8m-236 30.7c1.6.2 4 .2 5.5 0 1.6-.2.3-.4-2.7-.4s-4.3.2-2.8.4m74 0c1.6.2 3.8.2 5 0 1.3-.2 0-.4-2.7-.4-2.8 0-3.8.2-2.2.4m-130.6 15c11.2.2 29.4.2 40.5 0 11.2-.1 2-.2-20.2-.2-22.3 0-31.4 0-20.3.2m151.5 0c10.8.2 28.8.2 40 0 11.2-.1 2.3-.2-19.7-.2s-31.1 0-20.3.2m175.5 56c1.8.2 5 .2 7 0 2.1-.2.7-.4-3.2-.4-3.9 0-5.5.2-3.8.4m-70.2 30.6-5 5.2 5.3-5c4.8-4.6 5.7-5.5 5-5.5a70 70 0 0 0-5.3 5.3m68.8.4c3.2.2 8.1.2 11 0 2.9-.2.3-.3-5.8-.3-6 0-8.4.1-5.2.3m13.1 33.8c0 10.4.2 14.6.3 9.2.2-5.4.2-14 0-19-.1-5-.3-.6-.3 9.8m-58.6 15.2c5 .2 13.4.2 18.4 0 5.1-.1 1-.3-9.2-.3s-14.3.2-9.3.3m83 0c5.1.2 13.5.2 18.6 0 5-.1.9-.3-9.3-.3-10.2 0-14.3.2-9.3.3m24.5 23-.2 8.3-19.3.3-19.2.2 19.3.3c15.4.2 19.4 0 19.8-1.1.3-.8.3-4.7.1-8.8l-.3-7.4-.2 8.2m-104.4 9c5.7.2 14.7.2 20 0 5.3-.1.7-.3-10.3-.3s-15.4.2-9.7.3m55.4 29.5L401 427l-8.3.4-8.2.3 8.3.2c6 .1 8.4-.2 8.8-1 .2-.8.3-9.5.1-19.3l-.2-18-.3 18.7m-58.9-14.5c5.4.2 14 .2 19 0 5-.1.6-.3-9.8-.3s-14.6.2-9.2.3m84 0c5.4.2 14 .2 19 0 5-.1.6-.3-9.8-.3s-14.6.2-9.2.3m-38.5 49c3.4.2 8.8.2 12 0 3.1-.2.3-.3-6.3-.3s-9.2.1-5.7.3m2 31c2.3.2 6 .2 8 0s.1-.4-4.3-.4c-4.4 0-6 .2-3.7.4"/>
  <path fill="#e1d4a8" fill-rule="evenodd" d="M35 212.6c-2.6.7-6.8 3.2-9.3 5.4a31.3 31.3 0 0 0-10.3 22.3c-.6 6.7-1 8-3.2 9.7a9 9 0 0 1-3.8 2c-1 0-1.4 2.1-1.4 9.5s.3 9.5 1.4 9.5c.7 0 2.5 1 4 2 2.2 1.9 2.6 2.9 2.6 7.6v5.4h115l3.2-3 3.3-2.8v-65.6l-4.5-1.8c-4-1.5-9.2-1.7-48.5-1.7-35 0-45 .3-48.6 1.5"/>
  <path fill="#ddbba9" fill-rule="evenodd" d="M148.3 40.6c-5.7 2-12.9 8.7-16 14.7a29 29 0 0 0 3.5 31.8l3.9 4.3 5.6-1.3a41.7 41.7 0 0 0 20-12.4 41 41 0 0 0 8-31.2c-.7-3.2-1.6-4.4-4.3-5.7a34 34 0 0 0-20.7-.2m78.7 95.7a28.9 28.9 0 0 0-21.8 26.9 27.6 27.6 0 0 0 6.6 20.9l3.8 4.2 6-1.7a37.6 37.6 0 0 0 27.5-30.7c.9-5 .9-7.7 0-12-1-5-1.6-5.9-4.3-6.8-5.2-1.8-13-2.2-17.8-.8m152.5-.4c-19.3 5-29.1 26.1-20 42.9a38 38 0 0 0 5 7.2c2 1.9 2.7 2 7 1a38.3 38.3 0 0 0 29.2-33.7c.8-9.6-.8-14.8-4.9-16.2a37.5 37.5 0 0 0-16.3-1.2m5.5 196.7c0 21.7-.5 24-6.3 27.4-2.9 1.8-5.1 2-23 2H336v16h19c21.4 0 24.6.7 28 6.2 1.8 3 2 5 2 23V427h16v-18.5c0-20.1.6-23 5.4-27.5 2.7-2.5 3-2.5 23.2-2.8l20.4-.3V362l-20.4-.3c-20.2-.3-20.5-.3-23.2-2.8-4.8-4.5-5.4-7.4-5.4-27.5V313h-16v19.6"/>
  <path fill="#bb7e70" fill-rule="evenodd" d="M297.2 42a27.8 27.8 0 0 0-16.6 26.5c0 7.8 2.1 13.7 7 19.4 2.4 3 3.2 3.3 6.5 2.8 2-.3 6.2-1.6 9.3-3a36.5 36.5 0 0 0 21.4-31.5c.6-10.7-.5-14.2-4.8-15.8a38 38 0 0 0-10-1.3c-5.5 0-7.7.4-12.8 3M76.7 136a29.7 29.7 0 0 0-23 29.4c0 7.7 1.4 11.6 6.3 18.3 3 4.2 3.4 4.4 6.8 3.7 6.5-1.1 16-6.2 20.6-11 6.5-6.6 9.8-14 10.4-23 .6-10.4-.2-14.2-3.8-16a32 32 0 0 0-17.3-1.5"/>
  <path fill="#e3d8c0" fill-rule="evenodd" d="M112.8 115.4c-2.6.7-6.6 2.5-8.9 4l-4.2 2.8 5.4 3a46.1 46.1 0 0 1 16 65.3l-3 4.5h3.9a46 46 0 0 1 31.2 13l5.7 5.7 5.2-5.3a44.8 44.8 0 0 1 30.6-13.4c2.4 0 4.3-.2 4.3-.4 0-.3-1.3-2.4-3-4.8a46.7 46.7 0 0 1-.2-48.8 52 52 0 0 1 13.4-13.8c2.3-1.3 2.8-2.3 2.8-5.5 0-3.4-.4-4-3.8-5.5-3.3-1.5-8.7-1.7-47.2-2-33 0-44.6.2-48.2 1.2m260 153.6a103.5 103.5 0 0 0-79.5 75.8 76.6 76.6 0 0 0-2.6 25.2 78 78 0 0 0 2.6 25.5 156 156 0 0 0 8.2 21.3c5.7 11.6 6 13.7 2.8 17.3-1.5 1.8-.3 3.8 7.5 12.1 3.2 3.4 3.7 3.6 5.6 2.2 3.5-2.4 6-1.6 14.4 4.5a135 135 0 0 0 15.7 9.6l7.7 3.8 13.6-.6a98.3 98.3 0 0 0 23.4-3 111.5 111.5 0 0 0 75-66.6c14-35.2 8.5-77.2-14.2-107.2-5.5-7.3-11.8-11.3-25.8-16.3-16-5.7-37.7-7.1-54.4-3.6m6.7 28.7c-3.2.9-6.5 3.4-8 6.4-1.2 2.2-1.5 7.2-1.5 22.3v19.5l-20.3.3c-28.3.4-28.7.7-28.7 24 0 12.6.3 14.7 2 17.6 3.4 5.5 6.6 6.2 28 6.2h19v19.8c0 18 .2 20 2 23 3.1 5 7 6.2 21.5 6.2 10.5 0 13.2-.3 16.4-2 6.4-3.2 7.1-6 7.1-27.9V394h19c29 0 30.4-1.2 29.8-25.5-.3-13.7-.4-14.5-2.8-17-4.5-5-7.4-5.5-27.4-5.5H417l-.3-20.4c-.3-20.2-.3-20.5-2.8-23.2-4.2-4.5-7.8-5.4-20.7-5.3-6.5 0-12.7.4-13.8.6"/>
  <path fill="#e3d8c0" fill-rule="evenodd" d="M112.8 115.4c-2.6.7-6.6 2.5-8.9 4l-4.2 2.8 5.4 3a46.1 46.1 0 0 1 16 65.3l-3 4.5h3.9a46 46 0 0 1 31.2 13l5.7 5.7 5.2-5.3a44.8 44.8 0 0 1 30.6-13.4c2.4 0 4.3-.2 4.3-.4 0-.3-1.3-2.4-3-4.8a46.7 46.7 0 0 1-.2-48.8 52 52 0 0 1 13.4-13.8c2.3-1.3 2.8-2.3 2.8-5.5 0-3.4-.4-4-3.8-5.5-3.3-1.5-8.7-1.7-47.2-2-33 0-44.6.2-48.2 1.2m260 153.6a103.5 103.5 0 0 0-79.5 75.8 76.6 76.6 0 0 0-2.6 25.2 78 78 0 0 0 2.6 25.5 156 156 0 0 0 8.2 21.3c5.7 11.6 6 13.7 2.8 17.3-1.5 1.8-.3 3.8 7.5 12.1 3.2 3.4 3.7 3.6 5.6 2.2 3.5-2.4 6-1.6 14.4 4.5a135 135 0 0 0 15.7 9.6l7.7 3.8 13.6-.6a98.3 98.3 0 0 0 23.4-3 111.5 111.5 0 0 0 75-66.6c14-35.2 8.5-77.2-14.2-107.2-5.5-7.3-11.8-11.3-25.8-16.3-16-5.7-37.7-7.1-54.4-3.6m6.7 28.7c-3.2.9-6.5 3.4-8 6.4-1.2 2.2-1.5 7.2-1.5 22.3v19.5l-20.3.3c-28.3.4-28.7.7-28.7 24 0 12.6.3 14.7 2 17.6 3.4 5.5 6.6 6.2 28 6.2h19v19.8c0 18 .2 20 2 23 3.1 5 7 6.2 21.5 6.2 10.5 0 13.2-.3 16.4-2 6.4-3.2 7.1-6 7.1-27.9V394h19c29 0 30.4-1.2 29.8-25.5-.3-13.7-.4-14.5-2.8-17-4.5-5-7.4-5.5-27.4-5.5H417l-.3-20.4c-.3-20.2-.3-20.5-2.8-23.2-4.2-4.5-7.8-5.4-20.7-5.3-6.5 0-12.7.4-13.8.6"/>
  <path fill="#f0c8a9" fill-rule="evenodd" d="M212 121.4c0 4 .4 4.2 3.9 2.2l2.3-1.3-3-2.2-3.2-2.2v3.5m-25.1 91c-8.7 3.1-13.9 8-17.8 16.6-1.9 4.2-2 6.5-2 30.8L167 286h55.5c62 0 61.3 0 64-6.4 1.2-2.8 1.5-9.5 1.5-34V215l-3.3-1.8c-3-1.6-7.3-1.8-48.7-2-35.5-.2-46.3 0-49.1 1M450 284.8A112.3 112.3 0 0 1 467.1 396c-13.1 33-41 57.7-74.9 66.6-7 1.8-13.3 2.7-23.2 3l-13.5.6 5.4 1.8c21.3 7.3 49.3 6.5 70.6-2 32.5-13 55.2-40.2 63.2-75.6 2-9.4 2-31.6 0-41a107 107 0 0 0-31.8-55.9c-7-6.4-15-11.8-12.9-9"/>
  <path fill="#070707" fill-rule="evenodd" d="M144.8 25.3a45 45 0 0 0-31 36.4 47.1 47.1 0 0 0 8.2 34l2.2 3.3h-6.1c-11.8 0-26 7-33 16.4-3 4-3.8 4.4-8.4 4.8a45.7 45.7 0 0 0-36.3 29 48.9 48.9 0 0 0 6.2 43.6c1.6 2.2 1.6 2.2-2.8 2.2-2.4 0-7 .7-10.3 1.5-20 4.9-33.9 23-33.5 43.5 0 7.4.2 8.1 2.6 10 3.2 2.5 7 2 10.1-1.6 1.8-2 2.3-3.6 2.3-8.2a29 29 0 0 1 16.8-26.8l5.7-2.8h45c41.9 0 45.3.1 50 2 7 3 12.6 8.3 16.1 15 2.3 5 2.4 5.5 2.4 38.8V300l-67.8-.2-67.7-.3-.5-11.7c-.4-10-.8-12-2.5-13.7-3.2-3-6.9-3.4-9.9-1C0 275 0 275.3 0 288.6c0 9.1.4 14.5 1.4 16.7 1.7 4.2 6.6 8.3 11.4 9.7 2.4.6 35 1 94 1h90.4l3-3c3.4-3.4 3.1-7.1-.9-10.8-2.3-2-3.2-2.2-18-2.2H166l.3-33.8c.3-33 .4-33.8 2.6-38.4a32 32 0 0 1 15.1-14.7l5.6-2.6H234c41.5 0 44.8.1 49.5 2a34 34 0 0 1 16.6 15.8c2.3 5 2.4 6.2 2.7 35l.3 29.6-2.8 3.6-2.8 3.5h-34.7c-34.6 0-34.7 0-37.1 2.3-4 3.6-4.3 7.3-.8 10.7l3 3h29.6c23.4 0 29.6.3 29.2 1.3a118 118 0 0 0-.6 104.4c5.2 10.9 8.1 14.3 12.4 14.3 3.6 0 7.5-3.7 7.5-7 0-1-2.5-6.9-5.5-13.2a81.1 81.1 0 0 1-10-45.3c0-21.2 1.5-28.5 9.4-45a103.1 103.1 0 0 1 167.8-27.2 102.6 102.6 0 0 1 1.8 141.5 99 99 0 0 1-31 23.3 89.6 89.6 0 0 1-44.5 10.2c-23 .7-45.4-6.6-63.5-20.7-4-3.2-6.8-4.6-9-4.6-5.7-.2-9.4 6-6.5 11a92.8 92.8 0 0 0 23 16.4 118.8 118.8 0 0 0 174-98.8c.8-11.4.7-14.6-1.1-24.6-1.1-6.3-3.1-14.9-4.5-19a125 125 0 0 0-30.7-48.8L469 278l-.3-24.8-.3-24.7-3.3-6.9c-6.7-15-21-25-37.3-26.4l-6.9-.7 3-4.6c8.8-14.2 9.5-32 1.7-46.9-7.7-13-22.7-23-34.8-23-2.4 0-4.1-.6-4.7-1.6a49.8 49.8 0 0 0-18-15.2c-6-2.9-9-3.6-15.3-4l-7.9-.7c0-.2 1.6-2.6 3.5-5.5 4.8-7 7-14.8 7-24.5A45.5 45.5 0 1 0 273 95c1 1.5 2 3 2 3.3 0 .2-3.6.7-8 .9a41.2 41.2 0 0 0-27.6 13l-4.9 5.3-5-5.3a42.7 42.7 0 0 0-12.2-9c-4.8-2.7-10.3-4-15.8-4l-8.4-.4 2.4-3.2a46.7 46.7 0 0 0 4.6-46.3 45.6 45.6 0 0 0-55.3-24m4.4 14.6a30.3 30.3 0 1 0 36.3 43c2.7-4.9 3-6.3 3-14.4 0-8.1-.3-9.5-3-14.4a31.8 31.8 0 0 0-27-16c-2.2 0-6.4.8-9.3 1.8m154.3-1A31.7 31.7 0 0 0 282 57.8a31 31 0 0 0 8 33.3 28 28 0 0 0 20 7.4c11.4.4 22-6 27-16.2 3.7-7.3 4-18.4.8-25.5-2.7-6.6-7.7-12-14.1-15.3-5.6-2.7-15.2-4-20.2-2.6m-192.8 76.5c-2 .8-5.6 2.6-7.9 4.1l-4 2.7 5.3 3c8 4.3 15.4 12.1 19.7 20.7a31 31 0 0 1 4 17c.8 9.8-1.7 19.5-7.3 27.6l-3.4 5 8.4.6c11 .8 20.8 5.3 28.2 13.2l5 5.3 4.5-4.7A43 43 0 0 1 194 196c3.2 0 5.9-.2 5.9-.5a41 41 0 0 0-3-5.2c-9.2-14-10-31.7-2.3-46.5 3.8-7 11.8-15 18.3-18.3l5.4-2.8-3.3-2.8c-7-5.8-8.3-5.9-56.5-5.9-34.5 0-45 .4-47.9 1.4m150.7.2c-2.2.8-5.5 2.7-7.4 4.3l-3.4 2.8 5 2.4c7 3.5 15.5 12.2 19.2 19.9 7.4 15 6.4 30.9-2.7 45.2l-3 4.7 5.7.6c11.7.4 22.7 5.4 30.6 14l4.9 5 5.3-5.6c7.8-8 15.1-11.4 30.1-13.6l5.3-.8-3-4.6c-5-7.6-7.1-15.1-7.1-24.8 0-17 8-31 22.6-39.2 3-1.7 5.5-3.4 5.5-3.7 0-1.2-6.4-5-10.9-6.7-6.2-2.2-90.4-2.1-96.7.1M74 136.4A30.7 30.7 0 0 0 54.5 175a34 34 0 0 0 18 18.2 30.2 30.2 0 0 0 38.8-38.9 34.8 34.8 0 0 0-17.7-17.7c-5.8-2-14.6-2.1-19.7-.3m147.3 1.7a30.3 30.3 0 0 0 25 55.2 29.8 29.8 0 0 0 18.2-28.3 28 28 0 0 0-16.6-27 24 24 0 0 0-13.3-3c-6 0-8.2.5-13.3 3m154.5-1.6c-8.2 3-14.6 9.2-18 17.6a30 30 0 0 0 21.2 40.6 26 26 0 0 0 19.6-2c14.1-6.7 21-23 16-37.8a34 34 0 0 0-18-18.1c-5.8-2-15.5-2.1-20.8-.3M341.3 211a29.2 29.2 0 0 0-16 9.2c-6.9 7.6-7.4 10.1-7 35.6l.2 22.2 6.8-5c13-9.4 32.3-17.3 49.6-20 9.7-1.7 29.6-1.4 39.5.4 11 2.1 22 5.8 32 10.8l7.8 3.9-.4-18.3c-.3-16.7-.5-18.7-2.6-22.5-3.5-6.6-7.9-11-14-14l-5.7-2.8-43-.2c-23.6 0-44.9.2-47.2.7m34.9 89c-5.5 3.4-6.2 6.6-6.2 28v19h-19.8c-18 0-20 .2-23 2-5 3.1-6.2 7-6.2 21.8 0 11.8.2 13.2 2.3 16.3 3.7 5.5 5.2 5.9 27 5.9H370v19.9c0 19 .1 20 2.3 23.2 3.5 5.3 5.7 5.9 21 5.9 22.5 0 23-.6 23.5-29.3l.4-19.7h19.4c21.7 0 24-.5 27.1-6.3 2.6-11 2.6-22.4 0-33.4-3.1-5.8-5.4-6.3-27-6.3h-19.5l-.4-19.8c-.5-28.6-1-29.2-23.5-29.2-12 0-14.2.3-17.1 2m8.8 31.8c0 20.6-.7 23.5-6.3 27.6-2.6 2-4.5 2.1-22.8 2.4l-19.9.4V379h20.4c19.3 0 20.5.1 23 2.2 5 3.8 5.6 7 5.6 27.8v19l8.3-.2 8.2-.3.5-20.5c.5-21.5 1-23.8 5.3-26.2A92 92 0 0 1 430 379l20.5-.5.3-8.2.3-8.1-20.3-.4c-29.3-.5-28.8 0-28.8-29.3V313h-17v18.8M45.8 345.6c-1.3.3-13.7 14.3-21.5 24.2-.2.2-3.4-2.6-7.2-6.2-7.3-7-9.8-8-13.9-5.1-1.7 1.2-2.2 2.5-2.2 6.2 0 4.7.2 4.9 9.8 14.4 9.9 9.7 12.6 11.5 16.3 10.3 1.1-.4 8-8 15.5-16.8 13.3-16.2 14.6-18.4 12.8-23.2-.4-.8-2-2.2-3.5-3-2.9-1.5-3.2-1.6-6.1-.8m29.4 16.6c-2.8 3-2.9 8-.2 10.7 2 2 3.3 2 89.4 2H252l2-2.6c2.7-3.4 2.7-6.4 0-9.8l-2-2.6H77.3l-2.1 2.3m-29.4 36.4c-1.3.3-12.1 12.6-21.5 24.2-.2.3-3.3-2.4-6.8-6-5.6-5.4-7-6.3-10.1-6.3-4.4 0-7.4 3.1-7.4 7.8 0 2.7 1.6 4.7 10.3 13.3 10.3 10.2 13 12 16.8 10.8 1.1-.4 8-8 15.5-16.8 13.3-16.2 14.6-18.4 12.8-23.2-.4-.8-2-2.2-3.5-3-2.9-1.5-3.2-1.6-6.1-.8m29.4 16.6c-2.8 3-2.9 8-.2 10.7 2 2 3.3 2 89.4 2H252l2-2.6c2.7-3.4 2.7-6.4 0-9.8l-2-2.6H77.3l-2.1 2.3"/>
  <path d="M81.8 374.1c-6-.4-7-.9-8-4-.9-2.5-.3-4.9 1.6-7.5l1.6-2.2h175.1l1.7 2.5c2.3 3.3 2.3 5.5 0 8.9l-1.7 2.6h-82.4c-45.4 0-85-.1-87.9-.3zM121.1 412.7zM182 412.7zM197.7 412.7h3c.7.1 0 .2-1.5.2-1.6 0-2.3 0-1.5-.2zM22 388.3a133.2 133.2 0 0 1-18.3-17c-2.3-3-2.3-3.2-2.3-6.8 0-3.5.1-3.9 1.7-5.2 3.7-3.4 6-2.6 14.4 5A52 52 0 0 0 24 370c.4 0 1.5-1.1 2.7-2.5 4.1-5.2 13.9-16.3 16.6-19 3.3-3.2 4.7-3.5 8-1.8 4.9 2.4 5.6 5.6 2.4 10.8-3.1 5.3-16 20.7-24.1 29.2-3 3.1-4.3 3.4-7.6 1.7zM22.2 441.5a154.6 154.6 0 0 1-19.6-18.6c-1.7-2-2-3-2-5 0-4.2 2.6-7 6.9-7 3 0 4.2 1 10.8 7.2 3 2.8 5.7 5 6 4.9a546.5 546.5 0 0 1 15.6-18c6.2-7 7.4-7.6 11-5.7 4.8 2.5 6 5.6 3.5 10-2.7 5-20.3 26.4-26 31.5-2 1.8-3.6 2-6.2.7z" style="fill:#fca;stroke-width:.526895"/>
  <path d="M91.4 427.3c-7.5-.2-14.2-.6-14.9-.8-1.3-.4-3.3-3.8-3.3-5.6 0-1.7 1.8-5.2 3.3-6.6l1.3-1.2 87.1.1 87.1.1 1.8 2.6c2.4 3.5 2.3 5.5-.2 9.2l-1.9 2.7h-73.3c-40.3-.1-79.4-.3-87-.5z" style="fill:#c87137;stroke-width:.526895"/>
  <path d="M23.1 441.6A71 71 0 0 1 10 430.1c-8.1-8-9.2-9.4-9.2-12.2 0-4.2 2.7-6.7 7-6.5 2.9.2 3.7.7 9.6 6.1 5.1 4.7 6.6 5.8 7.1 5.5l8.5-9.6c9.5-11.2 13.1-14.7 14.9-14.7 1.6 0 4.8 1.6 6 3.1 2.8 3.3 1.9 6-5 14.9-9 11.5-19.9 23.8-22 24.9-1.4.7-2.2.7-3.8 0zM22.8 388.4c-2.1-1-7.5-5.7-13.5-11.7-6.8-6.7-7.5-7.8-7.7-11.5 0-1.8 0-3.4.4-4.1.5-1.3 3.6-3.6 4.9-3.6 1.5 0 4.2 1.7 8.5 5.5 6.9 6 8.4 7.1 9 7l7.3-8.2c8.8-10.3 14-15.6 15.6-16 1.8-.3 5 1.1 6.7 3 2.6 3 1.6 6-4.2 13.8A233 233 0 0 1 27 388.4c-1.5 1-2.4 1-4.3 0z" style="fill:#c87137;stroke-width:.395509"/>
  <path d="M80.5 373.8c-4.1-.4-5.5-1.1-6.4-3.4-1-2.5-.5-4.6 1.3-7.3L77 361l87.7-.1 87.6-.1 1.3 2.1c2.3 3.9 2.3 5.6-.1 9.2l-1.5 2.2-84.1-.1c-46.3 0-85.6-.2-87.3-.3z" style="fill:#deaa87;stroke-width:.395509"/>
  <path d="M85.5 426.8c-8.9-.3-8.9-.3-10.1-1.8-2.5-2.8-2.2-6.4 1-10l1.7-1.9 87 .4 87 .3 1.5 2.4c2 3 2 5.1 0 8.3l-1.6 2.6h-78.8c-43.4 0-82.8 0-87.7-.3zM23.4 441.3a118.2 118.2 0 0 1-21.8-21c-1.4-3.7.2-7.2 3.6-8.3 3.5-1 5.4 0 12.2 5.9 3.3 2.9 6.4 5.2 6.8 5.1.5 0 5.2-5 10.5-11.1 5.4-6.1 10.6-11.5 11.7-12.1l2-1.1 2.4 1.3c3 1.6 4.5 3.8 4.1 6-.4 2.5-3 6.3-9.6 14.6C35.4 433 27 442 25.3 442l-2-.7z" style="fill:#deaa87;stroke-width:.525629"/>
  <path d="M22 387.5A146.1 146.1 0 0 1 5.2 372c-2.7-3.4-3.1-4.3-3.1-7.8 0-2.9.1-3.2 1.9-4.7 3.1-2.8 4.2-2.3 13.5 5.5 3.2 2.8 6.2 5 6.6 4.8.5 0 3.4-3 6.6-6.7 3.2-3.6 8-8.9 10.9-11.8 4.4-4.5 5.3-5.2 6.7-5.1 2.3 0 5.5 2.2 6.3 4.3 1 2.3-.2 5.2-5 11.5-6.8 9.3-20.6 25-22.9 26.1-1.9 1-2 1-4.7-.7z" style="fill:#ac9d93;stroke-width:.525629"/>
  <path d="M120.8 359.9zM125.9 373.7c-41.5-.2-48-.3-49.1-.8-3.3-1.7-3.8-5.4-1.4-9.3l1.5-2.4h175.4l1.4 2.6c.7 1.5 1.3 3.1 1.3 3.6 0 1-1.2 3.7-2.5 5.6l-.8 1.1h-39l-86.8-.4zM84.3 426.5c-6.5-.2-7.4-.3-8.2-1a6 6 0 0 1-2-4.8c0-2 .8-3.6 2.8-5.8l1.3-1.6 84.4.3c46.4.1 85.6.3 87 .5 2.5.2 2.6.3 3.6 1.9.6 1 1.3 2.4 1.5 3.3.4 1.4.3 1.8-1.1 4.6l-1.6 3h-80.2c-44.2-.1-83.6-.2-87.5-.4z" style="fill:#ac9d93;stroke-width:.409314"/>
  <path d="M22.6 440.5a130.4 130.4 0 0 1-20.7-20.3c-1.8-3.7.4-7.5 4.7-8.2 2.2-.4 4.5.8 9.3 5l6.1 4.8 2.2 1.6 1.4-1.4 8.8-9.4c8.1-9 12-12.9 13.4-13.3 1-.3 2.8.5 5 2.5 3 2.7 2.6 4.8-1.8 11-6 8.2-20.2 25-23.5 27.6-2 1.5-2.8 1.6-4.9.1z" style="fill:#917c6f;stroke-width:.409314"/>
  <path d="M79 426c-4.7-.4-6.1-5.4-2.7-10l1.8-2.5 84.8.3c46.7.2 85.8.4 87 .6 1.8.2 2.4.6 3.2 1.9 1.8 2.9 1.8 4.1.3 7.3l-1.4 2.8h-85.4l-87.5-.3zM175.2 360.6zM21.8 387a126.7 126.7 0 0 1-17.6-16.7c-1.4-2-1.6-2.7-1.6-5.8 0-3.4 0-3.5 1.7-4.8 3-2.3 3.8-2 12.4 5 3 2.5 5.9 4.7 6.5 5 1.4.8.6 1.4 13.5-12.6 9-9.8 10.2-10.8 12.6-10.4a9 9 0 0 1 3.6 2.2c1.7 1.6 1.9 2 1.6 3.8-.3 2.6-3.1 7-10 15.6-9.5 11.6-18 20.5-19.8 20.5-.2 0-1.5-.8-2.9-1.9zM118.3 373.3c-37.8-.2-40.8-.3-42.1-1.1-2.4-1.6-2.6-5.1-.4-8.8l1.1-2h175.2l1.3 2.6c1.7 3.2 1.6 3.8-.1 7l-1.4 2.6h-46.4c-25.5 0-64.8-.1-87.2-.3z" style="fill:#917c6f;stroke-width:.515648"/>
</svg>