<?xml version="1.0" encoding="UTF-8"?>
<svg xmlns="http://www.w3.org/2000/svg" xmlns:xlink="http://www.w3.org/1999/xlink" width="500px" height="500px" viewBox="0 0 500 500" version="1.1">
<g id="surface1">
<path style=" stroke:none;fill-rule:evenodd;fill:rgb(87.45098%,80%,77.647059%);fill-opacity:1;" d="M 167.96875 41.503906 C 168.945312 42.773438 169.433594 45.703125 169.433594 52.148438 C 169.433594 59.765625 169.042969 61.914062 166.796875 66.601562 C 165.332031 69.726562 162.890625 73.828125 161.425781 75.878906 C 157.714844 80.761719 148.4375 86.621094 141.992188 87.988281 C 136.914062 89.160156 136.523438 89.0625 133.984375 86.816406 L 131.347656 84.472656 L 133.789062 87.207031 C 135.058594 88.671875 138.964844 91.308594 142.285156 92.96875 C 157.324219 100.292969 175 93.945312 181.835938 78.710938 C 184.863281 71.875 184.765625 61.914062 181.738281 54.980469 C 178.820312 49.195312 174.359375 44.328125 168.847656 40.917969 C 166.601562 39.746094 166.601562 39.84375 167.96875 41.503906 M 390.332031 137.402344 C 390.722656 138.867188 391.113281 143.652344 391.015625 147.949219 C 391.015625 157.519531 388.085938 164.550781 381.25 171.777344 C 376.660156 176.660156 366.699219 182.519531 362.890625 182.617188 C 358.59375 182.617188 358.007812 184.179688 361.523438 186.230469 C 366.679688 189.445312 372.769531 190.820312 378.808594 190.136719 C 393.996094 189.503906 405.933594 176.917969 405.761719 161.71875 C 405.761719 157.8125 405.175781 153.222656 404.394531 151.367188 C 402.148438 145.898438 397.558594 139.941406 393.359375 137.207031 L 389.648438 134.765625 L 390.429688 137.5 M 242.578125 137.207031 C 247.800781 156.808594 236.183594 176.9375 216.601562 182.226562 C 209.765625 184.179688 210.253906 185.449219 218.554688 188.574219 C 233.03125 194.074219 249.292969 187.359375 255.664062 173.242188 C 257.8125 168.554688 258.105469 166.894531 257.714844 159.863281 C 257.421875 153.417969 256.738281 150.878906 254.785156 147.363281 C 250.878906 140.820312 240.722656 132.226562 242.578125 137.207031 "/>
<path style=" stroke:none;fill-rule:evenodd;fill:rgb(71.764706%,57.254902%,54.901961%);fill-opacity:1;" d="M 300.585938 37.792969 C 301.757812 37.988281 303.710938 37.988281 304.882812 37.792969 C 306.152344 37.597656 305.175781 37.402344 302.734375 37.402344 C 300.292969 37.402344 299.316406 37.597656 300.488281 37.792969 M 316.601562 43.652344 C 317.1875 45.703125 317.382812 50.683594 317.1875 54.882812 C 316.527344 68.1875 308.503906 80.015625 296.386719 85.546875 C 288.769531 89.0625 284.667969 89.550781 281.933594 87.304688 C 280.664062 86.328125 281.152344 86.914062 283.007812 88.574219 C 288.21875 93.773438 295.378906 96.539062 302.734375 96.191406 C 313.871094 96.5625 324.191406 90.371094 329.101562 80.371094 C 332.714844 73.242188 333.007812 62.402344 329.882812 55.46875 C 327.503906 49.914062 323.570312 45.167969 318.554688 41.796875 L 315.625 40.039062 L 316.601562 43.652344 M 93.359375 135.15625 C 95.019531 136.425781 95.214844 137.792969 95.214844 146.679688 C 95.214844 155.761719 94.921875 157.324219 92.480469 162.304688 C 87.414062 172.597656 78.042969 180.109375 66.894531 182.8125 L 62.207031 183.886719 L 64.550781 185.644531 C 68.457031 188.574219 75.097656 190.429688 81.933594 190.429688 C 91.398438 190.261719 100.195312 185.515625 105.535156 177.691406 C 110.871094 169.871094 112.082031 159.949219 108.789062 151.074219 C 106.144531 144.917969 101.8125 139.632812 96.289062 135.839844 C 92.578125 133.496094 90.429688 133.105469 93.359375 135.15625 M 59.960938 140.820312 L 57.128906 144.042969 L 60.351562 141.113281 C 61.484375 140.167969 62.53125 139.121094 63.476562 137.988281 C 63.476562 137.207031 62.695312 137.988281 59.960938 140.917969 M 356.640625 205.761719 C 367.871094 205.957031 386.035156 205.957031 397.265625 205.761719 C 408.398438 205.664062 399.21875 205.566406 376.953125 205.566406 C 354.6875 205.566406 345.507812 205.566406 356.640625 205.761719 M 375.78125 245.800781 C 376.953125 245.996094 378.90625 245.996094 380.078125 245.800781 C 381.347656 245.605469 380.371094 245.410156 377.929688 245.410156 C 375.488281 245.410156 374.511719 245.605469 375.683594 245.800781 M 387.402344 245.800781 C 388.671875 245.996094 390.625 245.996094 391.894531 245.800781 C 393.066406 245.605469 392.089844 245.410156 389.648438 245.410156 C 387.207031 245.410156 386.230469 245.605469 387.402344 245.800781 "/>
<path style=" stroke:none;fill-rule:evenodd;fill:rgb(71.764706%,57.254902%,54.901961%);fill-opacity:1;" d="M 300.585938 37.792969 C 301.757812 37.988281 303.710938 37.988281 304.882812 37.792969 C 306.152344 37.597656 305.175781 37.402344 302.734375 37.402344 C 300.292969 37.402344 299.316406 37.597656 300.488281 37.792969 M 316.601562 43.652344 C 317.1875 45.703125 317.382812 50.683594 317.1875 54.882812 C 316.527344 68.1875 308.503906 80.015625 296.386719 85.546875 C 288.769531 89.0625 284.667969 89.550781 281.933594 87.304688 C 280.664062 86.328125 281.152344 86.914062 283.007812 88.574219 C 288.21875 93.773438 295.378906 96.539062 302.734375 96.191406 C 313.871094 96.5625 324.191406 90.371094 329.101562 80.371094 C 332.714844 73.242188 333.007812 62.402344 329.882812 55.46875 C 327.503906 49.914062 323.570312 45.167969 318.554688 41.796875 L 315.625 40.039062 L 316.601562 43.652344 M 93.359375 135.15625 C 95.019531 136.425781 95.214844 137.792969 95.214844 146.679688 C 95.214844 155.761719 94.921875 157.324219 92.480469 162.304688 C 87.414062 172.597656 78.042969 180.109375 66.894531 182.8125 L 62.207031 183.886719 L 64.550781 185.644531 C 68.457031 188.574219 75.097656 190.429688 81.933594 190.429688 C 91.398438 190.261719 100.195312 185.515625 105.535156 177.691406 C 110.871094 169.871094 112.082031 159.949219 108.789062 151.074219 C 106.144531 144.917969 101.8125 139.632812 96.289062 135.839844 C 92.578125 133.496094 90.429688 133.105469 93.359375 135.15625 M 59.960938 140.820312 L 57.128906 144.042969 L 60.351562 141.113281 C 61.484375 140.167969 62.53125 139.121094 63.476562 137.988281 C 63.476562 137.207031 62.695312 137.988281 59.960938 140.917969 M 356.640625 205.761719 C 367.871094 205.957031 386.035156 205.957031 397.265625 205.761719 C 408.398438 205.664062 399.21875 205.566406 376.953125 205.566406 C 354.6875 205.566406 345.507812 205.566406 356.640625 205.761719 M 375.78125 245.800781 C 376.953125 245.996094 378.90625 245.996094 380.078125 245.800781 C 381.347656 245.605469 380.371094 245.410156 377.929688 245.410156 C 375.488281 245.410156 374.511719 245.605469 375.683594 245.800781 M 387.402344 245.800781 C 388.671875 245.996094 390.625 245.996094 391.894531 245.800781 C 393.066406 245.605469 392.089844 245.410156 389.648438 245.410156 C 387.207031 245.410156 386.230469 245.605469 387.402344 245.800781 "/>
<path style=" stroke:none;fill-rule:evenodd;fill:rgb(80%,71.764706%,52.941176%);fill-opacity:1;" d="M 133.59375 241.699219 L 133.300781 273.632812 L 130.078125 276.464844 L 126.953125 279.296875 L 14.550781 279.296875 L 14.84375 285.9375 L 15.136719 292.480469 L 81.347656 292.773438 L 147.460938 292.96875 L 147.460938 261.523438 C 147.460938 243.945312 147.070312 228.417969 146.484375 226.5625 C 145.117188 221.679688 140.429688 214.550781 136.914062 212.011719 L 133.789062 209.960938 L 133.496094 241.796875 "/>
<path style=" stroke:none;fill-rule:evenodd;fill:rgb(94.901961%,74.117647%,58.039216%);fill-opacity:1;" d="M 281.054688 239.257812 C 281.25 264.257812 281.054688 270.019531 279.882812 272.949219 C 277.148438 279.394531 277.929688 279.296875 217.382812 279.296875 L 163.085938 279.296875 L 162.792969 255.566406 C 162.597656 232.128906 162.597656 232.226562 162.304688 262.402344 L 162.109375 292.96875 L 177.148438 292.96875 C 190.820312 292.96875 192.382812 293.164062 194.726562 294.921875 C 196.09375 296.09375 197.265625 297.851562 197.265625 298.828125 C 197.265625 300.683594 198.046875 300.78125 207.519531 300.78125 C 216.992188 300.78125 217.773438 300.683594 217.773438 298.828125 C 217.773438 297.851562 218.945312 296.09375 220.3125 294.921875 C 222.851562 292.96875 224.023438 292.96875 256.738281 292.96875 L 290.527344 292.96875 L 293.261719 289.550781 L 295.996094 286.035156 L 295.703125 257.03125 C 295.410156 229.199219 295.3125 227.832031 293.164062 223.144531 C 291.894531 220.410156 289.257812 216.601562 287.304688 214.550781 C 280.371094 207.324219 280.761719 205.761719 281.054688 239.355469 "/>
<path style=" stroke:none;fill-rule:evenodd;fill:rgb(63.137255%,64.705882%,71.764706%);fill-opacity:1;" d="M 329.785156 207.421875 C 321 210.535156 314.21875 217.640625 311.523438 226.5625 C 311.035156 228.515625 310.546875 239.257812 310.546875 250.683594 L 310.546875 271.484375 L 317.773438 266.308594 C 351.953125 242.507812 396.269531 238.855469 433.886719 256.738281 L 443.554688 261.425781 L 443.164062 244.335938 C 442.871094 228.90625 442.578125 226.757812 440.527344 222.558594 C 437.265625 216.058594 431.796875 210.933594 425.097656 208.105469 C 420.214844 206.25 417.480469 206.152344 376.660156 206.152344 C 342.871094 206.152344 332.714844 206.542969 329.785156 207.519531 "/>
<path style=" stroke:none;fill-rule:evenodd;fill:rgb(52.54902%,56.862745%,47.45098%);fill-opacity:1;" d="M 152.636719 37.792969 C 154.101562 37.988281 156.25 37.988281 157.519531 37.792969 C 158.691406 37.597656 157.519531 37.402344 154.785156 37.402344 C 152.050781 37.402344 151.074219 37.597656 152.636719 37.792969 M 255.859375 112.792969 C 253.417969 113.574219 250 115.429688 248.046875 116.992188 L 244.726562 119.824219 L 249.609375 122.167969 C 257.679688 126.707031 264.261719 133.492188 268.554688 141.699219 C 275.609375 155.785156 274.527344 172.582031 265.722656 185.644531 L 262.988281 190.136719 L 271.386719 191.210938 C 281.320312 192.269531 290.574219 196.761719 297.558594 203.90625 L 302.929688 209.179688 L 308.300781 203.808594 C 315.265625 196.75 324.429688 192.269531 334.277344 191.113281 L 342.675781 189.941406 L 339.257812 184.570312 C 334.699219 177.449219 332.449219 169.09375 332.8125 160.644531 C 332.71875 144.910156 341.269531 130.394531 355.078125 122.851562 L 360.644531 119.726562 L 357.421875 117.089844 C 350.78125 111.425781 349.316406 111.230469 302.734375 111.425781 C 269.335938 111.425781 259.277344 111.71875 255.859375 112.792969 M 112.304688 130.371094 C 114.160156 132.324219 115.820312 133.789062 116.113281 133.789062 C 116.40625 133.789062 115.136719 132.226562 113.28125 130.371094 C 111.425781 128.417969 109.765625 126.953125 109.472656 126.953125 C 109.179688 126.953125 110.449219 128.515625 112.304688 130.371094 M 207.421875 140.917969 L 204.589844 144.042969 L 207.8125 141.113281 C 210.742188 138.476562 211.425781 137.695312 210.644531 137.695312 C 209.472656 138.667969 208.394531 139.746094 207.421875 140.917969 M 125.292969 161.621094 C 125.292969 164.355469 125.488281 165.332031 125.683594 163.769531 C 125.910156 162.148438 125.910156 160.507812 125.683594 158.886719 C 125.488281 157.714844 125.292969 158.886719 125.292969 161.621094 M 258.105469 161.621094 C 258.105469 164.355469 258.300781 165.332031 258.496094 163.769531 C 258.722656 162.148438 258.722656 160.507812 258.496094 158.886719 C 258.300781 157.714844 258.105469 158.886719 258.105469 161.621094 M 346.972656 161.132812 C 346.972656 163.085938 347.070312 163.769531 347.363281 162.890625 C 347.558594 161.914062 347.558594 160.351562 347.363281 159.375 C 347.070312 158.398438 346.875 159.277344 346.875 161.132812 M 116.40625 191.113281 C 117.96875 191.308594 120.3125 191.308594 121.777344 191.113281 C 123.339844 190.917969 122.070312 190.722656 119.140625 190.722656 C 116.210938 190.722656 114.941406 190.917969 116.40625 191.113281 M 188.671875 191.113281 C 190.234375 191.308594 192.382812 191.308594 193.554688 191.113281 C 194.824219 190.917969 193.554688 190.722656 190.917969 190.722656 C 188.183594 190.722656 187.207031 190.917969 188.769531 191.113281 M 61.230469 205.761719 C 72.167969 205.957031 89.941406 205.957031 100.78125 205.761719 C 111.71875 205.664062 102.734375 205.566406 81.054688 205.566406 C 59.277344 205.566406 50.390625 205.566406 61.230469 205.761719 M 209.179688 205.761719 C 219.726562 205.957031 237.304688 205.957031 248.242188 205.761719 C 259.179688 205.664062 250.488281 205.566406 229.003906 205.566406 C 207.519531 205.566406 198.632812 205.566406 209.179688 205.761719 M 380.566406 260.449219 C 382.324219 260.644531 385.449219 260.644531 387.402344 260.449219 C 389.453125 260.253906 388.085938 260.058594 384.277344 260.058594 C 380.46875 260.058594 378.90625 260.253906 380.566406 260.449219 M 312.011719 290.332031 L 307.128906 295.410156 L 312.304688 290.527344 C 316.992188 286.035156 317.871094 285.15625 317.1875 285.15625 C 315.371094 286.789062 313.644531 288.515625 312.011719 290.332031 M 379.199219 290.722656 C 382.324219 290.917969 387.109375 290.917969 389.941406 290.722656 C 392.773438 290.527344 390.234375 290.429688 384.277344 290.429688 C 378.417969 290.429688 376.074219 290.527344 379.199219 290.722656 M 391.992188 323.730469 C 391.992188 333.886719 392.1875 337.988281 392.285156 332.714844 C 392.480469 327.441406 392.480469 319.042969 392.285156 314.160156 C 392.1875 309.277344 391.992188 313.574219 391.992188 323.730469 M 334.765625 338.574219 C 339.648438 338.769531 347.851562 338.769531 352.734375 338.574219 C 357.714844 338.476562 353.710938 338.28125 343.75 338.28125 C 333.789062 338.28125 329.785156 338.476562 334.667969 338.574219 M 415.722656 338.574219 C 420.703125 338.769531 428.90625 338.769531 433.886719 338.574219 C 438.769531 338.476562 434.765625 338.28125 424.804688 338.28125 C 414.84375 338.28125 410.839844 338.476562 415.722656 338.574219 M 439.648438 361.035156 L 439.453125 369.140625 L 420.605469 369.433594 L 401.855469 369.628906 L 420.703125 369.921875 C 435.742188 370.117188 439.648438 369.921875 440.039062 368.847656 C 440.332031 368.066406 440.332031 364.257812 440.136719 360.253906 L 439.84375 353.027344 L 439.648438 361.035156 M 337.695312 369.824219 C 343.261719 370.019531 352.050781 370.019531 357.226562 369.824219 C 362.402344 369.726562 357.910156 369.53125 347.167969 369.53125 C 336.425781 369.53125 332.128906 369.726562 337.695312 369.824219 M 391.796875 398.632812 L 391.601562 416.992188 L 383.496094 417.382812 L 375.488281 417.675781 L 383.59375 417.871094 C 389.453125 417.96875 391.796875 417.675781 392.1875 416.894531 C 392.382812 416.113281 392.480469 407.617188 392.285156 398.046875 L 392.089844 380.46875 L 391.796875 398.730469 M 334.277344 384.570312 C 339.550781 384.765625 347.949219 384.765625 352.832031 384.570312 C 357.714844 384.472656 353.417969 384.277344 343.261719 384.277344 C 333.105469 384.277344 329.003906 384.472656 334.277344 384.570312 M 416.308594 384.570312 C 421.582031 384.765625 429.980469 384.765625 434.863281 384.570312 C 439.746094 384.472656 435.449219 384.277344 425.292969 384.277344 C 415.136719 384.277344 411.035156 384.472656 416.308594 384.570312 M 378.710938 432.421875 C 382.03125 432.617188 387.304688 432.617188 390.429688 432.421875 C 393.457031 432.226562 390.722656 432.128906 384.277344 432.128906 C 377.832031 432.128906 375.292969 432.226562 378.710938 432.421875 M 380.664062 462.695312 C 382.910156 462.890625 386.523438 462.890625 388.476562 462.695312 C 390.429688 462.5 388.574219 462.304688 384.277344 462.304688 C 379.980469 462.304688 378.417969 462.5 380.664062 462.695312 "/>
<path style=" stroke:none;fill-rule:evenodd;fill:rgb(88.235294%,83.137255%,65.882353%);fill-opacity:1;" d="M 34.179688 207.617188 C 31.640625 208.300781 27.539062 210.742188 25.097656 212.890625 C 18.917969 218.476562 15.285156 226.339844 15.039062 234.667969 C 14.453125 241.210938 14.0625 242.480469 11.914062 244.140625 C 10.851562 245.082031 9.578125 245.75 8.203125 246.09375 C 7.226562 246.09375 6.835938 248.144531 6.835938 255.371094 C 6.835938 262.597656 7.128906 264.648438 8.203125 264.648438 C 8.886719 264.648438 10.644531 265.625 12.109375 266.601562 C 14.257812 268.457031 14.648438 269.433594 14.648438 274.023438 L 14.648438 279.296875 L 126.953125 279.296875 L 130.078125 276.367188 L 133.300781 273.632812 L 133.300781 209.570312 L 128.90625 207.8125 C 125 206.347656 119.921875 206.152344 81.542969 206.152344 C 47.363281 206.152344 37.597656 206.445312 34.082031 207.617188 "/>
<path style=" stroke:none;fill-rule:evenodd;fill:rgb(86.666667%,73.333333%,66.27451%);fill-opacity:1;" d="M 144.824219 39.648438 C 139.257812 41.601562 132.226562 48.144531 129.199219 54.003906 C 124.007812 64.105469 125.355469 76.328125 132.617188 85.058594 L 136.425781 89.257812 L 141.894531 87.988281 C 149.433594 85.910156 156.214844 81.707031 161.425781 75.878906 C 168.078125 67.214844 170.898438 56.207031 169.238281 45.410156 C 168.554688 42.285156 167.675781 41.113281 165.039062 39.84375 C 158.484375 37.679688 151.417969 37.609375 144.824219 39.648438 M 221.679688 133.105469 C 209.542969 136.171875 200.875 146.867188 200.390625 159.375 C 199.628906 166.777344 201.960938 174.164062 206.835938 179.785156 L 210.546875 183.886719 L 216.40625 182.226562 C 230.527344 178.464844 241.074219 166.691406 243.261719 152.246094 C 244.140625 147.363281 244.140625 144.726562 243.261719 140.527344 C 242.285156 135.644531 241.699219 134.765625 239.0625 133.886719 C 233.984375 132.128906 226.367188 131.738281 221.679688 133.105469 M 370.605469 132.714844 C 351.757812 137.597656 342.1875 158.203125 351.074219 174.609375 C 352.539062 177.34375 354.785156 180.46875 355.957031 181.640625 C 357.910156 183.496094 358.59375 183.59375 362.792969 182.617188 C 378.363281 178.882812 389.828125 165.648438 391.308594 149.707031 C 392.089844 140.332031 390.527344 135.253906 386.523438 133.886719 C 381.367188 132.332031 375.933594 131.929688 370.605469 132.714844 M 375.976562 324.804688 C 375.976562 345.996094 375.488281 348.242188 369.824219 351.5625 C 366.992188 353.320312 364.84375 353.515625 347.363281 353.515625 L 328.125 353.515625 L 328.125 369.140625 L 346.679688 369.140625 C 367.578125 369.140625 370.703125 369.824219 374.023438 375.195312 C 375.78125 378.125 375.976562 380.078125 375.976562 397.65625 L 375.976562 416.992188 L 391.601562 416.992188 L 391.601562 398.925781 C 391.601562 379.296875 392.1875 376.464844 396.875 372.070312 C 399.511719 369.628906 399.804688 369.628906 419.53125 369.335938 L 439.453125 369.042969 L 439.453125 353.515625 L 419.53125 353.222656 C 399.804688 352.929688 399.511719 352.929688 396.875 350.488281 C 392.1875 346.09375 391.601562 343.261719 391.601562 323.632812 L 391.601562 305.664062 L 375.976562 305.664062 L 375.976562 324.804688 "/>
<path style=" stroke:none;fill-rule:evenodd;fill:rgb(73.333333%,49.411765%,43.921569%);fill-opacity:1;" d="M 290.234375 41.015625 C 280.03125 45.496094 273.605469 55.757812 274.023438 66.894531 C 274.023438 74.511719 276.074219 80.273438 280.859375 85.839844 C 283.203125 88.769531 283.984375 89.0625 287.207031 88.574219 C 289.160156 88.28125 293.261719 87.011719 296.289062 85.644531 C 308.476562 80.125 316.546875 68.246094 317.1875 54.882812 C 317.773438 44.433594 316.699219 41.015625 312.5 39.453125 C 310.546875 38.769531 306.152344 38.183594 302.734375 38.183594 C 297.363281 38.183594 295.214844 38.574219 290.234375 41.113281 M 74.902344 132.8125 C 61.585938 135.894531 52.226562 147.855469 52.441406 161.523438 C 52.441406 169.042969 53.808594 172.851562 58.59375 179.394531 C 61.523438 183.496094 61.914062 183.691406 65.234375 183.007812 C 71.582031 181.933594 80.859375 176.953125 85.351562 172.265625 C 91.699219 165.820312 94.921875 158.59375 95.507812 149.804688 C 96.09375 139.648438 95.3125 135.9375 91.796875 134.179688 C 86.40625 132.144531 80.5625 131.636719 74.902344 132.714844 "/>
<path style=" stroke:none;fill-rule:evenodd;fill:rgb(89.019608%,84.705882%,75.294118%);fill-opacity:1;" d="M 110.15625 112.695312 C 107.617188 113.378906 103.710938 115.136719 101.464844 116.601562 L 97.363281 119.335938 L 102.636719 122.265625 C 113.46875 128.375 121.292969 138.691406 124.253906 150.769531 C 127.210938 162.847656 125.042969 175.613281 118.261719 186.035156 L 115.332031 190.429688 L 119.140625 190.429688 C 130.078125 190.429688 141.503906 195.214844 149.609375 203.125 L 155.175781 208.691406 L 160.253906 203.515625 C 168.15625 195.464844 178.859375 190.777344 190.136719 190.429688 C 192.480469 190.429688 194.335938 190.234375 194.335938 190.039062 C 194.335938 189.746094 193.066406 187.695312 191.40625 185.351562 C 182.386719 170.765625 182.3125 152.355469 191.210938 137.695312 C 194.335938 132.8125 200.292969 126.660156 204.296875 124.21875 C 206.542969 122.949219 207.03125 121.972656 207.03125 118.847656 C 207.03125 115.527344 206.640625 114.941406 203.320312 113.476562 C 200.097656 112.011719 194.824219 111.816406 157.226562 111.523438 C 125 111.523438 113.671875 111.71875 110.15625 112.695312 M 364.0625 262.695312 C 326.144531 270.46875 295.996094 299.214844 286.425781 336.71875 C 284.21875 344.722656 283.359375 353.039062 283.886719 361.328125 C 283.886719 374.609375 284.179688 377.636719 286.425781 386.230469 C 287.890625 391.601562 291.503906 400.878906 294.433594 407.03125 C 300 418.359375 300.292969 420.410156 297.167969 423.925781 C 295.703125 425.683594 296.875 427.636719 304.492188 435.742188 C 307.617188 439.0625 308.105469 439.257812 309.960938 437.890625 C 313.378906 435.546875 315.820312 436.328125 324.023438 442.285156 C 328.914062 445.753906 334.039062 448.886719 339.355469 451.660156 L 346.875 455.371094 L 360.15625 454.785156 C 367.863281 454.730469 375.535156 453.746094 383.007812 451.855469 C 416.34375 443 443.515625 418.875 456.25 386.816406 C 469.921875 352.441406 464.550781 311.425781 442.382812 282.128906 C 437.011719 275 430.859375 271.09375 417.1875 266.210938 C 401.5625 260.644531 380.371094 259.277344 364.0625 262.695312 M 370.605469 290.722656 C 367.480469 291.601562 364.257812 294.042969 362.792969 296.972656 C 361.621094 299.121094 361.328125 304.003906 361.328125 318.75 L 361.328125 337.792969 L 341.503906 338.085938 C 313.867188 338.476562 313.476562 338.769531 313.476562 361.523438 C 313.476562 373.828125 313.769531 375.878906 315.429688 378.710938 C 318.75 384.082031 321.875 384.765625 342.773438 384.765625 L 361.328125 384.765625 L 361.328125 404.101562 C 361.328125 421.679688 361.523438 423.632812 363.28125 426.5625 C 366.308594 431.445312 370.117188 432.617188 384.277344 432.617188 C 394.53125 432.617188 397.167969 432.324219 400.292969 430.664062 C 406.542969 427.539062 407.226562 424.804688 407.226562 403.417969 L 407.226562 384.765625 L 425.78125 384.765625 C 454.101562 384.765625 455.46875 383.59375 454.882812 359.863281 C 454.589844 346.484375 454.492188 345.703125 452.148438 343.261719 C 447.753906 338.378906 444.921875 337.890625 425.390625 337.890625 L 407.226562 337.890625 L 406.933594 317.96875 C 406.640625 298.242188 406.640625 297.949219 404.199219 295.3125 C 400.097656 290.917969 396.582031 290.039062 383.984375 290.136719 C 377.636719 290.136719 371.582031 290.527344 370.507812 290.722656 "/>
<path style=" stroke:none;fill-rule:evenodd;fill:rgb(89.019608%,84.705882%,75.294118%);fill-opacity:1;" d="M 110.15625 112.695312 C 107.617188 113.378906 103.710938 115.136719 101.464844 116.601562 L 97.363281 119.335938 L 102.636719 122.265625 C 113.46875 128.375 121.292969 138.691406 124.253906 150.769531 C 127.210938 162.847656 125.042969 175.613281 118.261719 186.035156 L 115.332031 190.429688 L 119.140625 190.429688 C 130.078125 190.429688 141.503906 195.214844 149.609375 203.125 L 155.175781 208.691406 L 160.253906 203.515625 C 168.15625 195.464844 178.859375 190.777344 190.136719 190.429688 C 192.480469 190.429688 194.335938 190.234375 194.335938 190.039062 C 194.335938 189.746094 193.066406 187.695312 191.40625 185.351562 C 182.386719 170.765625 182.3125 152.355469 191.210938 137.695312 C 194.335938 132.8125 200.292969 126.660156 204.296875 124.21875 C 206.542969 122.949219 207.03125 121.972656 207.03125 118.847656 C 207.03125 115.527344 206.640625 114.941406 203.320312 113.476562 C 200.097656 112.011719 194.824219 111.816406 157.226562 111.523438 C 125 111.523438 113.671875 111.71875 110.15625 112.695312 M 364.0625 262.695312 C 326.144531 270.46875 295.996094 299.214844 286.425781 336.71875 C 284.21875 344.722656 283.359375 353.039062 283.886719 361.328125 C 283.886719 374.609375 284.179688 377.636719 286.425781 386.230469 C 287.890625 391.601562 291.503906 400.878906 294.433594 407.03125 C 300 418.359375 300.292969 420.410156 297.167969 423.925781 C 295.703125 425.683594 296.875 427.636719 304.492188 435.742188 C 307.617188 439.0625 308.105469 439.257812 309.960938 437.890625 C 313.378906 435.546875 315.820312 436.328125 324.023438 442.285156 C 328.914062 445.753906 334.039062 448.886719 339.355469 451.660156 L 346.875 455.371094 L 360.15625 454.785156 C 367.863281 454.730469 375.535156 453.746094 383.007812 451.855469 C 416.34375 443 443.515625 418.875 456.25 386.816406 C 469.921875 352.441406 464.550781 311.425781 442.382812 282.128906 C 437.011719 275 430.859375 271.09375 417.1875 266.210938 C 401.5625 260.644531 380.371094 259.277344 364.0625 262.695312 M 370.605469 290.722656 C 367.480469 291.601562 364.257812 294.042969 362.792969 296.972656 C 361.621094 299.121094 361.328125 304.003906 361.328125 318.75 L 361.328125 337.792969 L 341.503906 338.085938 C 313.867188 338.476562 313.476562 338.769531 313.476562 361.523438 C 313.476562 373.828125 313.769531 375.878906 315.429688 378.710938 C 318.75 384.082031 321.875 384.765625 342.773438 384.765625 L 361.328125 384.765625 L 361.328125 404.101562 C 361.328125 421.679688 361.523438 423.632812 363.28125 426.5625 C 366.308594 431.445312 370.117188 432.617188 384.277344 432.617188 C 394.53125 432.617188 397.167969 432.324219 400.292969 430.664062 C 406.542969 427.539062 407.226562 424.804688 407.226562 403.417969 L 407.226562 384.765625 L 425.78125 384.765625 C 454.101562 384.765625 455.46875 383.59375 454.882812 359.863281 C 454.589844 346.484375 454.492188 345.703125 452.148438 343.261719 C 447.753906 338.378906 444.921875 337.890625 425.390625 337.890625 L 407.226562 337.890625 L 406.933594 317.96875 C 406.640625 298.242188 406.640625 297.949219 404.199219 295.3125 C 400.097656 290.917969 396.582031 290.039062 383.984375 290.136719 C 377.636719 290.136719 371.582031 290.527344 370.507812 290.722656 "/>
<path style=" stroke:none;fill-rule:evenodd;fill:rgb(94.117647%,78.431373%,66.27451%);fill-opacity:1;" d="M 207.03125 118.554688 C 207.03125 122.460938 207.421875 122.65625 210.839844 120.703125 L 213.085938 119.433594 L 210.15625 117.285156 L 207.03125 115.136719 L 207.03125 118.554688 M 182.519531 207.421875 C 174.023438 210.449219 168.945312 215.234375 165.136719 223.632812 C 163.28125 227.734375 163.183594 229.980469 163.183594 253.710938 L 163.085938 279.296875 L 217.285156 279.296875 C 277.832031 279.296875 277.148438 279.296875 279.785156 273.046875 C 280.957031 270.3125 281.25 263.769531 281.25 239.84375 L 281.25 209.960938 L 278.027344 208.203125 C 275.097656 206.640625 270.898438 206.445312 230.46875 206.25 C 195.800781 206.054688 185.253906 206.25 182.519531 207.226562 M 439.453125 278.125 C 464.058594 308.722656 470.425781 350.140625 456.152344 386.71875 C 443.359375 418.945312 416.113281 443.066406 383.007812 451.757812 C 376.171875 453.515625 370.019531 454.394531 360.351562 454.6875 L 347.167969 455.273438 L 352.441406 457.03125 C 373.242188 464.160156 400.585938 463.378906 421.386719 455.078125 C 453.125 442.382812 475.292969 415.820312 483.105469 381.25 C 485.058594 372.070312 485.058594 350.390625 483.105469 341.210938 C 478.597656 320.261719 467.753906 301.203125 452.050781 286.621094 C 445.214844 280.371094 437.402344 275.097656 439.453125 277.832031 "/>
<path style=" stroke:none;fill-rule:evenodd;fill:rgb(2.745098%,2.745098%,2.745098%);fill-opacity:1;" d="M 141.40625 24.707031 C 125.335938 29.773438 113.574219 43.582031 111.132812 60.253906 C 109.277344 71.289062 112.109375 82.910156 119.140625 93.457031 L 121.289062 96.679688 L 115.332031 96.679688 C 103.808594 96.679688 89.941406 103.515625 83.105469 112.695312 C 80.175781 116.601562 79.394531 116.992188 74.902344 117.382812 C 58.8125 119.664062 45.230469 130.511719 39.453125 145.703125 C 34.605469 160.054688 36.851562 175.851562 45.507812 188.28125 C 47.070312 190.429688 47.070312 190.429688 42.773438 190.429688 C 40.429688 190.429688 35.9375 191.113281 32.714844 191.894531 C 13.207031 196.648438 -0.386719 214.300781 0 234.375 C 0 241.601562 0.195312 242.285156 2.539062 244.140625 C 5.664062 246.582031 9.375 246.09375 12.402344 242.578125 C 14.160156 240.625 14.648438 239.0625 14.648438 234.570312 C 14.460938 223.371094 20.890625 213.109375 31.054688 208.398438 L 36.621094 205.664062 L 80.566406 205.664062 C 121.484375 205.664062 124.804688 205.761719 129.394531 207.617188 C 136.175781 210.53125 141.734375 215.707031 145.117188 222.265625 C 147.363281 227.148438 147.460938 227.636719 147.460938 260.15625 L 147.460938 292.96875 L 81.25 292.773438 L 15.136719 292.480469 L 14.648438 281.054688 C 14.257812 271.289062 13.867188 269.335938 12.207031 267.675781 C 9.082031 264.746094 5.46875 264.355469 2.539062 266.699219 C 0 268.554688 0 268.847656 0 281.835938 C 0 290.722656 0.390625 295.996094 1.367188 298.144531 C 3.027344 302.246094 7.8125 306.25 12.5 307.617188 C 14.84375 308.203125 46.679688 308.59375 104.296875 308.59375 L 192.578125 308.59375 L 195.507812 305.664062 C 198.828125 302.34375 198.535156 298.730469 194.628906 295.117188 C 192.382812 293.164062 191.503906 292.96875 177.050781 292.96875 L 162.109375 292.96875 L 162.402344 259.960938 C 162.695312 227.734375 162.792969 226.953125 164.941406 222.460938 C 168.09375 216.148438 173.292969 211.089844 179.6875 208.105469 L 185.15625 205.566406 L 228.515625 205.566406 C 269.042969 205.566406 272.265625 205.664062 276.855469 207.519531 C 283.882812 210.632812 289.609375 216.085938 293.066406 222.949219 C 295.3125 227.832031 295.410156 229.003906 295.703125 257.128906 L 295.996094 286.035156 L 293.261719 289.550781 L 290.527344 292.96875 L 256.640625 292.96875 C 222.851562 292.96875 222.753906 292.96875 220.410156 295.214844 C 216.503906 298.730469 216.210938 302.34375 219.628906 305.664062 L 222.558594 308.59375 L 251.464844 308.59375 C 274.316406 308.59375 280.371094 308.886719 279.980469 309.863281 C 263.945312 341.90625 263.726562 379.589844 279.394531 411.816406 C 284.472656 422.460938 287.304688 425.78125 291.503906 425.78125 C 295.019531 425.78125 298.828125 422.167969 298.828125 418.945312 C 298.828125 417.96875 296.386719 412.207031 293.457031 406.054688 C 285.15625 388.769531 283.789062 382.8125 283.691406 361.816406 C 283.691406 341.113281 285.15625 333.984375 292.871094 317.871094 C 307.03125 287.867188 335.0625 266.765625 367.8125 261.457031 C 400.5625 256.148438 433.824219 267.316406 456.738281 291.308594 C 494.078125 329.53125 494.851562 390.332031 458.496094 429.492188 C 450.003906 439 439.714844 446.730469 428.222656 452.246094 C 414.839844 459.261719 399.867188 462.695312 384.765625 462.207031 C 362.375 462.871094 340.453125 455.726562 322.753906 441.992188 C 318.847656 438.867188 316.113281 437.5 313.964844 437.5 C 311.371094 437.425781 308.941406 438.765625 307.625 441 C 306.304688 443.234375 306.300781 446.007812 307.617188 448.242188 C 314.242188 454.695312 321.816406 460.097656 330.078125 464.257812 C 365.070312 482.691406 407.039062 482.027344 441.433594 462.5 C 475.824219 442.96875 497.898438 407.265625 500 367.773438 C 500.78125 356.640625 500.683594 353.515625 498.925781 343.75 C 497.851562 337.597656 495.898438 329.199219 494.53125 325.195312 C 488.386719 307.191406 478.121094 290.871094 464.550781 277.539062 L 458.007812 271.484375 L 457.714844 247.265625 L 457.421875 223.144531 L 454.199219 216.40625 C 447.683594 201.800781 433.714844 191.914062 417.773438 190.625 L 411.035156 189.941406 L 413.964844 185.449219 C 422.605469 171.558594 423.238281 154.128906 415.625 139.648438 C 408.105469 126.953125 393.457031 117.1875 381.640625 117.1875 C 379.296875 117.1875 377.636719 116.601562 377.050781 115.625 C 372.464844 109.34375 366.433594 104.253906 359.472656 100.78125 C 353.613281 97.949219 350.683594 97.265625 344.53125 96.875 L 336.816406 96.191406 C 336.816406 95.996094 338.378906 93.652344 340.234375 90.820312 C 344.921875 83.984375 347.070312 76.367188 347.070312 66.894531 C 347.121094 47.648438 334.777344 30.558594 316.488281 24.558594 C 298.203125 18.558594 278.132812 25.011719 266.769531 40.546875 C 255.410156 56.082031 255.339844 77.164062 266.601562 92.773438 C 267.578125 94.238281 268.554688 95.703125 268.554688 95.996094 C 268.554688 96.191406 265.039062 96.679688 260.742188 96.875 C 250.464844 97.5 240.816406 102.046875 233.789062 109.570312 L 229.003906 114.746094 L 224.121094 109.570312 C 220.707031 105.953125 216.671875 102.976562 212.207031 100.78125 C 207.492188 98.152344 202.171875 96.804688 196.777344 96.875 L 188.574219 96.484375 L 190.917969 93.359375 C 200.351562 80.160156 202.0625 62.941406 195.410156 48.144531 C 185.875 27.851562 162.742188 17.808594 141.40625 24.707031 M 145.703125 38.964844 C 133.082031 43.160156 124.8125 55.261719 125.484375 68.546875 C 126.160156 81.828125 135.617188 93.03125 148.597656 95.925781 C 161.582031 98.820312 174.898438 92.695312 181.152344 80.957031 C 183.789062 76.171875 184.082031 74.804688 184.082031 66.894531 C 184.082031 58.984375 183.789062 57.617188 181.152344 52.832031 C 175.726562 43.347656 165.710938 37.414062 154.785156 37.207031 C 152.636719 37.207031 148.535156 37.988281 145.703125 38.964844 M 296.386719 37.988281 C 286.851562 40.449219 279.054688 47.304688 275.390625 56.445312 C 271.226562 67.871094 274.304688 80.679688 283.203125 88.964844 C 288.503906 93.855469 295.527344 96.453125 302.734375 96.191406 C 313.871094 96.5625 324.191406 90.371094 329.101562 80.371094 C 332.714844 73.242188 333.007812 62.402344 329.882812 55.46875 C 327.253906 48.984375 322.359375 43.675781 316.113281 40.527344 C 310.644531 37.890625 301.269531 36.621094 296.386719 37.988281 M 108.105469 112.695312 C 106.152344 113.476562 102.636719 115.234375 100.390625 116.699219 L 96.484375 119.335938 L 101.660156 122.265625 C 109.472656 126.464844 116.699219 134.082031 120.898438 142.480469 C 123.765625 147.527344 125.121094 153.289062 124.804688 159.082031 C 125.632812 168.621094 123.109375 178.152344 117.675781 186.035156 L 114.355469 190.917969 L 122.558594 191.503906 C 133.300781 192.285156 142.871094 196.679688 150.097656 204.394531 L 154.980469 209.570312 L 159.375 204.980469 C 167.128906 196.539062 177.996094 191.636719 189.453125 191.40625 C 192.578125 191.40625 195.214844 191.210938 195.214844 190.917969 C 194.363281 189.15625 193.382812 187.457031 192.285156 185.839844 C 183.324219 172.242188 182.464844 154.847656 190.039062 140.429688 C 193.75 133.59375 201.5625 125.78125 207.910156 122.558594 L 213.183594 119.824219 L 209.960938 117.089844 C 203.125 111.425781 201.855469 111.328125 154.785156 111.328125 C 121.09375 111.328125 110.839844 111.71875 108.007812 112.695312 M 255.175781 112.890625 C 253.027344 113.671875 249.804688 115.527344 247.949219 117.089844 L 244.628906 119.824219 L 249.511719 122.167969 C 256.347656 125.585938 264.648438 134.082031 268.261719 141.601562 C 275.488281 156.25 274.511719 171.777344 265.625 185.742188 L 262.695312 190.332031 L 268.261719 190.917969 C 279.648438 191.304688 290.40625 196.226562 298.144531 204.589844 L 302.929688 209.472656 L 308.105469 204.003906 C 315.722656 196.191406 322.851562 192.871094 337.5 190.722656 L 342.675781 189.941406 L 339.746094 185.449219 C 334.863281 178.027344 332.8125 170.703125 332.8125 161.230469 C 332.8125 144.628906 340.625 130.957031 354.882812 122.949219 C 357.8125 121.289062 360.253906 119.628906 360.253906 119.335938 C 360.253906 118.164062 354.003906 114.453125 349.609375 112.792969 C 343.554688 110.644531 261.328125 110.742188 255.175781 112.890625 M 72.265625 133.203125 C 56.644531 138.40625 48.140625 155.234375 53.222656 170.898438 C 56.542969 178.886719 62.851562 185.261719 70.800781 188.671875 C 81.625 192.691406 93.800781 190.027344 101.953125 181.851562 C 110.105469 173.679688 112.742188 161.496094 108.691406 150.683594 C 105.273438 142.976562 99.113281 136.816406 91.40625 133.398438 C 85.742188 131.445312 77.148438 131.347656 72.167969 133.105469 M 216.015625 134.765625 C 205.570312 139.875 199.089844 150.632812 199.445312 162.253906 C 199.804688 173.878906 206.9375 184.214844 217.675781 188.671875 C 223.828125 191.503906 234.179688 191.503906 240.429688 188.671875 C 251.484375 184.003906 258.542969 173.03125 258.203125 161.035156 C 258.773438 149.738281 252.328125 139.257812 241.992188 134.667969 C 237.011719 132.226562 234.863281 131.738281 229.003906 131.738281 C 223.144531 131.738281 220.996094 132.226562 216.015625 134.667969 M 366.894531 133.105469 C 358.886719 136.035156 352.636719 142.089844 349.316406 150.292969 C 346.0625 158.273438 346.484375 167.28125 350.472656 174.917969 C 354.460938 182.554688 361.613281 188.050781 370.019531 189.941406 C 376.410156 191.828125 383.285156 191.125 389.160156 187.988281 C 402.96875 181.421875 409.683594 165.558594 404.785156 151.074219 C 401.445312 143.121094 395.140625 136.785156 387.207031 133.398438 C 381.542969 131.445312 372.070312 131.347656 366.894531 133.105469 M 333.300781 206.054688 C 327.257812 207.28125 321.777344 210.433594 317.675781 215.039062 C 310.9375 222.460938 310.449219 224.902344 310.839844 249.804688 L 311.035156 271.484375 L 317.675781 266.601562 C 330.371094 257.421875 349.21875 249.707031 366.113281 247.070312 C 375.585938 245.410156 395.019531 245.703125 404.6875 247.460938 C 415.429688 249.511719 426.171875 253.125 435.9375 258.007812 L 443.554688 261.816406 L 443.164062 243.945312 C 442.871094 227.636719 442.675781 225.683594 440.625 221.972656 C 437.207031 215.527344 432.910156 211.230469 426.953125 208.300781 L 421.386719 205.566406 L 379.394531 205.371094 C 356.347656 205.371094 335.546875 205.566406 333.300781 206.054688 M 367.382812 292.96875 C 362.011719 296.289062 361.328125 299.414062 361.328125 320.3125 L 361.328125 338.867188 L 341.992188 338.867188 C 324.414062 338.867188 322.460938 339.0625 319.53125 340.820312 C 314.648438 343.847656 313.476562 347.65625 313.476562 362.109375 C 313.476562 373.632812 313.671875 375 315.722656 378.027344 C 319.335938 383.398438 320.800781 383.789062 342.089844 383.789062 L 361.328125 383.789062 L 361.328125 403.222656 C 361.328125 421.777344 361.425781 422.753906 363.574219 425.878906 C 366.992188 431.054688 369.140625 431.640625 384.082031 431.640625 C 406.054688 431.640625 406.542969 431.054688 407.03125 403.027344 L 407.421875 383.789062 L 426.367188 383.789062 C 447.558594 383.789062 449.804688 383.300781 452.832031 377.636719 C 455.34375 366.910156 455.34375 355.746094 452.832031 345.019531 C 449.804688 339.355469 447.558594 338.867188 426.464844 338.867188 L 407.421875 338.867188 L 407.03125 319.53125 C 406.542969 291.601562 406.054688 291.015625 384.082031 291.015625 C 372.363281 291.015625 370.214844 291.308594 367.382812 292.96875 M 375.976562 324.023438 C 375.976562 344.140625 375.292969 346.972656 369.824219 350.976562 C 367.285156 352.929688 365.429688 353.027344 347.558594 353.320312 L 328.125 353.710938 L 328.125 370.117188 L 348.046875 370.117188 C 366.894531 370.117188 368.066406 370.214844 370.507812 372.265625 C 375.390625 375.976562 375.976562 379.101562 375.976562 399.414062 L 375.976562 417.96875 L 384.082031 417.773438 L 392.089844 417.480469 L 392.578125 397.460938 C 393.066406 376.464844 393.554688 374.21875 397.753906 371.875 C 399.21875 370.996094 406.347656 370.410156 419.921875 370.117188 L 439.941406 369.628906 L 440.234375 361.621094 L 440.527344 353.710938 L 420.703125 353.320312 C 392.089844 352.832031 392.578125 353.320312 392.578125 324.707031 L 392.578125 305.664062 L 375.976562 305.664062 L 375.976562 324.023438 M 44.726562 337.5 C 43.457031 337.792969 31.347656 351.464844 23.730469 361.132812 C 23.535156 361.328125 20.410156 358.59375 16.699219 355.078125 C 9.570312 348.242188 7.128906 347.265625 3.125 350.097656 C 1.464844 351.269531 0.976562 352.539062 0.976562 356.152344 C 0.976562 360.742188 1.171875 360.9375 10.546875 370.214844 C 20.214844 379.6875 22.851562 381.445312 26.464844 380.273438 C 27.539062 379.882812 34.277344 372.460938 41.601562 363.867188 C 54.589844 348.046875 55.859375 345.898438 54.101562 341.210938 C 53.710938 340.429688 52.148438 339.0625 50.683594 338.28125 C 47.851562 336.816406 47.558594 336.71875 44.726562 337.5 M 73.4375 353.710938 C 70.703125 356.640625 70.605469 361.523438 73.242188 364.160156 C 75.195312 366.113281 76.464844 366.113281 160.546875 366.113281 L 246.09375 366.113281 L 248.046875 363.574219 C 250.683594 360.253906 250.683594 357.324219 248.046875 354.003906 L 246.09375 351.464844 L 75.488281 351.464844 L 73.4375 353.710938 M 44.726562 389.257812 C 43.457031 389.550781 32.910156 401.5625 23.730469 412.890625 C 23.535156 413.183594 20.507812 410.546875 17.089844 407.03125 C 11.621094 401.757812 10.253906 400.878906 7.226562 400.878906 C 2.929688 400.878906 0 403.90625 0 408.496094 C 0 411.132812 1.5625 413.085938 10.058594 421.484375 C 20.117188 431.445312 22.753906 433.203125 26.464844 432.03125 C 27.539062 431.640625 34.277344 424.21875 41.601562 415.625 C 54.589844 399.804688 55.859375 397.65625 54.101562 392.96875 C 53.710938 392.1875 52.148438 390.820312 50.683594 390.039062 C 47.851562 388.574219 47.558594 388.476562 44.726562 389.257812 M 73.4375 405.46875 C 70.703125 408.398438 70.605469 413.28125 73.242188 415.917969 C 75.195312 417.871094 76.464844 417.871094 160.546875 417.871094 L 246.09375 417.871094 L 248.046875 415.332031 C 250.683594 412.011719 250.683594 409.082031 248.046875 405.761719 L 246.09375 403.222656 L 75.488281 403.222656 L 73.4375 405.46875 "/>
</g>
</svg>
