<?xml version="1.0" encoding="UTF-8"?>
<svg xmlns="http://www.w3.org/2000/svg" xmlns:xlink="http://www.w3.org/1999/xlink" width="500px" height="500px" viewBox="0 0 500 500" version="1.1">
<g id="surface1">
<path style=" stroke:none;fill-rule:nonzero;fill:rgb(95.686275%,89.803922%,75.686275%);fill-opacity:1;" d="M 226.78125 9.832031 C 236.96875 16.742188 245.054688 26.109375 250.21875 36.980469 L 254.144531 36.980469 C 280.933594 37.019531 307.71875 37.167969 334.503906 37.421875 C 350.320312 37.421875 365.214844 37.753906 377.222656 49.121094 C 383.917969 56.847656 386.691406 64.460938 386.804688 74.503906 L 386.804688 76.820312 C 386.894531 84.4375 386.894531 92.050781 386.804688 99.667969 C 386.710938 111.660156 386.710938 123.652344 386.804688 135.644531 L 386.804688 139.726562 C 386.460938 142.929688 386.460938 142.929688 384.152344 146.238281 L 380.6875 147.34375 L 379.53125 158.378906 L 384.152344 159.039062 C 420.40625 166.105469 453.308594 190.273438 473.632812 219.1875 C 496.722656 252.957031 504.804688 292.6875 496.722656 332.308594 C 493.953125 344.886719 489.679688 356.585938 483.445312 368.0625 L 482.289062 370.269531 C 476.75 380.3125 470.746094 389.253906 462.664062 397.859375 L 460.238281 400.621094 C 439.914062 422.761719 412.941406 438.367188 382.996094 445.316406 L 379.53125 445.316406 L 379.53125 454.144531 L 381.726562 454.585938 C 384.152344 455.25 384.152344 455.25 386.460938 457.457031 C 387.84375 467.941406 386.230469 476.878906 379.878906 485.488281 C 374.046875 492.644531 365.738281 497.574219 356.441406 499.394531 L 350.785156 499.503906 L 328.730469 499.503906 L 316.839844 499.613281 L 274.464844 499.613281 C 213.8125 499.8125 153.15625 499.921875 92.503906 499.945312 C 76.609375 500.019531 60.714844 500.019531 44.820312 499.945312 L 41.125 499.945312 C 29.046875 500.339844 17.351562 495.851562 8.910156 487.585938 C 3.132812 481.828125 0.117188 474.03125 0.597656 466.0625 L 0.597656 461.648438 C 0.597656 453.777344 0.597656 445.90625 0.597656 438.03125 L 0.484375 423.023438 L 0.484375 369.941406 C 0.4375 346.175781 0.398438 322.410156 0.367188 298.648438 L 0.367188 295.003906 C 0.386719 243.722656 0.308594 192.441406 0.136719 141.164062 C 0.0546875 120.378906 0.0546875 99.59375 0.136719 78.808594 C 0.136719 66.117188 1.984375 57.179688 11.105469 47.796875 C 20.226562 40.070312 30.617188 37.753906 42.394531 37.863281 L 45.511719 37.863281 C 57.402344 37.765625 69.296875 37.765625 81.1875 37.863281 L 100.007812 37.976562 L 136.953125 38.085938 L 138.109375 34.996094 C 143.28125 22.738281 152.804688 12.617188 165.011719 6.410156 C 184.679688 -3.203125 208.246094 -1.9375 226.664062 9.722656 Z M 226.78125 9.832031 "/>
<path style=" stroke:none;fill-rule:nonzero;fill:rgb(92.54902%,74.901961%,70.588235%);fill-opacity:1;" d="M 444.996094 188.617188 C 476.605469 214.453125 496.234375 251.191406 499.609375 290.8125 C 501.226562 317.628906 496.492188 344.117188 483.445312 368.0625 L 482.289062 370.269531 C 476.75 380.3125 470.746094 389.253906 462.664062 397.859375 L 460.238281 400.621094 C 434.566406 428.445312 398.59375 445.660156 359.90625 448.628906 C 343.507812 449.511719 327.460938 448.847656 311.414062 445.316406 L 308.988281 444.765625 C 281.277344 438.363281 257.722656 424.457031 237.519531 405.585938 L 235.09375 403.378906 C 210.230469 379.828125 195.136719 348.460938 192.605469 315.089844 L 192.492188 311.78125 L 192.492188 309.574219 C 191.335938 267.636719 205.191406 230.886719 235.210938 200.09375 C 291.402344 144.761719 382.566406 139.773438 444.996094 188.617188 Z M 444.996094 188.617188 "/>
<path style=" stroke:none;fill-rule:nonzero;fill:rgb(14.901961%,27.45098%,32.54902%);fill-opacity:1;" d="M 226.78125 9.832031 C 236.96875 16.742188 245.054688 26.109375 250.21875 36.980469 L 254.144531 36.980469 C 280.933594 37.019531 307.71875 37.167969 334.503906 37.421875 C 350.320312 37.421875 365.214844 37.753906 377.222656 49.121094 C 383.917969 56.847656 386.691406 64.460938 386.804688 74.503906 L 386.804688 76.820312 C 386.894531 84.4375 386.894531 92.050781 386.804688 99.667969 C 386.710938 111.660156 386.710938 123.652344 386.804688 135.644531 L 386.804688 139.726562 C 386.460938 142.929688 386.460938 142.929688 384.152344 146.238281 C 382.074219 147.230469 382.074219 147.230469 379.53125 147.34375 L 372.605469 144.03125 C 372.496094 124.644531 372.386719 105.261719 372.277344 85.875 C 372.375 69.980469 372.375 69.980469 365.675781 59.054688 C 359.003906 53.929688 350.546875 51.40625 342.007812 51.992188 L 338.890625 51.992188 C 327.808594 51.6875 316.726562 51.464844 305.640625 51.328125 L 306.792969 53.203125 C 307.949219 55.964844 308.292969 57.621094 308.292969 60.597656 L 308.292969 69.757812 C 308.445312 77.484375 308.523438 85.207031 308.527344 92.933594 L 308.527344 96.023438 C 308.527344 103.308594 307.023438 109.269531 301.597656 114.785156 C 296.445312 119.34375 289.550781 121.660156 282.546875 121.1875 L 280.238281 121.1875 C 270.464844 121.292969 260.6875 121.292969 250.914062 121.1875 C 236.363281 121.144531 221.816406 121.144531 207.269531 121.1875 C 182.253906 121.160156 157.238281 121.230469 132.222656 121.40625 C 122.753906 121.472656 113.285156 121.472656 103.820312 121.40625 L 99.546875 121.40625 C 93.5 120.726562 87.984375 117.792969 84.191406 113.242188 C 79.109375 106.507812 78.996094 101.101562 79.109375 93.046875 L 79.109375 89.734375 C 79.042969 81.714844 79.042969 73.695312 79.109375 65.675781 L 79.109375 56.847656 C 79.339844 54.640625 79.339844 54.640625 80.496094 51.328125 C 71.757812 51.339844 63.023438 51.414062 54.285156 51.550781 C 36.621094 50.886719 36.621094 50.886719 21.613281 57.949219 C 14.683594 65.453125 15.03125 73.511719 15.148438 83.113281 C 15.179688 89.367188 15.179688 95.621094 15.148438 101.875 L 15.148438 116.664062 C 15.078125 134.136719 15.078125 151.609375 15.148438 169.082031 L 15.148438 172.503906 C 15.175781 246.742188 15.175781 320.976562 15.148438 395.210938 C 15.039062 415.738281 15.039062 436.265625 15.148438 456.792969 C 14.800781 467.828125 14.800781 467.828125 19.765625 477.761719 C 27.386719 484.824219 35.003906 485.820312 45.398438 485.707031 L 71.953125 485.707031 C 85.808594 485.773438 99.660156 485.773438 113.515625 485.707031 L 116.171875 485.707031 C 175.054688 485.675781 233.941406 485.675781 292.824219 485.707031 C 308.410156 485.785156 323.996094 485.785156 339.582031 485.707031 L 343.277344 485.707031 C 351.359375 485.597656 358.980469 484.382812 365.214844 479.085938 C 370.757812 473.128906 371.679688 467.71875 372.144531 459.996094 C 372.71875 457.015625 373.527344 455.910156 376.070312 454.144531 C 381.839844 453.484375 381.839844 453.484375 384.960938 455.359375 C 388.421875 459.996094 387.039062 466.394531 386.460938 471.804688 C 384.496094 480.410156 379.53125 487.03125 372.605469 492.769531 C 366.195312 497.042969 358.597656 499.386719 350.785156 499.503906 L 328.730469 499.503906 L 316.839844 499.613281 L 274.464844 499.613281 C 213.8125 499.8125 153.15625 499.921875 92.503906 499.945312 C 76.609375 500.019531 60.714844 500.019531 44.820312 499.945312 L 41.125 499.945312 C 29.046875 500.339844 17.351562 495.851562 8.910156 487.585938 C 3.132812 481.828125 0.117188 474.03125 0.597656 466.0625 L 0.597656 461.648438 C 0.597656 453.777344 0.597656 445.90625 0.597656 438.03125 L 0.484375 423.023438 L 0.484375 369.941406 C 0.4375 346.175781 0.398438 322.410156 0.367188 298.648438 L 0.367188 295.003906 C 0.386719 243.722656 0.308594 192.441406 0.136719 141.164062 C 0.0546875 120.378906 0.0546875 99.59375 0.136719 78.808594 C 0.136719 66.117188 1.984375 57.179688 11.105469 47.796875 C 20.226562 40.070312 30.617188 37.753906 42.394531 37.863281 L 45.511719 37.863281 C 57.402344 37.765625 69.296875 37.765625 81.1875 37.863281 L 100.007812 37.976562 L 136.953125 38.085938 L 138.109375 34.996094 C 143.28125 22.738281 152.804688 12.617188 165.011719 6.410156 C 184.679688 -3.203125 208.246094 -1.9375 226.664062 9.722656 Z M 226.78125 9.832031 "/>
<path style=" stroke:none;fill-rule:nonzero;fill:rgb(94.117647%,94.509804%,94.509804%);fill-opacity:1;" d="M 344.433594 203.296875 L 348.707031 203.296875 C 393.46875 203.773438 432.671875 232.113281 445.34375 273.152344 L 446.84375 277.347656 C 453.261719 303.808594 448.578125 331.621094 433.796875 354.820312 C 430.335938 359.785156 426.292969 364.53125 422.253906 369.167969 L 420.289062 371.375 C 409.769531 381.597656 397.042969 389.507812 382.996094 394.550781 L 380.457031 395.652344 C 368.941406 399.53125 356.734375 401.179688 344.546875 400.511719 L 340.046875 400.511719 C 329.65625 400.398438 320.996094 399.40625 311.414062 395.652344 L 308.410156 394.769531 C 294.65625 389.644531 282.269531 381.652344 272.15625 371.375 L 269.5 368.835938 C 251.613281 350.40625 242.03125 325.984375 242.828125 300.855469 L 242.828125 298.648438 C 243.0625 271.5 254.03125 250.089844 273.425781 230.554688 C 293.054688 212.457031 317.183594 202.964844 344.433594 203.296875 Z M 344.433594 203.296875 "/>
<path style=" stroke:none;fill-rule:nonzero;fill:rgb(49.411765%,49.803922%,49.803922%);fill-opacity:1;" d="M 222.277344 22.195312 C 231.511719 29.808594 238.714844 39.417969 243.292969 50.226562 L 247.21875 50.226562 C 257.109375 50.238281 267 50.347656 276.890625 50.554688 L 279.660156 50.554688 C 284.164062 50.554688 287.511719 51.109375 291.207031 53.535156 C 295.132812 58.0625 295.015625 61.261719 294.902344 67.109375 L 294.902344 70.089844 C 295.007812 75.3125 295.007812 80.539062 294.902344 85.761719 L 294.785156 91.832031 L 294.785156 94.699219 C 294.785156 99.113281 294.441406 101.542969 291.898438 105.40625 C 287.859375 109.046875 285.320312 108.828125 279.777344 108.828125 L 277.46875 108.828125 C 265 108.957031 252.527344 108.996094 240.058594 108.9375 C 198.457031 109.109375 156.851562 109.183594 115.25 109.15625 L 103.703125 109.15625 C 100.265625 108.828125 97.007812 107.519531 94.351562 105.40625 C 91.117188 101.433594 91.695312 96.464844 91.695312 91.609375 L 91.695312 88.851562 C 91.625 82.121094 91.625 75.386719 91.695312 68.65625 L 91.695312 66.007812 C 91.695312 60.929688 92.042969 57.507812 95.503906 53.535156 C 99.660156 50.445312 104.742188 50.996094 109.820312 50.886719 L 112.707031 50.886719 C 120.519531 50.6875 128.332031 50.539062 136.148438 50.445312 C 140.765625 50.445312 140.765625 50.445312 145.152344 49.121094 C 146.308594 47.136719 146.308594 47.136719 147.230469 44.707031 C 152.609375 31.671875 163.328125 21.304688 176.902344 16.011719 C 192.257812 10.496094 208.886719 13.585938 222.277344 22.195312 Z M 222.277344 22.195312 "/>
<path style=" stroke:none;fill-rule:nonzero;fill:rgb(16.470588%,26.666667%,41.176471%);fill-opacity:1;" d="M 444.996094 188.617188 C 476.605469 214.453125 496.234375 251.191406 499.609375 290.8125 C 501.226562 317.628906 496.492188 344.117188 483.445312 368.0625 L 482.289062 370.269531 C 476.75 380.3125 470.746094 389.253906 462.664062 397.859375 L 460.238281 400.621094 C 434.566406 428.445312 398.59375 445.660156 359.90625 448.628906 C 343.507812 449.511719 327.460938 448.847656 311.414062 445.316406 L 308.988281 444.765625 C 281.277344 438.363281 257.722656 424.457031 237.519531 405.585938 L 235.09375 403.378906 C 210.230469 379.828125 195.136719 348.460938 192.605469 315.089844 L 192.492188 311.78125 L 192.492188 309.574219 C 191.335938 267.636719 205.191406 230.886719 235.210938 200.09375 C 291.402344 144.761719 382.566406 139.773438 444.996094 188.617188 Z M 254.835938 200.316406 L 252.066406 202.523438 C 226.320312 223.382812 210.5 254.613281 206.34375 286.398438 C 203.34375 325.023438 214.773438 360.78125 240.75 390.46875 C 260.441406 412.007812 286.816406 426.972656 316.03125 433.175781 L 319.03125 433.839844 C 355.402344 441.011719 395.121094 431.410156 425.714844 412.207031 C 431.027344 408.566406 435.875 404.371094 440.726562 400.070312 L 444.074219 397.199219 C 470.722656 372.832031 485.574219 338.972656 485.0625 303.722656 L 485.0625 301.515625 C 485.230469 264.871094 469.664062 229.765625 441.996094 204.398438 C 424.34375 188.683594 402.878906 177.421875 379.53125 171.621094 L 375.261719 170.519531 C 365.382812 168.605469 355.316406 167.753906 345.242188 167.980469 L 341.199219 167.980469 C 309.101562 168.199219 279.082031 180.671875 254.835938 200.316406 Z M 254.835938 200.316406 "/>
<path style=" stroke:none;fill-rule:nonzero;fill:rgb(16.862745%,27.058824%,41.568627%);fill-opacity:1;" d="M 345.933594 190.164062 L 349.398438 190.164062 C 376.246094 190.429688 402.101562 199.90625 422.253906 216.871094 L 425.714844 219.40625 C 446.265625 237.285156 461.160156 264.65625 462.777344 291.140625 C 464.164062 326.457031 454.003906 354.820312 429.179688 381.308594 C 409.082031 400.722656 382.09375 412.222656 353.554688 413.53125 C 319.261719 413.753906 292.363281 406.136719 266.382812 384.617188 L 263.726562 382.410156 C 242.75 362.972656 230.355469 336.589844 229.089844 308.691406 C 228.628906 284.851562 232.09375 266.199219 244.445312 245.5625 L 246.410156 242.253906 C 262.8125 217.339844 288.605469 199.402344 318.457031 192.148438 C 327.578125 190.382812 336.582031 190.164062 345.933594 190.164062 Z M 268.347656 235.632812 C 251.503906 253.367188 242.378906 276.574219 242.828125 300.523438 L 242.828125 302.730469 C 242.792969 329.25 253.851562 354.679688 273.542969 373.359375 C 286.164062 384.894531 301.542969 393.304688 318.339844 397.859375 L 322.265625 398.964844 C 329.421875 400.730469 336.699219 400.398438 343.972656 400.398438 L 348.242188 400.398438 C 375.515625 400.082031 401.546875 389.445312 420.636719 370.824219 C 433.226562 357.929688 442.132812 342.160156 446.5 325.023438 L 447.769531 320.828125 C 449.269531 315.089844 449.152344 309.351562 448.921875 303.613281 L 448.921875 300.300781 C 448.921875 290.148438 448.113281 280.988281 444.652344 271.277344 L 443.726562 268.738281 C 432.9375 240.328125 409.371094 218.046875 379.53125 208.039062 L 376.644531 206.9375 C 337.503906 193.804688 295.941406 208.152344 268.347656 235.632812 Z M 268.347656 235.632812 "/>
<path style=" stroke:none;fill-rule:nonzero;fill:rgb(89.803922%,67.058824%,61.568627%);fill-opacity:1;" d="M 334.964844 169.414062 L 344.894531 169.414062 L 344.894531 189.28125 L 339.46875 190.050781 C 306.214844 194.90625 275.964844 205.945312 254.605469 232.097656 C 244.910156 244.902344 237.289062 259.027344 232.902344 274.257812 L 232.324219 276.355469 C 224.820312 303.832031 231.515625 333.960938 245.371094 358.460938 C 261.574219 384.191406 287.691406 402.8125 318.109375 410.332031 C 327 412.097656 335.890625 413.203125 344.894531 414.414062 L 344.894531 434.28125 C 322.726562 434.609375 322.726562 434.609375 313.722656 432.074219 L 310.71875 431.519531 C 277.46875 424.789062 247.449219 402.386719 228.976562 375.566406 C 215.234375 355.152344 208.191406 333.742188 206.34375 309.574219 L 206.113281 306.925781 C 203.804688 272.601562 216.851562 240.707031 239.828125 214.664062 L 242.136719 212.015625 C 264.535156 186.632812 300.097656 168.972656 334.964844 169.304688 Z M 334.964844 169.414062 "/>
<path style=" stroke:none;fill-rule:nonzero;fill:rgb(16.470588%,26.27451%,41.176471%);fill-opacity:1;" d="M 205.535156 36.980469 C 213.617188 41.394531 218.699219 47.246094 221.355469 55.742188 C 222.664062 64.867188 220.128906 74.117188 214.3125 81.457031 C 209.023438 86.769531 201.871094 90.03125 194.222656 90.617188 C 184.984375 89.953125 177.132812 86.421875 171.128906 79.914062 C 165.359375 72.628906 165.011719 64.570312 165.933594 55.742188 C 167.550781 47.578125 172.746094 42.5 179.558594 37.753906 C 187.871094 33.121094 196.878906 33.339844 205.535156 37.09375 Z M 205.535156 36.980469 "/>
<path style=" stroke:none;fill-rule:nonzero;fill:rgb(16.862745%,26.666667%,41.568627%);fill-opacity:1;" d="M 61.90625 401.945312 L 69.296875 401.945312 C 92.09375 401.90625 114.890625 401.871094 137.683594 401.835938 C 153.734375 401.707031 169.589844 401.667969 185.449219 401.722656 L 192.027344 401.722656 C 195.722656 402.496094 197.109375 403.929688 199.417969 406.691406 C 199.417969 410.109375 199.417969 410.109375 198.261719 413.3125 C 194.453125 415.738281 193.414062 415.851562 189.027344 415.851562 L 157.160156 415.851562 C 135.761719 416.007812 114.363281 416.082031 92.964844 416.070312 C 84.769531 416.015625 76.570312 416.015625 68.371094 416.070312 L 57.75 416.070312 C 55.09375 415.519531 55.09375 415.519531 53.015625 413.53125 C 51.632812 411.105469 51.632812 411.105469 51.863281 407.683594 C 53.480469 402.386719 56.597656 401.945312 61.90625 401.945312 Z M 61.90625 401.945312 "/>
<path style=" stroke:none;fill-rule:nonzero;fill:rgb(16.470588%,26.666667%,41.176471%);fill-opacity:1;" d="M 61.90625 187.734375 L 73.335938 187.734375 C 87.382812 187.601562 101.433594 187.601562 115.480469 187.734375 C 133.222656 187.816406 150.964844 187.78125 168.707031 187.625 C 175.480469 187.578125 182.253906 187.578125 189.027344 187.625 L 192.027344 187.625 C 195.722656 188.398438 197.109375 189.832031 199.417969 192.589844 C 199.417969 195.679688 198.839844 197.445312 196.761719 199.875 C 194.105469 201.859375 192.492188 201.859375 189.140625 201.859375 L 177.710938 201.859375 C 163.664062 201.988281 149.617188 201.988281 135.570312 201.859375 C 117.75 201.757812 99.929688 201.757812 82.113281 201.859375 C 76.570312 201.882812 71.027344 201.882812 65.488281 201.859375 L 58.789062 201.859375 C 55.671875 201.308594 54.632812 200.535156 52.785156 198.109375 C 52.09375 192.480469 52.09375 192.480469 54.171875 189.609375 C 56.941406 187.734375 58.558594 187.734375 61.90625 187.734375 Z M 61.90625 187.734375 "/>
<path style=" stroke:none;fill-rule:nonzero;fill:rgb(17.254902%,27.45098%,41.960784%);fill-opacity:1;" d="M 341.429688 241.148438 C 348.359375 240.375 348.359375 240.375 351.476562 242.472656 C 353.4375 245.011719 353.4375 246.445312 353.324219 249.535156 L 353.324219 259.25 C 353.28125 265.28125 353.203125 271.316406 353.09375 277.347656 L 352.976562 295.226562 L 356.210938 295.226562 C 364.292969 295.0625 372.375 294.953125 380.457031 294.894531 L 384.960938 294.894531 C 389 295.226562 390.5 296 393.386719 298.535156 C 393.042969 302.289062 393.042969 302.289062 392.234375 306.261719 C 387.613281 309.132812 383.6875 308.800781 378.378906 308.800781 L 375.375 308.800781 C 367.871094 308.867188 360.367188 308.867188 352.863281 308.800781 L 349.976562 308.800781 C 343.164062 308.800781 343.164062 308.800781 340.625 307.144531 C 338.542969 304.386719 338.660156 302.621094 338.660156 299.308594 L 338.660156 287.5 C 338.597656 277.605469 338.636719 267.707031 338.777344 257.8125 L 338.777344 247 C 339.121094 244.347656 339.121094 244.347656 341.429688 241.039062 Z M 341.429688 241.148438 "/>
<path style=" stroke:none;fill-rule:nonzero;fill:rgb(14.901961%,27.45098%,32.54902%);fill-opacity:1;" d="M 62.484375 241.921875 L 69.066406 241.921875 C 80.535156 241.832031 92.003906 241.832031 103.472656 241.921875 C 122.523438 242.011719 141.574219 241.972656 160.625 241.8125 L 166.050781 241.8125 C 168.9375 242.363281 169.976562 243.355469 171.707031 245.5625 C 172.167969 248.324219 172.167969 248.324219 171.707031 251.082031 C 169.976562 253.289062 168.9375 254.28125 166.050781 254.832031 L 154.15625 254.832031 C 142.691406 254.957031 131.21875 254.957031 119.75 254.832031 C 101.742188 254.683594 83.730469 254.644531 65.71875 254.722656 L 62.484375 254.722656 C 55.324219 254.722656 55.324219 254.722656 52.785156 252.183594 C 52.554688 248.324219 52.554688 248.324219 52.785156 244.460938 C 55.902344 241.480469 58.328125 241.921875 62.484375 241.921875 Z M 62.484375 348.972656 L 65.71875 348.972656 C 84.898438 348.972656 104.078125 348.972656 123.261719 348.972656 C 136.109375 348.878906 148.421875 348.84375 160.738281 348.859375 L 166.050781 348.859375 C 168.9375 349.414062 169.976562 350.40625 171.707031 352.613281 C 171.476562 356.585938 171.246094 358.574219 168.242188 361.441406 C 164.78125 361.664062 161.199219 361.773438 157.621094 361.773438 L 154.390625 361.773438 C 142.921875 361.859375 131.453125 361.859375 119.984375 361.773438 C 101.894531 361.683594 83.804688 361.683594 65.71875 361.773438 L 62.601562 361.773438 C 55.441406 361.773438 55.441406 361.773438 52.902344 359.234375 C 52.671875 355.371094 52.671875 355.371094 52.902344 351.507812 C 56.019531 348.53125 58.445312 348.972656 62.601562 348.972656 Z M 62.484375 348.972656 "/>
<path style=" stroke:none;fill-rule:nonzero;fill:rgb(17.254902%,27.058824%,41.960784%);fill-opacity:1;" d="M 65.949219 294.785156 C 78.265625 294.785156 90.582031 294.785156 102.898438 294.785156 C 112.785156 294.871094 125.792969 294.871094 138.800781 294.785156 L 150.925781 294.785156 C 157.160156 294.785156 157.160156 294.785156 160.046875 296.660156 C 161.894531 299.640625 161.664062 301.847656 161.199219 305.160156 C 160.046875 307.035156 160.046875 307.035156 157.738281 308.46875 C 154.390625 308.800781 151.386719 308.910156 148.039062 308.910156 L 145.152344 308.910156 C 134.878906 309.039062 124.601562 309.039062 114.324219 308.910156 C 101.316406 308.824219 88.308594 308.824219 75.300781 308.910156 L 63.175781 308.910156 C 56.941406 308.910156 56.941406 308.910156 54.054688 307.035156 C 52.207031 304.054688 52.441406 301.847656 52.902344 298.535156 C 55.789062 293.902344 60.984375 294.785156 66.0625 294.785156 Z M 65.949219 294.785156 "/>
<path style=" stroke:none;fill-rule:nonzero;fill:rgb(92.54902%,92.941176%,93.333333%);fill-opacity:1;" d="M 200.226562 49.34375 C 207.152344 54.527344 207.152344 54.527344 207.960938 59.273438 C 208.191406 65.675781 206.808594 69.316406 202.304688 74.171875 C 198.378906 77.484375 193.875 77.152344 189.027344 76.710938 C 185.285156 75.121094 182.085938 72.558594 179.789062 69.316406 C 178.28125 64.90625 178.28125 60.152344 179.789062 55.742188 C 184.523438 48.347656 191.453125 45.589844 200.226562 49.34375 Z M 200.226562 49.34375 "/>
<path style=" stroke:none;fill-rule:nonzero;fill:rgb(18.431373%,28.235294%,42.745098%);fill-opacity:1;" d="M 260.609375 294.785156 L 264.074219 294.785156 C 267.882812 295.226562 269.5 296.21875 272.15625 298.535156 C 271.808594 302.289062 271.808594 302.289062 271 306.261719 C 267.078125 308.800781 265.230469 308.800781 260.609375 308.800781 L 256.914062 308.800781 C 253.683594 308.46875 253.683594 308.46875 251.488281 307.035156 C 249.527344 304.164062 249.757812 301.957031 250.21875 298.535156 C 252.992188 294.675781 255.875 294.785156 260.609375 294.785156 Z M 260.609375 294.785156 "/>
<path style=" stroke:none;fill-rule:nonzero;fill:rgb(18.823529%,28.627451%,42.745098%);fill-opacity:1;" d="M 346.742188 372.589844 C 350.667969 373.582031 350.667969 373.582031 352.976562 376.894531 C 353.667969 382.300781 354.132812 387.375 351.015625 392.011719 C 348.550781 393.625 345.480469 394.148438 342.585938 393.445312 C 340.738281 392.234375 340.738281 392.234375 339.121094 390.136719 C 338.660156 386.824219 338.660156 386.824219 338.660156 382.960938 L 338.660156 379.101562 C 339.121094 375.789062 339.121094 375.789062 340.625 373.582031 C 342.585938 372.476562 342.585938 372.476562 346.742188 372.589844 Z M 346.742188 372.589844 "/>
<path style=" stroke:none;fill-rule:nonzero;fill:rgb(19.215686%,29.019608%,43.137255%);fill-opacity:1;" d="M 289.9375 349.191406 C 292.011719 349.824219 293.855469 351.011719 295.25 352.613281 C 295.941406 356.144531 295.941406 358.351562 293.746094 361.441406 C 287.972656 367.84375 287.972656 367.84375 282.664062 368.394531 C 279.082031 368.0625 279.082031 368.0625 276.890625 366.1875 C 275.273438 362.875 275.734375 361.550781 276.773438 358.132812 C 280.238281 353.496094 283.703125 349.300781 289.9375 349.191406 Z M 289.9375 349.191406 "/>
<path style=" stroke:none;fill-rule:nonzero;fill:rgb(18.431373%,28.235294%,42.745098%);fill-opacity:1;" d="M 430.335938 294.785156 L 433.796875 294.675781 C 438.070312 295.335938 439.457031 296.441406 441.878906 299.640625 C 441.878906 303.0625 441.878906 303.0625 440.726562 306.261719 C 436.800781 308.800781 434.953125 308.800781 430.335938 308.800781 L 426.640625 308.800781 C 423.40625 308.46875 423.40625 308.46875 421.210938 307.035156 C 419.25 304.164062 419.480469 301.957031 419.941406 298.535156 C 422.714844 294.675781 425.601562 294.785156 430.335938 294.785156 Z M 430.335938 294.785156 "/>
<path style=" stroke:none;fill-rule:nonzero;fill:rgb(18.823529%,28.627451%,42.745098%);fill-opacity:1;" d="M 346.742188 210.359375 C 350.667969 211.351562 350.667969 211.351562 352.976562 214.664062 C 353.667969 220.070312 354.132812 225.148438 351.015625 229.78125 C 348.550781 231.394531 345.480469 231.917969 342.585938 231.214844 C 340.738281 230.003906 340.738281 230.003906 339.121094 227.90625 C 338.660156 224.59375 338.660156 224.59375 338.660156 220.730469 L 338.660156 216.871094 C 339.121094 213.558594 339.121094 213.558594 340.625 211.351562 C 342.585938 210.25 342.585938 210.25 346.742188 210.359375 Z M 346.742188 210.359375 "/>
<path style=" stroke:none;fill-rule:nonzero;fill:rgb(18.431373%,28.235294%,42.745098%);fill-opacity:1;" d="M 403.546875 349.082031 C 408.859375 351.066406 412.4375 354.601562 415.324219 359.234375 C 415.671875 362.433594 415.785156 364.089844 414.054688 366.738281 C 410.589844 368.835938 408.859375 368.835938 404.933594 368.0625 C 400.316406 364.972656 397.429688 361.773438 395.464844 356.808594 C 395.695312 353.71875 395.695312 353.71875 397.542969 351.066406 C 400.316406 349.300781 400.316406 349.300781 403.546875 348.972656 Z M 403.546875 349.082031 "/>
<path style=" stroke:none;fill-rule:nonzero;fill:rgb(18.039216%,27.843137%,42.352941%);fill-opacity:1;" d="M 408.742188 234.859375 C 411.859375 235.632812 411.859375 235.632812 414.054688 236.84375 C 415.324219 238.941406 415.324219 238.941406 415.441406 242.582031 C 413.824219 247.882812 411.050781 250.53125 406.085938 253.289062 C 402.164062 253.949219 400.316406 253.949219 396.964844 251.964844 C 395.234375 249.207031 395.351562 247.550781 395.695312 244.460938 C 399.160156 239.824219 402.855469 236.074219 408.742188 234.859375 Z M 282.316406 234.96875 C 287.511719 235.851562 290.398438 238.609375 294.09375 242.253906 C 295.710938 245.34375 295.480469 247.769531 295.25 251.082031 C 292.9375 253.289062 292.9375 253.289062 289.246094 253.949219 C 283.816406 253.179688 281.96875 251.414062 278.390625 247.660156 C 276.3125 245.011719 275.390625 243.246094 275.621094 240.046875 C 277.351562 236.515625 278.277344 235.742188 282.316406 234.96875 Z M 282.316406 234.96875 "/>
</g>
</svg>
