<?xml version="1.0" encoding="UTF-8"?>
<svg xmlns="http://www.w3.org/2000/svg" xmlns:xlink="http://www.w3.org/1999/xlink" width="500px" height="500px" viewBox="0 0 500 500" version="1.1">
<g id="surface1">
<path style="fill:none;stroke-width:0.3;stroke-linecap:butt;stroke-linejoin:miter;stroke:rgb(0%,0%,0%);stroke-opacity:1;stroke-miterlimit:4;" d="M 150 175 C 146 203 164 226 191 231 C 256 229 324 231 390 230 C 419 226 453 238 477 221 C 503 203 493 170 495 142 L 495 43 C 488 18 464 3 436 7 L 235 7 C 207 8 175 1 158 27 C 143 52 153 86 150 115 C 141 116 128 133 123 123 C 119 114 111 106 102 100 C 138 74 118 13 74 14 C 29 11 9 77 46 100 C 32 106 23 121 19 134 C 15 173 18 215 17 255 C 13 274 26 292 46 287 L 108 287 C 132 289 130 262 129 245 C 130 225 128 204 130 184 C 137 184 144 178 150 175 M 479 53 C 481 96 481 142 479 185 C 480 200 466 214 451 214 C 367 216 279 216 195 214 C 170 214 162 187 166 166 C 176 162 186 158 194 149 C 200 138 195 126 206 118 L 248 70 C 257 55 234 52 230 65 L 189 114 C 182 110 174 105 166 108 C 169 80 154 35 189 24 C 260 22 331 24 402 23 C 429 24 477 14 479 53 M 43 64 C 42 63 41 59 43 58 C 45 20 106 24 105 61 C 107 99 44 103 43 64 M 114 151 L 147 135 C 157 132 171 116 179 129 C 187 143 166 147 157 153 L 92 187 C 73 192 85 156 66 167 C 57 177 65 193 75 200 C 88 207 102 201 113 194 L 113 261 C 117 277 98 269 89 271 L 55 271 C 44 271 29 274 34 258 L 34 157 C 25 116 83 91 106 125 C 111 133 113 142 114 151 Z M 114 151 " transform="matrix(0.976562,0,0,0.976562,0,0)"/>
<path style="fill:none;stroke-width:0.3;stroke-linecap:butt;stroke-linejoin:miter;stroke:rgb(90.980392%,80%,63.137255%);stroke-opacity:1;stroke-miterlimit:4;" d="M 195 214 L 451 214 C 466 214 480 200 479 185 L 479 53 C 477 14 429 24 402 23 C 331 24 260 22 189 24 C 154 35 169 80 166 108 C 174 105 182 110 189 114 L 230 65 C 234 52 257 55 248 70 L 206 118 C 195 126 200 138 194 149 C 186 158 176 162 166 166 C 162 187 170 214 195 214 M 347 61 C 323 63 297 63 273 61 C 262 61 264 43 275 45 L 343 45 C 354 41 359 61 347 61 M 415 61 C 405 63 392 63 382 61 C 372 61 373 44 383 45 L 414 45 C 424 44 425 62 415 61 M 416 89 C 431 99 412 110 400 105 L 267 105 C 251 95 271 84 283 89 L 416 89 M 354 133 C 367 142 350 154 339 149 C 311 148 283 150 256 148 C 241 140 259 128 270 133 L 354 133 M 417 133 C 430 142 413 154 402 149 C 392 150 371 151 378 136 C 389 130 404 135 417 133 M 269 177 C 286 187 262 198 251 193 C 239 199 217 184 235 177 C 245 175 259 175 269 177 M 416 177 C 432 184 413 199 401 193 L 315 193 C 303 199 284 183 301 177 C 338 175 379 175 416 177 Z M 416 177 " transform="matrix(0.976562,0,0,0.976562,0,0)"/>
<path style="fill:none;stroke-width:0.3;stroke-linecap:butt;stroke-linejoin:miter;stroke:rgb(97.254902%,92.941176%,90.196078%);stroke-opacity:1;stroke-miterlimit:4;" d="M 43 58 L 43 64 C 44 103 107 99 105 61 C 106 24 45 20 43 58 Z M 43 58 " transform="matrix(0.976562,0,0,0.976562,0,0)"/>
<path style="fill:none;stroke-width:0.3;stroke-linecap:butt;stroke-linejoin:miter;stroke:rgb(0%,0%,0%);stroke-opacity:1;stroke-miterlimit:4;" d="M 273 61 L 347 61 C 359 61 354 41 343 45 L 275 45 C 264 43 262 61 273 61 Z M 382 61 L 415 61 C 425 62 424 44 414 45 L 383 45 C 373 44 372 61 382 61 Z M 382 61 " transform="matrix(0.976562,0,0,0.976562,0,0)"/>
<path style="fill:none;stroke-width:0.3;stroke-linecap:butt;stroke-linejoin:miter;stroke:rgb(40.784314%,34.117647%,20.784314%);stroke-opacity:0.8;stroke-miterlimit:4;" d="M 479 185 C 481 142 481 96 479 53 Z M 479 185 " transform="matrix(0.976562,0,0,0.976562,0,0)"/>
<path style="fill:none;stroke-width:0.3;stroke-linecap:butt;stroke-linejoin:miter;stroke:rgb(43.529412%,41.960784%,40.392157%);stroke-opacity:0.8;stroke-miterlimit:4;" d="M 43 64 L 43 58 C 41 59 42 63 43 64 Z M 43 64 " transform="matrix(0.976562,0,0,0.976562,0,0)"/>
<path style="fill:none;stroke-width:0.3;stroke-linecap:butt;stroke-linejoin:miter;stroke:rgb(46.27451%,38.823529%,24.313725%);stroke-opacity:0.8;stroke-miterlimit:4;" d="M 347 61 L 273 61 C 297 63 323 63 347 61 Z M 415 61 L 382 61 C 392 63 405 63 415 61 Z M 415 61 " transform="matrix(0.976562,0,0,0.976562,0,0)"/>
<path style="fill:none;stroke-width:0.3;stroke-linecap:butt;stroke-linejoin:miter;stroke:rgb(0%,0%,0%);stroke-opacity:1;stroke-miterlimit:4;" d="M 416 89 L 283 89 C 271 84 251 95 267 105 L 400 105 C 412 110 431 99 416 89 Z M 416 89 " transform="matrix(0.976562,0,0,0.976562,0,0)"/>
<path style="fill:none;stroke-width:0.3;stroke-linecap:butt;stroke-linejoin:miter;stroke:rgb(90.980392%,74.509804%,61.960784%);stroke-opacity:1;stroke-miterlimit:4;" d="M 114 151 C 113 142 111 133 106 125 C 83 91 25 116 34 157 L 34 258 C 29 274 44 271 55 271 L 89 271 C 98 269 117 277 113 261 L 113 194 C 102 201 88 207 75 200 C 65 193 57 177 66 167 C 85 156 73 192 92 187 L 157 153 C 166 147 187 143 179 129 C 171 116 157 132 147 135 Z M 114 151 " transform="matrix(0.976562,0,0,0.976562,0,0)"/>
<path style="fill:none;stroke-width:0.3;stroke-linecap:butt;stroke-linejoin:miter;stroke:rgb(0%,0%,0%);stroke-opacity:1;stroke-miterlimit:4;" d="M 354 133 L 270 133 C 259 128 241 140 256 148 C 283 150 311 148 339 149 C 350 154 367 142 354 133 Z M 354 133 " transform="matrix(0.976562,0,0,0.976562,0,0)"/>
<path style="fill:none;stroke-width:0.3;stroke-linecap:butt;stroke-linejoin:miter;stroke:rgb(0%,0%,0%);stroke-opacity:1;stroke-miterlimit:4;" d="M 417 133 C 404 135 389 130 378 136 C 371 151 392 150 402 149 C 413 154 430 142 417 133 Z M 417 133 " transform="matrix(0.976562,0,0,0.976562,0,0)"/>
<path style="fill:none;stroke-width:0.3;stroke-linecap:butt;stroke-linejoin:miter;stroke:rgb(37.647059%,31.764706%,19.607843%);stroke-opacity:0.8;stroke-miterlimit:4;" d="M 235 177 L 269 177 C 259 175 245 175 235 177 Z M 235 177 " transform="matrix(0.976562,0,0,0.976562,0,0)"/>
<path style="fill:none;stroke-width:0.3;stroke-linecap:butt;stroke-linejoin:miter;stroke:rgb(36.862745%,31.372549%,19.215686%);stroke-opacity:0.8;stroke-miterlimit:4;" d="M 301 177 L 416 177 C 379 175 338 175 301 177 Z M 301 177 " transform="matrix(0.976562,0,0,0.976562,0,0)"/>
<path style="fill:none;stroke-width:0.3;stroke-linecap:butt;stroke-linejoin:miter;stroke:rgb(0%,0%,0%);stroke-opacity:1;stroke-miterlimit:4;" d="M 269 177 L 235 177 C 217 184 239 199 251 193 C 262 198 286 187 269 177 Z M 416 177 L 301 177 C 284 183 303 199 315 193 L 401 193 C 413 199 432 184 416 177 Z M 416 177 " transform="matrix(0.976562,0,0,0.976562,0,0)"/>
<path style="fill:none;stroke-width:0.3;stroke-linecap:butt;stroke-linejoin:miter;stroke:rgb(45.882353%,38.431373%,23.921569%);stroke-opacity:0.8;stroke-miterlimit:4;" d="M 451 214 L 195 214 C 279 216 367 216 451 214 Z M 451 214 " transform="matrix(0.976562,0,0,0.976562,0,0)"/>
<path style="fill:none;stroke-width:0.3;stroke-linecap:butt;stroke-linejoin:miter;stroke:rgb(0%,0%,0%);stroke-opacity:1;stroke-miterlimit:4;" d="M 288 367 C 312 348 314 312 294 290 C 284.044 279.44 270.06 273.624 255.552 274.004 C 241.044 274.388 227.388 280.932 218 292 C 208.648 302.732 204.1 316.828 205.424 331 C 206.748 345.172 213.824 358.184 225 367 C 211 372 197 382 189 394 C 184 389 176 384 169 383 C 183 367 193 345 185 324 C 178 303 158 290 136 289 C 88 290 68 354 105 382 C 83 391 63 410 55 437 C 37 435 20 442 18 460 C 16 476 12 503 34 504 L 478 504 C 503 505 493 476 496 460 C 494 443 475 434 458 437 C 452 413 433 391 408 382 C 431 363 434 327 414 305 C 394 285 358 284 339 307 C 319 326 321 363 345 382 C 337 384 330 390 323 394 C 316 381 302 372 288 367 M 291 322 C 293 324 293 328 291 330 C 289 372 219 368 222 326 C 219 283 290 279 291 322 M 143 306 C 168 310 181 343 164 362 C 150 383 115 379 105 356 C 93 331 116 301 143 306 M 383 306 C 407 311 421 343 404 363 C 389 383 354 378 345 355 C 333 331 356 301 383 306 M 312 404 C 307 413 299 421 297 431 C 293 445 273 435 262 438 L 219 438 C 216 428 211 418 205 409 C 198 401 215 393 220 387 C 249 369 291 376 312 404 M 202 438 L 72 438 C 90 378 184 378 202 438 M 441 438 L 312 438 C 328 378 424 378 441 438 M 479 487 L 34 487 C 35 475 28 452 47 454 L 465 454 C 485 450 478 475 479 487 Z M 479 487 " transform="matrix(0.976562,0,0,0.976562,0,0)"/>
<path style="fill:none;stroke-width:0.3;stroke-linecap:butt;stroke-linejoin:miter;stroke:rgb(97.254902%,92.941176%,90.196078%);stroke-opacity:1;stroke-miterlimit:4;" d="M 291 330 L 291 322 C 290 279 219 283 222 326 C 219 368 289 372 291 330 Z M 143 306 C 116 301 93 331 105 356 C 115 379 150 383 164 362 C 181 343 168 310 143 306 Z M 383 306 C 356 301 333 331 345 355 C 354 378 389 383 404 363 C 421 343 407 311 383 306 Z M 383 306 " transform="matrix(0.976562,0,0,0.976562,0,0)"/>
<path style="fill:none;stroke-width:0.3;stroke-linecap:butt;stroke-linejoin:miter;stroke:rgb(47.45098%,45.882353%,43.921569%);stroke-opacity:0.8;stroke-miterlimit:4;" d="M 291 330 C 293 328 293 324 291 322 Z M 291 330 " transform="matrix(0.976562,0,0,0.976562,0,0)"/>
<path style="fill:none;stroke-width:0.3;stroke-linecap:butt;stroke-linejoin:miter;stroke:rgb(45.490196%,57.647059%,53.72549%);stroke-opacity:1;stroke-miterlimit:4;" d="M 312 404 C 289.932 376.072 250.592 368.804 220 387 C 215 393 198 401 205 409 C 211 418 216 428 219 438 L 262 438 C 273 435 293 445 297 431 C 299 421 307 413 312 404 Z M 312 404 " transform="matrix(0.976562,0,0,0.976562,0,0)"/>
<path style="fill:none;stroke-width:0.3;stroke-linecap:butt;stroke-linejoin:miter;stroke:rgb(86.666667%,65.490196%,65.882353%);stroke-opacity:1;stroke-miterlimit:4;" d="M 202 438 C 184 378 90 378 72 438 Z M 202 438 " transform="matrix(0.976562,0,0,0.976562,0,0)"/>
<path style="fill:none;stroke-width:0.3;stroke-linecap:butt;stroke-linejoin:miter;stroke:rgb(90.980392%,81.960784%,66.27451%);stroke-opacity:1;stroke-miterlimit:4;" d="M 441 438 C 424 378 328 378 312 438 Z M 441 438 " transform="matrix(0.976562,0,0,0.976562,0,0)"/>
<path style="fill:none;stroke-width:0.3;stroke-linecap:butt;stroke-linejoin:miter;stroke:rgb(81.176471%,83.529412%,85.882353%);stroke-opacity:1;stroke-miterlimit:4;" d="M 479 487 C 478 475 485 450 465 454 L 47 454 C 28 452 35 475 34 487 Z M 479 487 " transform="matrix(0.976562,0,0,0.976562,0,0)"/>
<path style=" stroke:none;fill-rule:nonzero;fill:rgb(0%,0%,0%);fill-opacity:1;" d="M 146.484375 170.898438 C 142.578125 198.242188 160.15625 220.703125 186.523438 225.585938 C 250 223.632812 316.40625 225.585938 380.859375 224.609375 C 409.179688 220.703125 442.382812 232.421875 465.820312 215.820312 C 491.210938 198.242188 481.445312 166.015625 483.398438 138.671875 L 483.398438 41.992188 C 476.5625 17.578125 453.125 2.929688 425.78125 6.835938 L 229.492188 6.835938 C 202.148438 7.8125 170.898438 0.976562 154.296875 26.367188 C 139.648438 50.78125 149.414062 83.984375 146.484375 112.304688 C 137.695312 113.28125 125 129.882812 120.117188 120.117188 C 116.210938 111.328125 108.398438 103.515625 99.609375 97.65625 C 134.765625 72.265625 115.234375 12.695312 72.265625 13.671875 C 28.320312 10.742188 8.789062 75.195312 44.921875 97.65625 C 31.25 103.515625 22.460938 118.164062 18.554688 130.859375 C 14.648438 168.945312 17.578125 209.960938 16.601562 249.023438 C 12.695312 267.578125 25.390625 285.15625 44.921875 280.273438 L 105.46875 280.273438 C 128.90625 282.226562 126.953125 255.859375 125.976562 239.257812 C 126.953125 219.726562 125 199.21875 126.953125 179.6875 C 133.789062 179.6875 140.625 173.828125 146.484375 170.898438 M 467.773438 51.757812 C 469.726562 93.75 469.726562 138.671875 467.773438 180.664062 C 468.75 195.3125 455.078125 208.984375 440.429688 208.984375 C 358.398438 210.9375 272.460938 210.9375 190.429688 208.984375 C 166.015625 208.984375 158.203125 182.617188 162.109375 162.109375 C 171.875 158.203125 181.640625 154.296875 189.453125 145.507812 C 195.3125 134.765625 190.429688 123.046875 201.171875 115.234375 L 242.1875 68.359375 C 250.976562 53.710938 228.515625 50.78125 224.609375 63.476562 L 184.570312 111.328125 C 177.734375 107.421875 169.921875 102.539062 162.109375 105.46875 C 165.039062 78.125 150.390625 34.179688 184.570312 23.4375 C 253.90625 21.484375 323.242188 23.4375 392.578125 22.460938 C 418.945312 23.4375 465.820312 13.671875 467.773438 51.757812 M 41.992188 62.5 C 41.015625 61.523438 40.039062 57.617188 41.992188 56.640625 C 43.945312 19.53125 103.515625 23.4375 102.539062 59.570312 C 104.492188 96.679688 42.96875 100.585938 41.992188 62.5 M 111.328125 147.460938 L 143.554688 131.835938 C 153.320312 128.90625 166.992188 113.28125 174.804688 125.976562 C 182.617188 139.648438 162.109375 143.554688 153.320312 149.414062 L 89.84375 182.617188 C 71.289062 187.5 83.007812 152.34375 64.453125 163.085938 C 55.664062 172.851562 63.476562 188.476562 73.242188 195.3125 C 85.9375 202.148438 99.609375 196.289062 110.351562 189.453125 L 110.351562 254.882812 C 114.257812 270.507812 95.703125 262.695312 86.914062 264.648438 L 53.710938 264.648438 C 42.96875 264.648438 28.320312 267.578125 33.203125 251.953125 L 33.203125 153.320312 C 24.414062 113.28125 81.054688 88.867188 103.515625 122.070312 C 108.398438 129.882812 110.351562 138.671875 111.328125 147.460938 Z M 111.328125 147.460938 "/>
<path style=" stroke:none;fill-rule:nonzero;fill:rgb(90.980392%,80%,63.137255%);fill-opacity:1;" d="M 190.429688 208.984375 L 440.429688 208.984375 C 455.078125 208.984375 468.75 195.3125 467.773438 180.664062 L 467.773438 51.757812 C 465.820312 13.671875 418.945312 23.4375 392.578125 22.460938 C 323.242188 23.4375 253.90625 21.484375 184.570312 23.4375 C 150.390625 34.179688 165.039062 78.125 162.109375 105.46875 C 169.921875 102.539062 177.734375 107.421875 184.570312 111.328125 L 224.609375 63.476562 C 228.515625 50.78125 250.976562 53.710938 242.1875 68.359375 L 201.171875 115.234375 C 190.429688 123.046875 195.3125 134.765625 189.453125 145.507812 C 181.640625 154.296875 171.875 158.203125 162.109375 162.109375 C 158.203125 182.617188 166.015625 208.984375 190.429688 208.984375 M 338.867188 59.570312 C 315.429688 61.523438 290.039062 61.523438 266.601562 59.570312 C 255.859375 59.570312 257.8125 41.992188 268.554688 43.945312 L 334.960938 43.945312 C 345.703125 40.039062 350.585938 59.570312 338.867188 59.570312 M 405.273438 59.570312 C 395.507812 61.523438 382.8125 61.523438 373.046875 59.570312 C 363.28125 59.570312 364.257812 42.96875 374.023438 43.945312 L 404.296875 43.945312 C 414.0625 42.96875 415.039062 60.546875 405.273438 59.570312 M 406.25 86.914062 C 420.898438 96.679688 402.34375 107.421875 390.625 102.539062 L 260.742188 102.539062 C 245.117188 92.773438 264.648438 82.03125 276.367188 86.914062 L 406.25 86.914062 M 345.703125 129.882812 C 358.398438 138.671875 341.796875 150.390625 331.054688 145.507812 C 303.710938 144.53125 276.367188 146.484375 250 144.53125 C 235.351562 136.71875 252.929688 125 263.671875 129.882812 L 345.703125 129.882812 M 407.226562 129.882812 C 419.921875 138.671875 403.320312 150.390625 392.578125 145.507812 C 382.8125 146.484375 362.304688 147.460938 369.140625 132.8125 C 379.882812 126.953125 394.53125 131.835938 407.226562 129.882812 M 262.695312 172.851562 C 279.296875 182.617188 255.859375 193.359375 245.117188 188.476562 C 233.398438 194.335938 211.914062 179.6875 229.492188 172.851562 C 239.257812 170.898438 252.929688 170.898438 262.695312 172.851562 M 406.25 172.851562 C 421.875 179.6875 403.320312 194.335938 391.601562 188.476562 L 307.617188 188.476562 C 295.898438 194.335938 277.34375 178.710938 293.945312 172.851562 C 330.078125 170.898438 370.117188 170.898438 406.25 172.851562 Z M 406.25 172.851562 "/>
<path style=" stroke:none;fill-rule:nonzero;fill:rgb(97.254902%,92.941176%,90.196078%);fill-opacity:1;" d="M 41.992188 56.640625 L 41.992188 62.5 C 42.96875 100.585938 104.492188 96.679688 102.539062 59.570312 C 103.515625 23.4375 43.945312 19.53125 41.992188 56.640625 Z M 41.992188 56.640625 "/>
<path style=" stroke:none;fill-rule:nonzero;fill:rgb(0%,0%,0%);fill-opacity:1;" d="M 266.601562 59.570312 L 338.867188 59.570312 C 350.585938 59.570312 345.703125 40.039062 334.960938 43.945312 L 268.554688 43.945312 C 257.8125 41.992188 255.859375 59.570312 266.601562 59.570312 Z M 373.046875 59.570312 L 405.273438 59.570312 C 415.039062 60.546875 414.0625 42.96875 404.296875 43.945312 L 374.023438 43.945312 C 364.257812 42.96875 363.28125 59.570312 373.046875 59.570312 Z M 373.046875 59.570312 "/>
<path style=" stroke:none;fill-rule:nonzero;fill:rgb(40.784314%,34.117647%,20.784314%);fill-opacity:0.8;" d="M 467.773438 180.664062 C 469.726562 138.671875 469.726562 93.75 467.773438 51.757812 Z M 467.773438 180.664062 "/>
<path style=" stroke:none;fill-rule:nonzero;fill:rgb(43.529412%,41.960784%,40.392157%);fill-opacity:0.8;" d="M 41.992188 62.5 L 41.992188 56.640625 C 40.039062 57.617188 41.015625 61.523438 41.992188 62.5 Z M 41.992188 62.5 "/>
<path style=" stroke:none;fill-rule:nonzero;fill:rgb(46.27451%,38.823529%,24.313725%);fill-opacity:0.8;" d="M 338.867188 59.570312 L 266.601562 59.570312 C 290.039062 61.523438 315.429688 61.523438 338.867188 59.570312 Z M 405.273438 59.570312 L 373.046875 59.570312 C 382.8125 61.523438 395.507812 61.523438 405.273438 59.570312 Z M 405.273438 59.570312 "/>
<path style=" stroke:none;fill-rule:nonzero;fill:rgb(0%,0%,0%);fill-opacity:1;" d="M 406.25 86.914062 L 276.367188 86.914062 C 264.648438 82.03125 245.117188 92.773438 260.742188 102.539062 L 390.625 102.539062 C 402.34375 107.421875 420.898438 96.679688 406.25 86.914062 Z M 406.25 86.914062 "/>
<path style=" stroke:none;fill-rule:nonzero;fill:rgb(90.980392%,74.509804%,61.960784%);fill-opacity:1;" d="M 111.328125 147.460938 C 110.351562 138.671875 108.398438 129.882812 103.515625 122.070312 C 81.054688 88.867188 24.414062 113.28125 33.203125 153.320312 L 33.203125 251.953125 C 28.320312 267.578125 42.96875 264.648438 53.710938 264.648438 L 86.914062 264.648438 C 95.703125 262.695312 114.257812 270.507812 110.351562 254.882812 L 110.351562 189.453125 C 99.609375 196.289062 85.9375 202.148438 73.242188 195.3125 C 63.476562 188.476562 55.664062 172.851562 64.453125 163.085938 C 83.007812 152.34375 71.289062 187.5 89.84375 182.617188 L 153.320312 149.414062 C 162.109375 143.554688 182.617188 139.648438 174.804688 125.976562 C 166.992188 113.28125 153.320312 128.90625 143.554688 131.835938 Z M 111.328125 147.460938 "/>
<path style=" stroke:none;fill-rule:nonzero;fill:rgb(0%,0%,0%);fill-opacity:1;" d="M 345.703125 129.882812 L 263.671875 129.882812 C 252.929688 125 235.351562 136.71875 250 144.53125 C 276.367188 146.484375 303.710938 144.53125 331.054688 145.507812 C 341.796875 150.390625 358.398438 138.671875 345.703125 129.882812 Z M 345.703125 129.882812 "/>
<path style=" stroke:none;fill-rule:nonzero;fill:rgb(0%,0%,0%);fill-opacity:1;" d="M 407.226562 129.882812 C 394.53125 131.835938 379.882812 126.953125 369.140625 132.8125 C 362.304688 147.460938 382.8125 146.484375 392.578125 145.507812 C 403.320312 150.390625 419.921875 138.671875 407.226562 129.882812 Z M 407.226562 129.882812 "/>
<path style=" stroke:none;fill-rule:nonzero;fill:rgb(37.647059%,31.764706%,19.607843%);fill-opacity:0.8;" d="M 229.492188 172.851562 L 262.695312 172.851562 C 252.929688 170.898438 239.257812 170.898438 229.492188 172.851562 Z M 229.492188 172.851562 "/>
<path style=" stroke:none;fill-rule:nonzero;fill:rgb(36.862745%,31.372549%,19.215686%);fill-opacity:0.8;" d="M 293.945312 172.851562 L 406.25 172.851562 C 370.117188 170.898438 330.078125 170.898438 293.945312 172.851562 Z M 293.945312 172.851562 "/>
<path style=" stroke:none;fill-rule:nonzero;fill:rgb(0%,0%,0%);fill-opacity:1;" d="M 262.695312 172.851562 L 229.492188 172.851562 C 211.914062 179.6875 233.398438 194.335938 245.117188 188.476562 C 255.859375 193.359375 279.296875 182.617188 262.695312 172.851562 Z M 406.25 172.851562 L 293.945312 172.851562 C 277.34375 178.710938 295.898438 194.335938 307.617188 188.476562 L 391.601562 188.476562 C 403.320312 194.335938 421.875 179.6875 406.25 172.851562 Z M 406.25 172.851562 "/>
<path style=" stroke:none;fill-rule:nonzero;fill:rgb(45.882353%,38.431373%,23.921569%);fill-opacity:0.8;" d="M 440.429688 208.984375 L 190.429688 208.984375 C 272.460938 210.9375 358.398438 210.9375 440.429688 208.984375 Z M 440.429688 208.984375 "/>
<path style=" stroke:none;fill-rule:nonzero;fill:rgb(0%,0%,0%);fill-opacity:1;" d="M 281.25 358.398438 C 304.6875 339.84375 306.640625 304.6875 287.109375 283.203125 C 277.386719 272.890625 263.730469 267.210938 249.5625 267.582031 C 235.394531 267.957031 222.058594 274.347656 212.890625 285.15625 C 203.757812 295.636719 199.316406 309.402344 200.609375 323.242188 C 201.902344 337.082031 208.8125 349.789062 219.726562 358.398438 C 206.054688 363.28125 192.382812 373.046875 184.570312 384.765625 C 179.6875 379.882812 171.875 375 165.039062 374.023438 C 178.710938 358.398438 188.476562 336.914062 180.664062 316.40625 C 173.828125 295.898438 154.296875 283.203125 132.8125 282.226562 C 85.9375 283.203125 66.40625 345.703125 102.539062 373.046875 C 81.054688 381.835938 61.523438 400.390625 53.710938 426.757812 C 36.132812 424.804688 19.53125 431.640625 17.578125 449.21875 C 15.625 464.84375 11.71875 491.210938 33.203125 492.1875 L 466.796875 492.1875 C 491.210938 493.164062 481.445312 464.84375 484.375 449.21875 C 482.421875 432.617188 463.867188 423.828125 447.265625 426.757812 C 441.40625 403.320312 422.851562 381.835938 398.4375 373.046875 C 420.898438 354.492188 423.828125 319.335938 404.296875 297.851562 C 384.765625 278.320312 349.609375 277.34375 331.054688 299.804688 C 311.523438 318.359375 313.476562 354.492188 336.914062 373.046875 C 329.101562 375 322.265625 380.859375 315.429688 384.765625 C 308.59375 372.070312 294.921875 363.28125 281.25 358.398438 M 284.179688 314.453125 C 286.132812 316.40625 286.132812 320.3125 284.179688 322.265625 C 282.226562 363.28125 213.867188 359.375 216.796875 318.359375 C 213.867188 276.367188 283.203125 272.460938 284.179688 314.453125 M 139.648438 298.828125 C 164.0625 302.734375 176.757812 334.960938 160.15625 353.515625 C 146.484375 374.023438 112.304688 370.117188 102.539062 347.65625 C 90.820312 323.242188 113.28125 293.945312 139.648438 298.828125 M 374.023438 298.828125 C 397.460938 303.710938 411.132812 334.960938 394.53125 354.492188 C 379.882812 374.023438 345.703125 369.140625 336.914062 346.679688 C 325.195312 323.242188 347.65625 293.945312 374.023438 298.828125 M 304.6875 394.53125 C 299.804688 403.320312 291.992188 411.132812 290.039062 420.898438 C 286.132812 434.570312 266.601562 424.804688 255.859375 427.734375 L 213.867188 427.734375 C 210.9375 417.96875 206.054688 408.203125 200.195312 399.414062 C 193.359375 391.601562 209.960938 383.789062 214.84375 377.929688 C 243.164062 360.351562 284.179688 367.1875 304.6875 394.53125 M 197.265625 427.734375 L 70.3125 427.734375 C 87.890625 369.140625 179.6875 369.140625 197.265625 427.734375 M 430.664062 427.734375 L 304.6875 427.734375 C 320.3125 369.140625 414.0625 369.140625 430.664062 427.734375 M 467.773438 475.585938 L 33.203125 475.585938 C 34.179688 463.867188 27.34375 441.40625 45.898438 443.359375 L 454.101562 443.359375 C 473.632812 439.453125 466.796875 463.867188 467.773438 475.585938 Z M 467.773438 475.585938 "/>
<path style=" stroke:none;fill-rule:nonzero;fill:rgb(97.254902%,92.941176%,90.196078%);fill-opacity:1;" d="M 284.179688 322.265625 L 284.179688 314.453125 C 283.203125 272.460938 213.867188 276.367188 216.796875 318.359375 C 213.867188 359.375 282.226562 363.28125 284.179688 322.265625 Z M 139.648438 298.828125 C 113.28125 293.945312 90.820312 323.242188 102.539062 347.65625 C 112.304688 370.117188 146.484375 374.023438 160.15625 353.515625 C 176.757812 334.960938 164.0625 302.734375 139.648438 298.828125 Z M 374.023438 298.828125 C 347.65625 293.945312 325.195312 323.242188 336.914062 346.679688 C 345.703125 369.140625 379.882812 374.023438 394.53125 354.492188 C 411.132812 334.960938 397.460938 303.710938 374.023438 298.828125 Z M 374.023438 298.828125 "/>
<path style=" stroke:none;fill-rule:nonzero;fill:rgb(47.45098%,45.882353%,43.921569%);fill-opacity:0.8;" d="M 284.179688 322.265625 C 286.132812 320.3125 286.132812 316.40625 284.179688 314.453125 Z M 284.179688 322.265625 "/>
<path style=" stroke:none;fill-rule:nonzero;fill:rgb(45.490196%,57.647059%,53.72549%);fill-opacity:1;" d="M 304.6875 394.53125 C 283.136719 367.257812 244.71875 360.160156 214.84375 377.929688 C 209.960938 383.789062 193.359375 391.601562 200.195312 399.414062 C 206.054688 408.203125 210.9375 417.96875 213.867188 427.734375 L 255.859375 427.734375 C 266.601562 424.804688 286.132812 434.570312 290.039062 420.898438 C 291.992188 411.132812 299.804688 403.320312 304.6875 394.53125 Z M 304.6875 394.53125 "/>
<path style=" stroke:none;fill-rule:nonzero;fill:rgb(86.666667%,65.490196%,65.882353%);fill-opacity:1;" d="M 197.265625 427.734375 C 179.6875 369.140625 87.890625 369.140625 70.3125 427.734375 Z M 197.265625 427.734375 "/>
<path style=" stroke:none;fill-rule:nonzero;fill:rgb(90.980392%,81.960784%,66.27451%);fill-opacity:1;" d="M 430.664062 427.734375 C 414.0625 369.140625 320.3125 369.140625 304.6875 427.734375 Z M 430.664062 427.734375 "/>
<path style=" stroke:none;fill-rule:nonzero;fill:rgb(81.176471%,83.529412%,85.882353%);fill-opacity:1;" d="M 467.773438 475.585938 C 466.796875 463.867188 473.632812 439.453125 454.101562 443.359375 L 45.898438 443.359375 C 27.34375 441.40625 34.179688 463.867188 33.203125 475.585938 Z M 467.773438 475.585938 "/>
</g>
</svg>
